<svg xmlns="http://www.w3.org/2000/svg" width="768" height="768" viewBox="0 0 768 768">
  <metadata><?xpacket begin="﻿" id="W5M0MpCehiHzreSzNTczkc9d"?>
<x:xmpmeta xmlns:x="adobe:ns:meta/" x:xmptk="Adobe XMP Core 5.6-c142 79.160924, 2017/07/13-01:06:39        ">
   <rdf:RDF xmlns:rdf="http://www.w3.org/1999/02/22-rdf-syntax-ns#">
      <rdf:Description rdf:about=""/>
   </rdf:RDF>
</x:xmpmeta>
                                                                                                    
                                                                                                    
                                                                                                    
                                                                                                    
                                                                                                    
                                                                                                    
                                                                                                    
                                                                                                    
                                                                                                    
                                                                                                    
                                                                                                    
                                                                                                    
                                                                                                    
                                                                                                    
                                                                                                    
                                                                                                    
                                                                                                    
                                                                                                    
                                                                                                    
                                                                                                    
                           
<?xpacket end="w"?></metadata>
<defs>
    <style>
      .cls-1 {
        fill: #fff;
        fill-rule: evenodd;
      }
    </style>
  </defs>
  <path class="cls-1" d="M751.9,366.054a2.63,2.63,0,0,1-.379-0.038l-22.511,94.616,10.778,5.805a2.619,2.619,0,1,1,2.188,4.054,2.6,2.6,0,0,1-.747-0.12l-35.1,88.061a2.623,2.623,0,0,1,.579.395l0.006,0a2.606,2.606,0,0,1,.453.534h0c0.007,0.012.012,0.025,0.019,0.036h0a2.567,2.567,0,0,1,.248.543,0.258,0.258,0,0,1,.008.026,2.57,2.57,0,0,1,.135.788,2.591,2.591,0,0,1-3.3,2.515h0c-0.044-.013-0.086-0.026-0.13-0.041h0a2.608,2.608,0,0,1-.592-0.272h0l-62.126,80.848a2.606,2.606,0,0,1,.345.382h0a2.65,2.65,0,0,1,.28.474,0.015,0.015,0,0,1,0,0,2.545,2.545,0,0,1,.146.434h0c0.007,0.028.019,0.054,0.025,0.082h0a2.59,2.59,0,0,1,.06.547,2.62,2.62,0,0,1-2.623,2.615,2.647,2.647,0,0,1-.56-0.063h0c-0.017,0-.032-0.01-0.048-0.015a2.6,2.6,0,0,1-.966-0.458h0l-0.006,0a2.7,2.7,0,0,1-.4-0.374h0l-73.451,52.838a2.578,2.578,0,0,1,.378,1.333,2.619,2.619,0,0,1-2.623,2.616,2.592,2.592,0,0,1-.735-0.118l-0.081-.025h0a2.56,2.56,0,0,1-.545-0.248h0l-0.01,0a2.621,2.621,0,0,1-.562-0.466l0-.006a2.633,2.633,0,0,1-.4-0.578h0L479.475,734.5a2.548,2.548,0,0,1,.122.744,2.623,2.623,0,1,1-4.061-2.183l-6.574-12.187-31.9,6.529-4.487,14a2.615,2.615,0,1,1-3.611,2.67l-75.2.873a2.579,2.579,0,0,1-.5,1.354h0c0,0.006-.009.011-0.013,0.016h0a2.712,2.712,0,0,1-.3.335h0l-0.036.029a2.619,2.619,0,0,1-.8.5c-0.076.028-.155,0.049-0.233,0.072h0c-0.07.02-.137,0.048-0.21,0.062a2.653,2.653,0,0,1-.515.052,2.619,2.619,0,0,1-2.623-2.615,2.5,2.5,0,0,1,.028-0.276L278.86,730.814a2.628,2.628,0,1,1-1.365-3.067l2.451-4.069-64.94-19.436h0a2.6,2.6,0,0,1-.364.624c-0.022.028-.045,0.055-0.068,0.082a2.609,2.609,0,0,1-.512.478l0,0a2.627,2.627,0,0,1-.622.306c-0.051.017-.1,0.032-0.153,0.047a2.583,2.583,0,0,1-3.236-3.173c0.011-.038.023-0.073,0.034-0.11a2.635,2.635,0,0,1,.26-0.58l-79.3-58.293h0a2.621,2.621,0,0,1-.4.368h0a2.528,2.528,0,0,1-.433.261h0c-0.015.007-.028,0.016-0.043,0.024h0a2.7,2.7,0,0,1-.436.149h0c-0.031.008-.06,0.021-0.091,0.028h0a2.607,2.607,0,0,1-2.942-3.629h0l0.016-.029a2.557,2.557,0,0,1,.278-0.457v0a2.6,2.6,0,0,1,.353-0.381L62.3,552.9a2.612,2.612,0,1,1,1.236-2.362l14.323,0.475L29.318,464.439a2.578,2.578,0,0,1-.5.167l-0.017,0a2.614,2.614,0,1,1-.039-5.116l51.277-174a2.621,2.621,0,0,1-.648-0.374L22.626,345.987a2.589,2.589,0,0,1,.682,1.745,2.726,2.726,0,1,1-2.289-2.582L39.6,260.855h0a2.615,2.615,0,0,1-1.3-.908c-0.009-.012-0.019-0.022-0.027-0.034a2.58,2.58,0,0,1-.349-0.656c-0.015-.042-0.026-0.084-0.04-0.127a2.585,2.585,0,0,1-.125-0.759,2.618,2.618,0,0,1,2.623-2.614,2.652,2.652,0,0,1,.6.075l0.041,0.013a2.558,2.558,0,0,1,.531.2h0L124.9,121.732h0a2.594,2.594,0,0,1-.438-0.419l-0.021-.024h0a2.62,2.62,0,0,1-.484-0.92h0c-0.008-.029-0.017-0.058-0.026-0.086a2.591,2.591,0,0,1-.088-0.638,2.612,2.612,0,0,1,4.211-2.068h0a2.654,2.654,0,0,1,.405.388L212.124,59.3a2.565,2.565,0,0,1-.243-0.566c-0.01-.029-0.02-0.057-0.028-0.087a2.589,2.589,0,0,1,3.212-3.166c0.053,0.014.1,0.031,0.155,0.048a2.607,2.607,0,0,1,.577.269l0.016,0.009a2.64,2.64,0,0,1,.522.456c0.017,0.019.032,0.038,0.048,0.058a2.6,2.6,0,0,1,.374.577l95.816-34.5a2.574,2.574,0,0,1-.1-0.666,2.588,2.588,0,0,1,3.326-2.508h0c0.088,0.025.176,0.048,0.26,0.08a2.628,2.628,0,0,1,.261.128h0l0.093,0.05a2.65,2.65,0,0,1,.367.26c0.027,0.022.056,0.044,0.082,0.068h0a2.721,2.721,0,0,1,.265.286h0l0.017,0.021a2.637,2.637,0,0,1,.259.4h0l0.009,0.017a2.612,2.612,0,0,1,.178.434,0.014,0.014,0,0,0,0,.006,2.572,2.572,0,0,1,.1.467L430.878,18.5a2.585,2.585,0,0,1,.494-1.376l0,0a2.608,2.608,0,0,1,.309-0.352c0.018-.017.038-0.03,0.057-0.047a2.54,2.54,0,0,1,.317-0.25c0.045-.03.1-0.051,0.144-0.078a2.551,2.551,0,0,1,.285-0.149,2.662,2.662,0,0,1,.263-0.081c0.072-.021.141-0.05,0.216-0.065a2.621,2.621,0,0,1,3.14,2.563,2.565,2.565,0,0,1-.036.353l84.528,19.2a2.607,2.607,0,0,1,.915-1.284h0l0.012-.01a2.622,2.622,0,0,1,.722-0.373l0.08-.025h0a2.589,2.589,0,0,1,3.379,2.492,2.577,2.577,0,0,1-.245,1.088l57.192,32.516h0a2.674,2.674,0,0,1,.379-0.426c0.035-.033.074-0.061,0.112-0.092a2.552,2.552,0,0,1,.351-0.245c0.052-.031.1-0.059,0.158-0.086a2.614,2.614,0,0,1,.39-0.151c0.056-.017.109-0.038,0.167-0.052A2.6,2.6,0,0,1,587.43,74.1a2.573,2.573,0,0,1-.115.727c-0.013.045-.026,0.088-0.041,0.132a2.607,2.607,0,0,1-.323.642l65.924,55.348a2.616,2.616,0,0,1,.831-0.557c0.024-.01.05-0.014,0.074-0.023a2.552,2.552,0,0,1,.417-0.129,2.624,2.624,0,0,1,3.149,2.562,2.577,2.577,0,0,1-.065.566c-0.008.037-.023,0.07-0.033,0.106a2.593,2.593,0,0,1-.154.431c-0.011.022-.024,0.042-0.035,0.064a2.558,2.558,0,0,1-.268.425c0,0.006-.009.011-0.013,0.016a2.6,2.6,0,0,1-.384.393h0l55.356,79.7a2.62,2.62,0,0,1,.563-0.237h0c0.028-.009.054-0.018,0.081-0.025h0a2.593,2.593,0,0,1,3.271,2.525,2.587,2.587,0,0,1-.11.708h0c-0.011.037-.022,0.073-0.034,0.109h0a2.6,2.6,0,0,1-.725,1.114h0l0,0h0a2.6,2.6,0,0,1-.589.4l17.782,45.38a2.618,2.618,0,1,1-1.2.739l-17.678-19.223-0.217,39.422,28.06,12.773a2.614,2.614,0,1,1,2.847,3.832l7.98,58.816c0.042,0,.081-0.013.123-0.013A2.615,2.615,0,1,1,751.9,366.054Zm-0.824-.144-0.043-.014-38,83.435h0a2.618,2.618,0,0,1,.973.959l0.016,0.029h0a2.623,2.623,0,0,1,.213.488h0l0.027,0.089a2.478,2.478,0,0,1-.108,1.736l14.438,7.777ZM712.248,219.243l-7.259,17.242,7.669,8.339,0.14-25.47A2.567,2.567,0,0,1,712.248,219.243ZM421.894,61.719l63.073,124.949h0a2.6,2.6,0,0,1,.465-0.138,2.514,2.514,0,0,1,.5-0.05,2.658,2.658,0,0,1,.4.04L515.626,68.183l-92.532-8.223h0A2.609,2.609,0,0,1,421.894,61.719Zm-3.9-2.879-50.7-18.165-40.1,13.189,24.7,66.985L418.43,61.069a2.591,2.591,0,0,1-.394-0.758c0-.008,0-0.016-0.007-0.023h0a2.411,2.411,0,0,1-.091-0.36A2.3,2.3,0,0,1,417.9,59.5,2.588,2.588,0,0,1,417.99,58.839ZM30.767,462.738c-0.012.045-.026,0.088-0.041,0.132a2.576,2.576,0,0,1-.274.592l83.033,63.76-11.178-83.408L30.827,461.649A2.217,2.217,0,0,1,30.767,462.738Zm114.706,89.047a2.758,2.758,0,0,1,.31-0.281h0c0.013-.01.024-0.021,0.037-0.03h0a2.553,2.553,0,0,1,.366-0.229h0l0.021-.012h0a2.611,2.611,0,0,1,.406-0.164h0l0.014,0h0a2.6,2.6,0,0,1,.453-0.1l-3.912-117.351L102.755,443.7,114,527.618Zm-31.386-23.521,3.225,24.058,27.493,0.915a2.551,2.551,0,0,1,.133-0.569h0l0-.009h0a2.635,2.635,0,0,1,.249-0.512ZM439.04,669.026l-102.355-34.1h0a2.614,2.614,0,0,1-1.216,1.278l-0.027.014h0a2.6,2.6,0,0,1-.541.2l7.206,47.335,96.869-13.98c0-.048-0.015-0.094-0.015-0.143A2.582,2.582,0,0,1,439.04,669.026Zm5.122,1.054,9.947,2.641,1.457-4.544L444.2,669.548c0,0.029.009,0.056,0.009,0.085A2.635,2.635,0,0,1,444.162,670.08Zm-0.121.442a2.588,2.588,0,0,1-.393.707c-0.014.018-.029,0.034-0.043,0.052a2.624,2.624,0,0,1-.583.535h0l7.137,13.232,3.81-11.889Zm-0.729-2.843h0a0,0,0,0,0,0,0,2.631,2.631,0,0,1,.353.378h0a2.589,2.589,0,0,1,.272.441h0c0.012,0.024.028,0.047,0.039,0.072h0a2.6,2.6,0,0,1,.172.52h0l11.571-1.4,31.655-98.755-44.513,98.422h0A2.611,2.611,0,0,1,443.312,667.679ZM637.249,644.7l-54.823-29.27-8.921,38.049,63.541-7.667c0-.029-0.009-0.055-0.009-0.083A2.594,2.594,0,0,1,637.249,644.7Zm-6.093-226.717,78.279,32.4h0a2.6,2.6,0,0,1,2.1-1.387h0l0.374-67.866-80.765,35.236a2.516,2.516,0,0,1,.1.388,2.363,2.363,0,0,1,.044.441A2.578,2.578,0,0,1,631.156,417.987Zm79.474,35.966h0a2.587,2.587,0,0,1-.581-0.38h0c-0.014-.012-0.028-0.022-0.042-0.035h0a2.6,2.6,0,0,1-.881-1.941,2.285,2.285,0,0,1,.043-0.425,2.678,2.678,0,0,1,.09-0.358h0l-78.278-32.405a2.66,2.66,0,0,1-.377.543l-0.009.011a2.63,2.63,0,0,1-.5.431l54.963,103.429,25.576-68.87h0Zm-80.943-34.341a2.6,2.6,0,0,1-.667.17l6.84,142.166,34.933-.718,14.048-37.83ZM592.405,229.589c0,0.014,0,.027,0,0.042a2.369,2.369,0,0,1-.046.457,2.5,2.5,0,0,1-.114.413h0l96.306,43.836,15.9-37.759-15.678-17.05Zm95.98-10.482-52.774-57.39L591.423,227.6a2.615,2.615,0,0,1,.328.312h0l0.008,0.01h0a2.612,2.612,0,0,1,.283.393l0.012,0.022h0a2.661,2.661,0,0,1,.168.333h0c0,0.006,0,.013,0,0.019a2.522,2.522,0,0,1,.132.441h0Zm-96.328,11.809a2.5,2.5,0,0,1-.285.405h0a2.6,2.6,0,0,1-.354.342h0a2.53,2.53,0,0,1-.415.271h0a2.623,2.623,0,0,1-.465.19h0l37.826,182.494a2.528,2.528,0,0,1,.3-0.03,2.613,2.613,0,0,1,.794.135h0L688.378,274.76ZM83.489,283.83h0c-0.017.052-.029,0.106-0.049,0.157h0a2.548,2.548,0,0,1-.168.349h0c-0.007.012-.013,0.025-0.02,0.037h0a2.6,2.6,0,0,1-.246.35L140.079,340.9l-2.545-76.331-44.229-2.717L82.48,280.913a2.621,2.621,0,0,1,.817.924c0.014,0.026.029,0.051,0.042,0.077h0A2.454,2.454,0,0,1,83.489,283.83Zm57.065,57.538,73.156,72.008h0a2.536,2.536,0,0,1,.358-0.257l0,0h0a2.7,2.7,0,0,1,.393-0.193h0l0.01,0h0a2.608,2.608,0,0,1,.89-0.172h0l10.573-140.378a2.618,2.618,0,0,1-.8-0.273h0c-0.03-.016-0.059-0.031-0.088-0.048h0a2.667,2.667,0,0,1-.333-0.231l-0.047-.038h0a2.609,2.609,0,0,1-.246-0.236h0c-0.021-.023-0.039-0.047-0.058-0.07a2.65,2.65,0,0,1-.262-0.369l0-.006a2.6,2.6,0,0,1-.238-0.554c-0.006-.018-0.012-0.036-0.017-0.054a2.533,2.533,0,0,1-.1-0.624h0L138,264.6Zm72.267,73.549a2.7,2.7,0,0,1,.1-0.393h0a0.766,0.766,0,0,1,.027-0.085h0a2.5,2.5,0,0,1,.168-0.35h0l0-.008h0a2.7,2.7,0,0,1,.262-0.38l-72.812-71.667,3.034,91,69.209-17.269a2.611,2.611,0,0,1-.041-0.407A2.4,2.4,0,0,1,212.821,414.917Zm217.688-33.229,107.524,19.144,26.016-86.463-23.771-37.99L429.962,379.847h0a2.514,2.514,0,0,1,.22.329h0l0.035,0.064h0a2.586,2.586,0,0,1,.144.311h0c0.022,0.059.038,0.121,0.057,0.183h0a2.584,2.584,0,0,1,.114.723C430.532,381.536,430.516,381.611,430.509,381.688Zm133.717-67.9,24.591-81.728a2.63,2.63,0,0,1-.768-0.48h0L540.622,276.06Zm-25.738,87.131,87.657,15.607a2.609,2.609,0,0,1,.948-1.4L564.374,314.887Zm88.228,18.02h0a2.644,2.644,0,0,1-.282-0.377h0v0h0a2.584,2.584,0,0,1-.389-1.353c0-.079.017-0.153,0.023-0.23l-87.711-15.618-48.57,161.416h0a2.575,2.575,0,0,1,.647.381h0L626.716,418.935h0ZM537.9,401.275L430.43,382.139h0a2.529,2.529,0,0,1-.223.554l-0.01.019h0a2.571,2.571,0,0,1-.284.414h0l-0.006.007a2.658,2.658,0,0,1-.393.379h0a2.624,2.624,0,0,1-.567.346h0l59.27,178.8a2.544,2.544,0,0,1,1.13-.022ZM428.509,384h0a2.643,2.643,0,0,1-.6.075,2.4,2.4,0,0,1-.475-0.048h0A2.484,2.484,0,0,1,427,383.9L356.8,530.916a2.613,2.613,0,0,1,.962.99l0,0a2.623,2.623,0,0,1,.2.488c0.015,0.043.03,0.086,0.041,0.13h0a2.59,2.59,0,0,1,.086.632,2.549,2.549,0,0,1-.039.384l128.286,30.822a2.639,2.639,0,0,1,.223-0.489l0,0a2.56,2.56,0,0,1,.315-0.429l0.021-.026a2.713,2.713,0,0,1,.359-0.318h0c0.018-.014.034-0.03,0.053-0.043h0a2.56,2.56,0,0,1,.468-0.264ZM228.933,270.323h0c-0.017.082-.049,0.157-0.073,0.236h0c-0.008.026-.017,0.05-0.024,0.076a2.528,2.528,0,0,1-.229.5h0c-0.023.039-.039,0.081-0.064,0.118a2.558,2.558,0,0,1-.3.36h0l-0.006.008a2.671,2.671,0,0,1-.381.322c-0.006,0-.01.01-0.016,0.014a2.619,2.619,0,0,1-1.448.455h0L215.823,412.788a2.637,2.637,0,0,1,.722.23l0.011,0.006h0a2.605,2.605,0,0,1,.624.427h0L362.8,282.645l-17.169-26.169L228.979,269.732c0,0.022.007,0.044,0.007,0.067A2.587,2.587,0,0,1,228.933,270.323ZM353,532.329c0-.009,0-0.018.008-0.027h0a2.574,2.574,0,0,1,.325-0.643h0L217.248,417.214h0a2.647,2.647,0,0,1-.5.376c-0.018.011-.038,0.02-0.057,0.03h0a2.571,2.571,0,0,1-.568.24l24.927,126.283,111.8-10.956c0-.009,0-0.017,0-0.026A2.58,2.58,0,0,1,353,532.329Zm72.359-151.45c0-.01.006-0.019,0.009-0.029a2.576,2.576,0,0,1,.184-0.514c0.015-.03.032-0.058,0.048-0.087h0a2.607,2.607,0,0,1,.3-0.453,0.024,0.024,0,0,0,0,0,2.574,2.574,0,0,1,.389-0.378l-63.235-96.38L217.487,413.793h0a2.607,2.607,0,0,1,.268.438h0a2.526,2.526,0,0,1,.179.491h0l207.371-33.082c0-.061-0.018-0.121-0.018-0.184A2.62,2.62,0,0,1,425.356,380.879Zm0.813,2.521h0a2.554,2.554,0,0,1-.346-0.374,0,0,0,0,1,0,0,2.6,2.6,0,0,1-.268-0.437h0a0.008,0.008,0,0,0,0,0h0a2.58,2.58,0,0,1-.178-0.49L218,415.177c0.005,0.062.019,0.121,0.019,0.184a2.3,2.3,0,0,1-.044.433,2.6,2.6,0,0,1-.1.374h0c0,0.017-.01.034-0.016,0.051a2.588,2.588,0,0,1-.324.643L353.623,531.306h0a2.688,2.688,0,0,1,.387-0.317l0,0a2.713,2.713,0,0,1,.438-0.236h0c0.025-.01.052-0.014,0.077-0.023h0a2.624,2.624,0,0,1,.94-0.18,2.409,2.409,0,0,1,.476.048h0a2.474,2.474,0,0,1,.436.124h0l70.2-147.016A2.676,2.676,0,0,1,426.169,383.4Zm-63.02-101.065,34.092-30.622a2.664,2.664,0,0,1-.29-0.477h0c0-.007-0.007-0.013-0.01-0.019h0a2.642,2.642,0,0,1-.183-0.549h0l-50.612,5.75Zm0.255,0.388,63.274,96.439h0a2.506,2.506,0,0,1,.456-0.19h0L399.655,252.727a2.7,2.7,0,0,1-.327.033,2.6,2.6,0,0,1-.511-0.052h0a2.58,2.58,0,0,1-.363-0.109h0c-0.035-.012-0.071-0.018-0.105-0.032a2.654,2.654,0,0,1-.417-0.216l-0.011-.006a2.639,2.639,0,0,1-.375-0.292ZM486.239,565.644h0a2.353,2.353,0,0,1-.045-0.447,2.576,2.576,0,0,1,.039-0.385L357.946,533.991a2.608,2.608,0,0,1-.9,1.245l43.5,68.943,85.793-38.135A2.563,2.563,0,0,1,486.239,565.644ZM356.662,535.478h0a2.54,2.54,0,0,1-.535.205h0l-0.029.009a2.6,2.6,0,0,1-.627.084,2.629,2.629,0,0,1-.309-0.031L335.041,631.4a2.6,2.6,0,0,1,.885.468h0a2.6,2.6,0,0,1,.638.758h0l63.566-28.257Zm-1.949.174a2.613,2.613,0,0,1-1.816-2.009L241.145,544.6l10.571,53.55,80.269,34.5a2.6,2.6,0,0,1,1.5-1.24h0l0.079-.025a2.048,2.048,0,0,1,1.031-.082ZM240.685,544.64l-90.669,8.885c0,0.009,0,.018,0,0.027a2.31,2.31,0,0,1-.044.436h0a2.686,2.686,0,0,1-.1.38h0L251.2,597.925Zm-90.715,8.429h0l90.626-8.881-24.921-126.24c-0.092.009-.181,0.027-0.276,0.027a2.458,2.458,0,0,1-.489-0.049,2.564,2.564,0,0,1-.453-0.132L148.749,551.323h0A2.607,2.607,0,0,1,149.97,553.069Zm74.615-285.182a2.642,2.642,0,0,1,.643-0.436h0a2.6,2.6,0,0,1,.76-0.23L221.115,180.8l-83.294,6.839h0a2.631,2.631,0,0,1-.137.787h0c-0.009.025-.015,0.051-0.025,0.077h0a2.575,2.575,0,0,1-.375.692h0Zm-86.808-80.708,83.313-6.841-4.172-74.008a2.606,2.606,0,0,1-1.566-.588l-78.175,80.179A2.582,2.582,0,0,1,137.777,187.179Zm83.771-6.878,68.1-5.593a2.56,2.56,0,0,1,.323-1.22h0c0.01-.018.018-0.035,0.028-0.052h0a2.531,2.531,0,0,1,.226-0.333h0l-71.495-67.431a2.592,2.592,0,0,1-1.357.628Zm68.258-4.721a0.015,0.015,0,0,0,0,0h0a2.7,2.7,0,0,1-.11-0.411l-68.12,5.593,4.873,86.434a2.582,2.582,0,0,1,.619.1l0.04,0.012h0a2.578,2.578,0,0,1,.548.232l62.95-90.81a2.564,2.564,0,0,1-.331-0.328h0A2.581,2.581,0,0,1,289.806,175.58ZM228.031,267.8h0a2.609,2.609,0,0,1,.564.644h0c0.008,0.014.014,0.028,0.022,0.042h0a2.583,2.583,0,0,1,.186.372,2.366,2.366,0,0,1,.087.282c0.013,0.047.033,0.091,0.043,0.14l116.421-13.228L293.5,177.019h0a2.477,2.477,0,0,1-1.878.229h0l-0.03-.009h0a2.6,2.6,0,0,1-.613-0.253ZM345.865,255.99l50.847-5.779c0-.022-0.007-0.043-0.007-0.066a2.584,2.584,0,0,1,.366-1.311L294.264,176.406h0a2.629,2.629,0,0,1-.38.366h0Zm-51.013-80.846a2.655,2.655,0,0,1-.119.456h0s0,0.007,0,.01h0a2.558,2.558,0,0,1-.2.423h0l102.807,72.428h0a2.672,2.672,0,0,1,.4-0.378h0l0.009-.008a2.592,2.592,0,0,1,.473-0.289l-24.633-66.8Zm78.555,5.37L351.7,121.641l-57.339,51.514a2.583,2.583,0,0,1,.373.687h0c0.007,0.021.012,0.043,0.019,0.064h0a2.594,2.594,0,0,1,.14.781Zm25.24,67.116h0a2.4,2.4,0,0,1,1.278-.026c0.023,0.007.045,0.015,0.069,0.021h0a2.613,2.613,0,0,1,.92.449h0l0.008,0.007a2.644,2.644,0,0,1,.4.38l82.358-58.056a2.514,2.514,0,0,1-.258-0.61h0a0.183,0.183,0,0,1-.008-0.025h0a2.558,2.558,0,0,1-.1-0.64h0l-109.23-8.106Zm2.938,1.2h0a2.565,2.565,0,0,1,.245.568h0c0.01,0.03.02,0.059,0.028,0.089h0a2.5,2.5,0,0,1-.423,2.2h0a2.609,2.609,0,0,1-1.33.941h0l27.478,126.245a2.7,2.7,0,0,1,.327-0.033,2.659,2.659,0,0,1,.532.054l56.521-187.377a2.606,2.606,0,0,1-1.019-.74Zm27.3,130.2a2.638,2.638,0,0,1,.767.48h0L540.032,275.983l-52.916-84.567h0a2.551,2.551,0,0,1-.533.2h0c-0.015,0-.029.01-0.043,0.013a2.49,2.49,0,0,1-1.139.023h0ZM540.373,275.663l47.362-44.421h0a2.625,2.625,0,0,1-.221-0.329h0l-0.015-.027h0a2.649,2.649,0,0,1-.164-0.349h0c-0.009-.023-0.015-0.048-0.022-0.072a2.556,2.556,0,0,1-.105-0.4,2.3,2.3,0,0,1-.044-0.434,2.571,2.571,0,0,1,.117-0.732l-99.008-38.645h0a2.546,2.546,0,0,1-.321.491s0,0,0,0a2.619,2.619,0,0,1-.445.429Zm-52.187-87.887h0l0.006,0.01a2.637,2.637,0,0,1,.19.393h0c0.016,0.045.028,0.092,0.043,0.137h0a2.63,2.63,0,0,1,.088.355,2.264,2.264,0,0,1,.043.423,2.571,2.571,0,0,1-.117.732h0l99.008,38.646h0a2.63,2.63,0,0,1,.3-0.468h0l0.027-.033h0a2.605,2.605,0,0,1,.413-0.4l0,0a2.7,2.7,0,0,1,.412-0.26h0a0.08,0.08,0,0,0,.016-0.008,2.608,2.608,0,0,1,.585-0.215h0L572.42,105.342c-0.043,0-.084.013-0.127,0.013a2.6,2.6,0,0,1-1.286-.349h0a0.347,0.347,0,0,1-.033-0.018,2.6,2.6,0,0,1-.355-0.25L487.933,187.42A2.549,2.549,0,0,1,488.186,187.776ZM564.549,314.3l62.935,100.579h0a2.6,2.6,0,0,1,.431-0.171L590.089,232.215a2.533,2.533,0,0,1-.3.031,2.639,2.639,0,0,1-.53-0.054Zm64.013,105.505c-0.029,0-.057-0.006-0.085-0.009s-0.081-.007-0.121-0.012l-0.028,0-0.03,0L594.769,562.793l40.631-.837Zm-0.711-.131a2.6,2.6,0,0,1-.8-0.429h0L490.769,563.466h0a2.581,2.581,0,0,1,.642,1.45L594.295,562.8Zm-136.429,145.7a2.629,2.629,0,0,1-.194.853l90.888,48.525,12.072-51.487Zm90.584,49.839-91-48.583h0a2.624,2.624,0,0,1-.763.758l48.443,90.3,34.333-4.144ZM489.845,567.6h0a2.566,2.566,0,0,1-.486.152h0a0.029,0.029,0,0,1-.01,0,2.533,2.533,0,0,1-1.108-.013h0l-32.019,99.891,81.977-9.892Zm-2.307-.136a2.615,2.615,0,0,1-1-1h0L400.8,604.57l39.59,62.745h0a2.649,2.649,0,0,1,.555-0.211l0.027-.008h0a2.6,2.6,0,0,1,.609-0.078,2.408,2.408,0,0,1,.453.045h0a2.74,2.74,0,0,1,.407.11Zm-87.159,37.292L336.751,633.04h0a2.563,2.563,0,0,1,.153.847,2.626,2.626,0,0,1-.077.606h0l102.354,34.1a2.56,2.56,0,0,1,.364-0.583l0.016-.02h0a2.607,2.607,0,0,1,.443-0.429h0Zm-65.933,31.728c-0.055,0-.108.016-0.164,0.016a2.6,2.6,0,0,1-1.143-.272l-32.194,53.463,40.708-5.873Zm-1.7-.489h0a2.626,2.626,0,0,1-.741-0.838c-0.024-.043-0.048-0.085-0.07-0.129a2.708,2.708,0,0,1-.155-0.4h0c-0.015-.05-0.034-0.1-0.046-0.149h0a2.6,2.6,0,0,1-.073-0.589,2.327,2.327,0,0,1,.044-0.436,2.554,2.554,0,0,1,.1-0.38L251.823,598.69l18.367,93.046a2.522,2.522,0,0,1,.277-0.028,2.594,2.594,0,0,1,.494.05c0.056,0.01.108,0.029,0.163,0.043a2.737,2.737,0,0,1,.3.091c0.064,0.025.125,0.056,0.187,0.086,0.078,0.038.154,0.078,0.227,0.123s0.129,0.083.191,0.129,0.116,0.091.171,0.14,0.128,0.114.187,0.177c0.039,0.043.074,0.09,0.111,0.135a2.475,2.475,0,0,1,.18.238l0.017,0.031a2.564,2.564,0,0,1,.323.773h0l27.345-3.946Zm-81.433-37.526L149.694,554.788h0a2.613,2.613,0,0,1-1.051,1.051h0l48.312,110.984,71.152,26.38a2.593,2.593,0,0,1,.282-0.459c0.006-.008.013-0.015,0.02-0.023a2.58,2.58,0,0,1,.354-0.37,0.211,0.211,0,0,1,.023-0.019,2.563,2.563,0,0,1,.433-0.295l0.011-.006a2.578,2.578,0,0,1,.509-0.208ZM214.046,417.59h0a2.61,2.61,0,0,1-.667-0.581,0.209,0.209,0,0,1-.014-0.017,2.582,2.582,0,0,1-.434-0.78h0L143.625,433.5l3.914,117.447a2.646,2.646,0,0,1,.8.167h0ZM102.693,443.246l40.461-10.095L140.1,341.566,82.683,285.05a2.616,2.616,0,0,1-.531.35l-0.008,0h0a2.6,2.6,0,0,1-.578.208h0ZM81.912,280.624c0.056,0.021.112,0.041,0.167,0.066L92.8,261.821l-5.557-.341-5.326,19.144h0Zm17.993-66.38L42.61,257h0a2.565,2.565,0,0,1,.261.573c0.009,0.028.018,0.055,0.026,0.083A2.593,2.593,0,0,1,43,258.3L86.895,261ZM87.364,261.028l5.683,0.349,40.667-71.6h0a2.623,2.623,0,0,1-.46-0.414L100.506,213.8Zm6.193,0.381,43.963,2.7-2.464-73.889a2.54,2.54,0,0,1-.489-0.071h0a2.581,2.581,0,0,1-.451-0.155h0Zm44.423,2.729,85.8,5.273a2.572,2.572,0,0,1,.5-1.183l-87.3-78.7a2.606,2.606,0,0,1-1.463.671h0ZM136.847,185.6l78.175-80.179a2.62,2.62,0,0,1-.323-0.471l-0.009-.016h0a2.558,2.558,0,0,1-.213-0.537l-31.564,5.551L136.75,185.522C136.784,185.547,136.814,185.575,136.847,185.6ZM188.838,99.37l-59.278,19.5,53.07-9.333Zm-5.606,10.059,31.168-5.482c-0.006-.075-0.022-0.147-0.022-0.224a2.524,2.524,0,0,1,.051-0.5h0a2.609,2.609,0,0,1,.1-0.353c0.012-.038.021-0.077,0.036-0.113h0a2.356,2.356,0,0,1,.108-0.22h0c0.035-.067.067-0.134,0.108-0.2h0a2.629,2.629,0,0,1,.544-0.613c0.022-.018.044-0.037,0.067-0.054h0a2.436,2.436,0,0,1,.313-0.209h0l0.025-.014a2.689,2.689,0,0,1,.417-0.186h0l0.031-.009h0a2.577,2.577,0,0,1,.441-0.105L216.01,90.433l-26.5,8.717Zm33.849-8.313h0a2.639,2.639,0,0,1,.975.216h0a0,0,0,0,0,0,0h0a2.616,2.616,0,0,1,.422.232,2.533,2.533,0,0,1,.376.309L243.27,81.467l-26.808,8.818Zm2.066,1.111h0a2.578,2.578,0,0,1,.32.638h0c0,0.009,0,.018.008,0.027a2.579,2.579,0,0,1,.148.831,2.52,2.52,0,0,1-.048.48h0c-0.016.085-.044,0.166-0.068,0.248h0c-0.008.027-.017,0.054-0.025,0.081a2.589,2.589,0,0,1-.177.415h0c-0.011.02-.021,0.04-0.033,0.06h0a2.6,2.6,0,0,1-.224.331l71.491,67.436a2.6,2.6,0,0,1,.779-0.481h0a0.28,0.28,0,0,1,.041-0.013h0a2.612,2.612,0,0,1,.913-0.172c0.053,0,.1.012,0.155,0.015L309.188,59.785,244.449,81.079Zm73.735,69.959a2.6,2.6,0,0,1,.664.264h0a2.65,2.65,0,0,1,.506.363h0l57.473-51.635-24.77-67.171-17.08,5.618Zm59.182-50.875,21.847,59.24,109.443,8.122a2.6,2.6,0,0,1,1.2-1.8L421.486,61.927a2.616,2.616,0,0,1-.969.189,2.579,2.579,0,0,1-.51-0.051h0a2.6,2.6,0,0,1-.884-0.357l-0.012-.006a2.687,2.687,0,0,1-.375-0.291Zm134.717,65.32a2.674,2.674,0,0,1,.436.2h0a2.6,2.6,0,0,1,.388.269l82.686-82.683a2.588,2.588,0,0,1-.445-0.747h0a1.3,1.3,0,0,1-.039-0.125,2.382,2.382,0,0,1-.089-0.313h0a2.458,2.458,0,0,1-.05-0.489,2.59,2.59,0,0,1,.508-1.535s0,0,0,0a2.69,2.69,0,0,1,.342-0.381L547.507,71.017l-31.419-2.792ZM547.75,70.579l4.414,0.393L526.525,43.089Zm0.381,0.494,22.753,29.468a2.632,2.632,0,0,1,.687-0.3l0.039-.012h0a2.61,2.61,0,0,1,.683-0.1,2.361,2.361,0,0,1,.44.044,2.619,2.619,0,0,1,.387.1h0l1.929-4.413L552.623,71.472Zm25.41,29.381a2.611,2.611,0,0,1,1,.954,0.254,0.254,0,0,0,.016.028h0a2.474,2.474,0,0,1,.262,1.98l10.808,3.942L575.39,96.227Zm1.119,3.394a2.48,2.48,0,0,1-.2.358l32.385,26.234L586.3,108.092Zm-0.487.71a2.628,2.628,0,0,1-.552.425h0c-0.028.017-.056,0.031-0.085,0.046a2.556,2.556,0,0,1-.661.256h0l16.786,121.743c0.042,0,.082-0.012.126-0.012a2.6,2.6,0,0,1,.634.086h0l0.037,0.011h0a2.614,2.614,0,0,1,.584.235h0l44.25-65.979-26.314-28.614Zm61.382,56.419,2.906-4.337-27.039-21.906Zm0.318,0.348,53.082,57.723,21.469-2.241c0-.015,0-0.028,0-0.043a2.339,2.339,0,0,1,.043-0.43,2.537,2.537,0,0,1,.107-0.407,0.105,0.105,0,0,1,0-.019h0a2.6,2.6,0,0,1,.295-0.609l-72.05-58.368Zm74.783,56.513h0a0.109,0.109,0,0,0-.008-0.015h0a2.593,2.593,0,0,1-.178-0.56l-21.13,2.206,15.306,16.644,7.178-17.047A2.62,2.62,0,0,1,710.656,217.838Zm-5.862,19.112-15.819,37.578,23.461,10.68,0.218-39.71Zm-16,38L629.886,414.9a2.616,2.616,0,0,1,1.072,1.054l80.953-35.317,0.52-94.927Zm23.2,174.057h0a2.571,2.571,0,0,1,.622.133h0l38-83.434a2.62,2.62,0,0,1-1-1.017l-37.244,16.249Zm28.811,21.2a2.592,2.592,0,0,1-1.232-3.362L728.9,461.1l-23,96.657Zm-12.321-9.334-14.547-7.834a2.622,2.622,0,0,1-.852.8h0l-0.037.02a2.589,2.589,0,0,1-1.231.349h0l-6.469,103.9Zm-24.551,97.48a2.64,2.64,0,0,1,.952-0.2l6.475-103.978a2.67,2.67,0,0,1-.3-0.063l-25.719,69.257Zm-18.8-34.405-13.843,37.277,31.062-.639a2.581,2.581,0,0,1,.349-1.137h0a2.634,2.634,0,0,1,.832-0.877ZM640.81,643.393c0.045,0.022.088,0.048,0.132,0.071s0.081,0.041.12,0.065l62.125-80.849a2.668,2.668,0,0,1-.3-0.323h0l-0.021-.026h0a2.531,2.531,0,0,1-.233-0.37h0l-0.009-.016a2.585,2.585,0,0,1-.269-0.9h0l-31.245.64-30.336,81.695Zm-1.047-.265a2.6,2.6,0,0,1,.583.092h0l30.275-81.527-34.739.713Zm-2.3,1.173a2.62,2.62,0,0,1,1.837-1.148h0l-3.883-80.738-40.761.837-12.125,51.722L637.468,644.3h0Zm-73.506,55.6h0l73.452-52.838a2.583,2.583,0,0,1-.3-0.723c-0.006-.024-0.017-0.046-0.022-0.07h0l-63.7,7.686L562.8,699.132A2.607,2.607,0,0,1,563.962,699.9Zm-3-.7a2.576,2.576,0,0,1,.487-0.152h0l0.01,0a2.6,2.6,0,0,1,.532-0.055,2.636,2.636,0,0,1,.369.037l10.553-45.009-33.988,4.1Zm-1.427,1.514a2.621,2.621,0,0,1,1.025-1.3l-22.124-41.241-82.363,9.939-1.514,4.723,104.976,27.875h0Zm-83.592,32.132a2.61,2.61,0,0,1,3.368,1.231l80.167-31.723-90.042,18.428Zm-6.733-12.484L559.4,701.9a2.429,2.429,0,0,1-.03-0.3,2.647,2.647,0,0,1,.045-0.448l-105-27.881-3.952,12.331Zm-0.471.1-18.469-34.245-13.042,40.693ZM353.758,744.5l75.2-.873a2.612,2.612,0,0,1,2.6-2.415,2.644,2.644,0,0,1,.574.067l4.411-13.763-82.792,16.946C353.756,744.47,353.757,744.482,353.758,744.5Zm-0.095-.486,83.045-17,13.256-41.359-7.346-13.619h0a2.568,2.568,0,0,1-.488.154l-0.01,0a2.56,2.56,0,0,1-1.088,0h0c-0.013,0-.026-0.009-0.04-0.012h0a2.559,2.559,0,0,1-.626-0.24c-0.038-.019-0.074-0.038-0.11-0.059a2.615,2.615,0,0,1-.532-0.4l-86.41,71.79A2.6,2.6,0,0,1,353.663,744.009Zm-2.5-1.869a2.577,2.577,0,0,1,.566.065l0.026,0.008h0a2.609,2.609,0,0,1,.432.134h0a2.617,2.617,0,0,1,.833.564l86.411-71.79a2.622,2.622,0,0,1-.238-0.423h0a2.564,2.564,0,0,1-.157-0.467h0l-96.862,13.976L351,742.156C351.054,742.153,351.106,742.14,351.162,742.14Zm-2.432,1.647a2.6,2.6,0,0,1,.688-0.972h0c0.023-.021.048-0.039,0.072-0.059h0a2.572,2.572,0,0,1,.424-0.288h0l0.038-.02a2.519,2.519,0,0,1,.592-0.227h0l-8.823-57.949L300.64,690.2l-20,33.209Zm-70.839-15.805a2.6,2.6,0,0,1,1.084,2.108,2.5,2.5,0,0,1-.028.276l67.639,13.259L280.4,723.815Zm2.3-4.708,19.865-32.988-26.979,3.891c0,0.049.015,0.1,0.015,0.146a2.59,2.59,0,0,1-3.425,2.477c-0.039-.012-0.078-0.021-0.116-0.036a2.605,2.605,0,0,1-.669-0.372c-0.026-.02-0.05-0.041-0.075-0.062a2.6,2.6,0,0,1-.877-1.384l-52.75,8.158c0,0.058.018,0.113,0.018,0.172a2.629,2.629,0,0,1-.054.529Zm-68.441-22.468a2.624,2.624,0,0,1,.385-0.1,2.361,2.361,0,0,1,.44-0.044,2.6,2.6,0,0,1,.8.138c0.039,0.013.078,0.022,0.116,0.036a2.605,2.605,0,0,1,.669.372c0.026,0.02.05,0.041,0.075,0.062a2.594,2.594,0,0,1,.877,1.383l52.75-8.158c0-.058-0.017-0.112-0.017-0.171a2.582,2.582,0,0,1,.1-0.69l-70.74-26.228,14.539,33.4h0Zm-1.133.746a2.6,2.6,0,0,1,.712-0.563l-14.716-33.805-65.164-24.161q-0.059.122-.129,0.237Zm-79.073-60.54c0.015,0.041.025,0.083,0.039,0.125h0a2.368,2.368,0,0,1,.024,1.456h0L196.358,666.6,148.222,556.022h0a2.637,2.637,0,0,1-.386.1h0a2.361,2.361,0,0,1-.44.044,2.715,2.715,0,0,1-.3-0.03l-17.258,83.274A2.61,2.61,0,0,1,131.542,641.012Zm-2.456-1.723a2.494,2.494,0,0,1,.3.03l17.258-83.274h0a2.614,2.614,0,0,1-1.29-.869h0l-0.007-.009h0a2.578,2.578,0,0,1-.56-1.473h0l-27.415-.911,11.6,86.517C129.008,639.3,129.046,639.289,129.086,639.289Zm-1.072.232a2.633,2.633,0,0,1,.5-0.166l-11.605-86.588-38.25-1.27Zm-64.5-88.528a2.592,2.592,0,0,1-.852,1.63l64.5,86.332L78.122,551.479ZM78.4,551.029l38.45,1.279-3.276-24.442-83.4-64.042a2.665,2.665,0,0,1-.448.395h0Zm-49.2-91.4a2.611,2.611,0,0,1,1.513,1.576l71.531-17.846L81.111,285.668c-0.04,0-.077.012-0.117,0.012a2.581,2.581,0,0,1-.516-0.052ZM41.575,260.691c-0.072.036-.141,0.075-0.216,0.105a2.527,2.527,0,0,1-.288.09c-0.06.016-.117,0.038-0.179,0.05a2.09,2.09,0,0,1-.839.017l-18.585,84.3a2.617,2.617,0,0,1,.821.428L79.053,284.81h0a2.6,2.6,0,0,1-.494-0.786h0c-0.013-.032-0.021-0.067-0.032-0.1a2.6,2.6,0,0,1-.105-0.355h0a2.554,2.554,0,0,1-.051-0.5,2.619,2.619,0,0,1,2.623-2.615,2.659,2.659,0,0,1,.475.048l5.3-19.047-43.8-2.691a2.575,2.575,0,0,1-.105.432c0,0.012-.007.025-0.012,0.037a2.588,2.588,0,0,1-.164.371l-0.038.069a2.708,2.708,0,0,1-.2.3c-0.025.032-.052,0.063-0.079,0.095a2.551,2.551,0,0,1-.226.235c-0.043.039-.089,0.074-0.135,0.111a2.45,2.45,0,0,1-.23.167C41.712,260.622,41.643,260.656,41.575,260.691Zm83.717-138.719h0L41.952,256.284a2.668,2.668,0,0,1,.381.349l57.773-43.111,25.442-91.436A2.554,2.554,0,0,1,125.292,121.972Zm1.173,0.288a2.667,2.667,0,0,1-.476-0.048l-25.282,90.862,32.269-24.08h0a2.632,2.632,0,0,1-.264-0.584h0c-0.013-.039-0.026-0.077-0.037-0.117a2.4,2.4,0,0,1-.048-1.167h0a2.54,2.54,0,0,1,.219-0.639h0a2.376,2.376,0,0,1,.133-0.243c0.037-.06.077-0.117,0.119-0.173h0a2.556,2.556,0,0,1,.163-0.2h0c0.05-.055.1-0.108,0.154-0.159h0c0.039-.036.081-0.067,0.122-0.1h0a2.6,2.6,0,0,1,.674-0.413h0a2.668,2.668,0,0,1,.429-0.132l-8.072-62.82C126.533,122.251,126.5,122.26,126.465,122.26Zm2.221-1.238c-0.037.06-.077,0.117-0.119,0.173h0c-0.039.052-.081,0.1-0.124,0.15a2.7,2.7,0,0,1-.193.207c-0.06.055-.123,0.1-0.188,0.154h0c-0.061.047-.121,0.1-0.186,0.137h0c-0.067.043-.138,0.076-0.208,0.113h0a2.532,2.532,0,0,1-.454.182c-0.063.019-.124,0.045-0.189,0.059l8.071,62.819c0.035,0,.068-0.01.1-0.01a2.583,2.583,0,0,1,.594.074h0l0.037,0.011h0a2.626,2.626,0,0,1,.526.194l45.954-75.229-53.246,9.364c0.007,0.076.023,0.148,0.023,0.225a2.613,2.613,0,0,1-.05.5h0c-0.011.054-.029,0.105-0.043,0.158h0a2.552,2.552,0,0,1-.094.3,2.72,2.72,0,0,1-.162.324c-0.018.032-.033,0.065-0.053,0.1h0Zm84.148-60.933a2.621,2.621,0,0,1-.445-0.42h0l-83.663,58.67c0.018,0.031.033,0.063,0.051,0.094l0.042,0.078c0.017,0.034.04,0.065,0.055,0.1l60.333-19.845,23.627-38.677h0ZM214.3,60.6a2.628,2.628,0,0,1-.558-0.079l-0.01,0a2.585,2.585,0,0,1-.508-0.189h0L189.88,98.545l26.1-8.586Zm98.423-37.77-95.816,34.5a2.567,2.567,0,0,1,.1.665,2.609,2.609,0,0,1-.051.5c-0.013.062-.035,0.12-0.052,0.18a2.484,2.484,0,0,1-.088.285c-0.031.077-.071,0.147-0.108,0.22s-0.068.135-.108,0.2a2.732,2.732,0,0,1-.173.234c-0.035.044-.069,0.088-0.107,0.129a2.6,2.6,0,0,1-.242.231c-0.03.025-.059,0.05-0.089,0.073a2.658,2.658,0,0,1-.314.209l-0.061.033a2.581,2.581,0,0,1-.381.166l-0.03.009a2.6,2.6,0,0,1-.442.1h0l1.673,29.243,27.787-9.139,68.731-57.447A2.653,2.653,0,0,1,312.726,22.827Zm0.518,0.751L245.4,80.284l63.863-21.006,5.224-35.012A2.62,2.62,0,0,1,313.244,23.578Zm2.537,0.665h0a2.6,2.6,0,0,1-.682.1c-0.053,0-.1-0.013-0.156-0.016l-5.191,34.79L326.6,53.576Zm1.693-1.42a2.62,2.62,0,0,1-1.261,1.265l10.821,29.345,39.557-13.011Zm113.418-3.866h0L317.705,21.89a2.584,2.584,0,0,1-.079.5h0L367.3,40.19l63.638-20.932A2.474,2.474,0,0,1,430.892,18.957Zm1.586,2.117a2.589,2.589,0,0,1-.445-0.237h0a2.663,2.663,0,0,1-.388-0.316h0a2.63,2.63,0,0,1-.566-0.826L368,40.44l50.143,17.967a2.562,2.562,0,0,1,.373-0.577h0l0.047-.056a2.593,2.593,0,0,1,.538-0.467h0a2.609,2.609,0,0,1,1.414-.419,2.636,2.636,0,0,1,.569.065h0l11.392-35.878h0Zm3.491-1.614h0a2.6,2.6,0,0,1-.915,1.284l-0.029.024a2.608,2.608,0,0,1-.656.344c-0.043.016-.086,0.027-0.13,0.04a2.591,2.591,0,0,1-.755.123,2.619,2.619,0,0,1-.568-0.065L421.525,57.088a2.621,2.621,0,0,1,.921.654h0c0.014,0.015.025,0.031,0.039,0.046a2.562,2.562,0,0,1,.3.43h0l0.012,0.02h0a2.627,2.627,0,0,1,.221.529L520.49,39.295a2.668,2.668,0,0,1-.028-0.285,2.563,2.563,0,0,1,.035-0.353Zm84.61,20.284h0L423.111,59.217a2.434,2.434,0,0,1,.029.285v0l92.6,8.229,6.5-26.26A2.608,2.608,0,0,1,520.579,39.744Zm3.913,1.466h0a2.449,2.449,0,0,1-1.809.374L516.2,67.775l30.926,2.749Zm0.746-.713c-0.006.008-.013,0.014-0.018,0.022s-0.029.033-.042,0.05c-0.053.068-.106,0.135-0.165,0.2l27.828,30.263,29.39,2.612a2.623,2.623,0,0,1,.2-0.63ZM582.58,75.466c-0.013-.02-0.022-0.041-0.034-0.062a2.643,2.643,0,0,1-.224-0.506c-0.016-.05-0.033-0.1-0.046-0.149a2.57,2.57,0,0,1-.091-0.648v0L553.3,71.532,575.25,95.4l8.308-19.011A2.609,2.609,0,0,1,582.58,75.466Zm4.077,0.489h0a2.633,2.633,0,0,1-.831.557c-0.025.01-.052,0.014-0.077,0.024a2.424,2.424,0,0,1-.941.181,2.322,2.322,0,0,1-.441-0.044,2.594,2.594,0,0,1-.388-0.1h0l-8.39,19.2L586.562,107.7l65.794,24a2.58,2.58,0,0,1,.225-0.393ZM652.7,134.442l-0.022-.027A2.626,2.626,0,0,1,652.4,134c-0.014-.026-0.03-0.051-0.043-0.078a2.575,2.575,0,0,1-.155-0.426c-0.011-.04-0.027-0.077-0.037-0.117a2.633,2.633,0,0,1-.067-0.572,2.563,2.563,0,0,1,.1-0.676h0l-64.964-23.693,22.057,23.987,29.425,23.837,14.368-21.426A2.628,2.628,0,0,1,652.7,134.442Zm3.321,0.624a2.607,2.607,0,0,1-.564.237c-0.027.008-.053,0.018-0.08,0.025a2.383,2.383,0,0,1-1.283,0l-0.066-.02a2.64,2.64,0,0,1-.554-0.226h0l-14.393,21.462,72.086,58.4h0a2.621,2.621,0,0,1,.21-0.183ZM731.128,264.91a2.647,2.647,0,0,1,.428-0.267l-17.783-45.38h0a2.523,2.523,0,0,1-.517.094h0l-0.143,25.964Zm12.218,37.167c-0.041,0-.08.012-0.121,0.012a2.589,2.589,0,0,1-2.463-3.485l-27.871-12.686-0.52,94.517,37.057-16.166h0a2.645,2.645,0,0,1-.1-0.389,2.282,2.282,0,0,1-.045-0.441,2.584,2.584,0,0,1,.05-0.493c0.011-.055.029-0.107,0.043-0.161a2.662,2.662,0,0,1,.093-0.3c0.025-.063.055-0.122,0.084-0.182a2.649,2.649,0,0,1,.128-0.235c0.039-.063.081-0.123,0.124-0.182s0.1-.125.153-0.184a2.247,2.247,0,0,1,.166-0.172c0.052-.048.107-0.091,0.163-0.135s0.136-.109.21-0.157c0.047-.029.1-0.051,0.145-0.078a2.6,2.6,0,0,1,.685-0.268Z"/>
</svg>
