<svg xmlns="http://www.w3.org/2000/svg" width="768" height="768" viewBox="0 0 768 768">
  <metadata><?xpacket begin="﻿" id="W5M0MpCehiHzreSzNTczkc9d"?>
<x:xmpmeta xmlns:x="adobe:ns:meta/" x:xmptk="Adobe XMP Core 5.6-c142 79.160924, 2017/07/13-01:06:39        ">
   <rdf:RDF xmlns:rdf="http://www.w3.org/1999/02/22-rdf-syntax-ns#">
      <rdf:Description rdf:about=""/>
   </rdf:RDF>
</x:xmpmeta>
                                                                                                    
                                                                                                    
                                                                                                    
                                                                                                    
                                                                                                    
                                                                                                    
                                                                                                    
                                                                                                    
                                                                                                    
                                                                                                    
                                                                                                    
                                                                                                    
                                                                                                    
                                                                                                    
                                                                                                    
                                                                                                    
                                                                                                    
                                                                                                    
                                                                                                    
                                                                                                    
                           
<?xpacket end="w"?></metadata>
<defs>
    <style>
      .cls-1 {
        fill: #fff;
        fill-rule: evenodd;
      }
    </style>
  </defs>
  <path class="cls-1" d="M293.7,674.608c0.142-7.27-.73-17.463-0.741-17.5-0.447-.146-0.447-0.146-3.183,2.958-0.926-.461-1.722-0.863-1.264-5.485,0.752-7.721-7.15-16.895-7.227-16.976a7.038,7.038,0,0,0-.13,1.731c-0.262-.049-0.622-0.1-0.905-0.142-6.278-8.945-17.658-6.564-25.779-11.4-7.837-4.661-7.837-4.661-19.489-18.11-0.2.234-.468,0.554-0.665,0.793,0.763,3.136.763,3.136-.054,5.349-0.73-1.823-2-3.364-2.671-5.208a5.876,5.876,0,0,0,.545-1.861,14.278,14.278,0,0,0-2.332-.9c-0.077.233-.175,0.57-0.229,0.808-0.251.044-.578,0.114-0.828,0.18-0.764-1.508-2.137-2.534-3.129-3.858,0.24-.152.556-0.347,0.806-0.5-0.01-1.064-.01-1.064-1.242-2a4.3,4.3,0,0,0-1.46.9c-0.164-.223-0.371-0.51-0.546-0.739,0.066-.314.142-0.732,0.2-1.052-0.207-.125-0.469-0.314-0.7-0.45a10.869,10.869,0,0,1-1.907.368,2.62,2.62,0,0,1,.152-1.66,4.974,4.974,0,0,0-.937-1.481c-2.54.391-2.6,0.4-4.676-2.609-0.208.2-.458,0.467-0.654,0.673-0.981-.651-1.232-1.937-2.268-2.5-3.967,3.63-3.248,4.807.807,11.339-2.746-.223-3.313-5.171-6.529-3.7a14.471,14.471,0,0,0-.142,1.823,4.309,4.309,0,0,1-1.122-1.34,5.537,5.537,0,0,0-.305,2.029c-0.774.813-.949,0.992-2.279,0.347a15.591,15.591,0,0,1,1.025-2.593,17.811,17.811,0,0,1-1.755-2.008c0.806-1.128.806-1.128-4.937-7.378,0.152-1.931.152-1.931-6.562-7.047-6.312,5.153-6.442-.928-6.442-0.977-0.011-1.074.959-1.638,1.33-2.528-0.24-.2-0.567-0.472-0.829-0.678-2.387.423-2.845,2.886-4.4,4.183,0.185,1.334.185,1.334-6.42,2.441-0.12.217-.295,0.51-0.437,0.721a8.1,8.1,0,0,1-.893.011c-0.36-.477-0.861-1.085-1.243-1.535-0.251.065-.578,0.152-0.828,0.2-0.469,2.463,2.43,3.754,2.125,6.158a2.543,2.543,0,0,0,1.581.07c0.119,0.092,12.12,9.234,7.477,12.516-0.676,4.416-.676,4.416-1.526,4.779-1.711,4.959-1.711,4.959-3.085,5.344-0.327,1.422.491,2.686,0.589,4.048-6.965,4.871-25.342-27.68-25.135-28.293a4.988,4.988,0,0,1,.414-0.678c-1.5-1.557-7.336-7.368-7.336-7.373-0.85,2.669,3.9,13.346,3.957,13.438a45.333,45.333,0,0,1,2.812,7.042c-0.186.152-.436,0.331-0.643,0.483-0.654-.423-0.654-0.423-2.126-1.508a4.161,4.161,0,0,0,.229,2.121c3.3,9.321,8.96,17.589,12.121,26.969-5.624,6.944,3.706,12.082,5.352,18.174-0.24-.01-0.567-0.016-0.818,0l7.707,15.7-0.229.146h0v0.011h-0.011c1.733,2.632,14.322,15.565,16.121,16.8,47.677,32.209,49.541,33.468,71.722,41.145a31.259,31.259,0,0,0-4.491-4.276c2.779,0.2,4.916,2.073,7.456,2.9a4.31,4.31,0,0,0-.73-1.628,3.2,3.2,0,0,1,1.558-.542,8.3,8.3,0,0,0-1.057-1.357c0.261-.053.6-0.135,0.839-0.2-3.1-3.923-8.633-5.479-10.475-10.628l0.283-.266h0c-1.286-2.061-3.433-3.309-4.948-5.154,2.387,0.7,3.411,3.972,6.452,3.45-3.1-1.947-3.1-1.947-13.526-10.883,5.068,3.272,10.617,5.779,15.293,9.669-0.044-1.042-.044-1.042-4.862-7.108,0-.032,0-0.032-2.463-5.311,0.992,0.027.992,0.027,2.093-1.177a2.63,2.63,0,0,0,1.646-.19c-0.24-.548-0.567-1.286-0.851-1.829,0.218-.162.5-0.374,0.7-0.531,0.131,0.038,12.763,4.752,15.576,2.045,4.578,1.861,8.175,5.425,12.764,7.221,3.717,1.444,8-1.839,11.51,1.356,2.714,2.5,7.14,3.679,7.172,3.7,1.755-1.763,1.755-1.763,2.965-1.871a5.031,5.031,0,0,0-.043-1.845,15.508,15.508,0,0,0,1.177-1.21,7.076,7.076,0,0,0-1.363-2.3C298.3,696.108,293.7,674.82,293.7,674.608ZM188.775,581.176c-0.294.053-.981,0.189-0.294,1.681,0.076,0.157.163,0.31,0.25,0.456a12.636,12.636,0,0,1,1.679-.25,4.012,4.012,0,0,0,1.592-.3,1.622,1.622,0,0,0,.436-2.138,0.781,0.781,0,0,0-.262-0.059,7.562,7.562,0,0,0-1.1.39c-0.153.033-.153,0.033-2.278,0.218h0l-0.022,0v0h0Zm71.264,129.358a0.987,0.987,0,0,0,.752.249l0.109-.026a0.192,0.192,0,0,1,.044-0.006c0.163-.043.316-0.1,0.479-0.157s0.349-.049.524-0.114a0.183,0.183,0,0,0,.109-0.147,4.064,4.064,0,0,0-2.529-1.215C259.276,709.449,259.287,709.975,260.039,710.534Zm7.576,19.13v-0.012c-0.109-.124-1.624-1.073-1.624-1.079a3.769,3.769,0,0,0-.97-0.3,3.451,3.451,0,0,0,1.122.824A6.148,6.148,0,0,0,267.615,729.664Zm3.848,1.882a2.189,2.189,0,0,0-.4-0.1c0.065,0.125.2,0.4,2.093,1.324,6.2,3.049,12.666,5.995,12.7,6-0.468-.521-1.2-0.635-1.689-1.129,0.174-.032.273-0.049,1.428,0.559,0.784,0.407,4.589,1.785,4.621,1.8a1.208,1.208,0,0,0-.49-0.358c0.218-.059.425,0.016,0.643-0.027-0.24-.3-6.605-3.82-6.66-3.841-2.071-.744-3.52-2.441-5.417-3.467-1.875-1.025-3.085-1.318-3.455-1.145-0.11.673,1.035,0.559,0.839,1.243a2.971,2.971,0,0,1-.589.092,2.072,2.072,0,0,0,.8.754c-0.872-.092-1.439-0.873-2.256-1.074C272.454,731.882,271.8,731.66,271.463,731.546ZM170.779,664.767l-0.032.016a4.078,4.078,0,0,0,.817.966,7.848,7.848,0,0,0,2.464,1.682A16.77,16.77,0,0,0,170.779,664.767Zm3.085-67.907c-0.087.016-.218,0.043-0.043,0.309a10.378,10.378,0,0,0,2.528,2.3c-0.011-.022-0.926-2.029-0.948-2.057A3.877,3.877,0,0,0,173.864,596.86Zm3.335,11.7a0.915,0.915,0,0,0,.5.141,8.827,8.827,0,0,1,1.253.282c0.066-.3.251-1.768-0.435-1.736A2.214,2.214,0,0,0,177.2,608.562Zm-2.507,7.937c0.132,0.157.153,0.071,0.175-.163a5.963,5.963,0,0,1,.239-1.133,4.566,4.566,0,0,0-1.558-1.6C173.167,613.77,174.616,616.39,174.692,616.5Zm381.183,0.83c-0.86,1.416-.185,3.141-0.926,4.568-1.122,2.181-3.052,3.819-4.175,6.011-1.9,3.749-3.084,7.78-4.741,11.616a155.419,155.419,0,0,1-11.674,21.717c-3.783,5.832.131,8.355,4.349,6.087l5.3-3.657c1.592-1.5,2.235-3.683,3.914-5.088,6.278-5.269,6.278-5.269,7.684-7.281,0.774-1.107,1.864-3.765,4.97-11.757,2.039-5.224,7.957-7.015,10.508-11.778,0.044-.086,3.564-8.821,2.409-10.015a13.1,13.1,0,0,0-2.289.8,1.763,1.763,0,0,1-.2-0.266,3.015,3.015,0,0,0,.632-1.66c-0.109-.1-0.218-0.212-0.327-0.3a13.134,13.134,0,0,0-2.256.781c-0.044-.113-0.12-0.243-0.164-0.357,1.057-2.442,1.057-2.442.872-2.93-0.36-.054-0.36-0.054-1.733.705-0.6-2.186,2.8-3.239,1.581-5.588a4.838,4.838,0,0,1-1.843.418c-0.937-2.4,2.736-2.664,2.649-4.791-0.054-1.454-1.679-1.193-2.5-1.811-0.262-2.447,4.305-4.861,1.613-6.76-2.027.5-12.938,15-14.082,17.463a3.972,3.972,0,0,0-.3.923,3.479,3.479,0,0,0,.338.1c3.325-2.316,3.325-2.316,3.782-2.4a1.456,1.456,0,0,1,.24.282C558.9,614.454,556.944,615.55,555.875,617.329ZM513.322,24.153c-0.163-.13-2.344-0.944-2.616-1.025,0.076,0.049,1.94.771,1.962,0.787A5.331,5.331,0,0,0,513.322,24.153ZM432.368,3.711c-0.2-.054-0.371-0.076-0.556-0.119L424.16,2.506c0.1,0.022.262,0.043,0.349,0.059S431.289,3.623,432.368,3.711Zm-3.248-.342a0.03,0.03,0,0,0-.022,0,6.448,6.448,0,0,0,1.079.233,2.5,2.5,0,0,0,.687.109A13.811,13.811,0,0,0,429.12,3.369ZM427.474,3.2c-0.076-.043-2.289-0.412-2.442-0.428a0.059,0.059,0,0,0-.032,0,7.057,7.057,0,0,0,1.078.271A10.653,10.653,0,0,0,427.474,3.2ZM419.909,2.3a0.6,0.6,0,0,0-.24.011,0.135,0.135,0,0,0-.011.027,1.069,1.069,0,0,0,.524.147c0.316,0.065.61,0.108,0.916,0.152,0.228,0.033.468,0.011,0.7,0.049a6.372,6.372,0,0,0,.927.147A11.222,11.222,0,0,0,419.909,2.3Zm1.254,0.45c0.054,0.017.1,0.022,0.142,0.033a8.141,8.141,0,0,0,1.395.233,5.561,5.561,0,0,0-1.483-.272C421.2,2.75,421.185,2.745,421.163,2.75Zm2.768,0.233c0.175,0.022.665,0.043,0.7,0.038a22.608,22.608,0,0,0-2.366-.44,0.8,0.8,0,0,0-.2,0,1.851,1.851,0,0,0,.633.152C423.1,2.821,423.517,2.918,423.931,2.983Zm-9.624-1.416a4.509,4.509,0,0,0-1.494-.255,0.794,0.794,0,0,0-.141-0.011c0.348,0.065.686,0.141,1.057,0.2A2.518,2.518,0,0,0,414.307,1.567Zm0.207,0.076a2.319,2.319,0,0,0,.741.2c0.022,0.006,1.864.3,2.136,0.3a0.136,0.136,0,0,1-.011-0.027,2.616,2.616,0,0,1,1.047.125,2.748,2.748,0,0,0,.338.033,18.691,18.691,0,0,0-4.208-.624A0.111,0.111,0,0,0,414.514,1.644Zm-0.905.011c-0.578-.212-4.229-0.592-4.534-0.624H409.02a0.128,0.128,0,0,0-.011.027c0.185,0.054,1.254.255,1.276,0.255A18.59,18.59,0,0,0,413.609,1.655Zm4.8,0.309c0.643,0.092,1.276.2,1.9,0.266,0.141,0.011.261-.022,0.392-0.017-0.512-.136-1.046-0.076-1.57-0.206a3.93,3.93,0,0,1,1.025.087,5.869,5.869,0,0,0,1.341.114,7.142,7.142,0,0,0-1.058-.168c0.011,0.006-.01.011-0.01,0.022a8.093,8.093,0,0,1-1.483-.217l-1.068-.13c-0.054-.006-0.142-0.011-0.2-0.011a1.252,1.252,0,0,0,.283.082c-0.1.022-.2-0.027-0.305,0A1.952,1.952,0,0,0,418.405,1.963Zm-1.744-.379a0.312,0.312,0,0,0-.1-0.022l-3.891-.439c0.13,0.022.24,0.043,0.359,0.054C413.075,1.171,416.334,1.584,416.661,1.584ZM506.6,39.5a1.416,1.416,0,0,0,.305.173c0.392,0.184.807,0.293,1.188,0.478,0.687,0.3,1.33.694,2.017,1.009a5.147,5.147,0,0,0,.795.3c1.232,0.3,1.09-.645,1.09-0.656-0.294-.977-5.352-3.125-6-3.19-0.534-.011-0.894.624,0,1.443A4.287,4.287,0,0,0,506.6,39.5Zm-29.245-7.519a1.116,1.116,0,0,0-.774.3,3.663,3.663,0,0,0,1,1.8,1.072,1.072,0,0,0,1,.19c0.011,0,1.1-.3,1.079-0.722C479.641,32.887,477.952,32.041,477.352,31.976ZM425.675,8.637c0.12,0.087.284,0.228,0.415,0.3,1.329,0.618,2.583,1.215,14.147,3.3,12,2.175,31.066,10.161,31.12,10.216-0.044.087-.087,0.2-0.12,0.271,2.1,1.183,4.6,1.595,6.453,3.266,1.221,1.118,2.725,3.521,2.191,4.6,0.087,0.2.087,0.2,3.575,1.183a1.664,1.664,0,0,1,.284-0.564,6.113,6.113,0,0,1,2.572.738c-0.011-.109-0.022-0.261-0.033-0.369,0.327-.331.327-0.337,1.929,0-0.85-1.481-2.561-1.6-3.837-2.43a2.477,2.477,0,0,0,.23-0.2c0.436,0.108.861,0.271,1.3,0.391a0.917,0.917,0,0,0-.273-0.521,1.35,1.35,0,0,1,.959.087,3.369,3.369,0,0,0-.12-0.315c1.047-.391,1.744.488,2.605,0.738-5.329-5.247-13.112-5.42-19.14-9.19a2.8,2.8,0,0,1,.774-0.087c-0.447-.271-4.937-2.8-28.122-9.087-0.076-.016-14.072-2.523-15.042-2.609A5.239,5.239,0,0,0,425.675,8.637Zm62.457,21c-0.207-.011-0.316.358-0.185,0.516a0.752,0.752,0,0,0,.185.136c0.523,0.32,1.57.526,1.537,0.249A2.6,2.6,0,0,0,488.132,29.632ZM236.114,732.355c-2.812-1.118-5.3-2.87-7.957-4.3-5.864-3.189-12.48-4.839-17.985-8.772l-17.179-10.964c4.568,5.485,11.5,7.541,17.07,11.561a27.276,27.276,0,0,1-2.965-1.373c2.616,2.631,6.573,3.2,9.233,5.811-1.309.168-2.279-.733-3.412-1.085,0.283,0.255.479,0.428,3.989,2.121,2.867,1.373,5.8,2.539,8.7,3.8a8.631,8.631,0,0,1-.861-0.624c0.676-.033,2.442.77,5.112,2,2.921,1.314,10.606,4.237,13.145,4.921C242.468,734.91,242.468,734.91,236.114,732.355ZM284.1,747.236a15.447,15.447,0,0,0-2.256-1,3.7,3.7,0,0,1,.491-0.012c-0.447-.216-0.927-0.39-1.374-0.6a2.239,2.239,0,0,0,.469.027c-0.022-.011-3.575-1.394-4.109-1.085-0.055-.017-6.976-2.214-8.742-2.881a26.256,26.256,0,0,0-4-1.1c-0.033.065-.077,0.135-0.1,0.184-2.606-.526-12.851-3.743-24.046-8.23a8.634,8.634,0,0,0-1.776-.624c1.187,0.89,2.692,1.118,3.891,1.948a12.406,12.406,0,0,1-1.723-.477c0.4,0.179.818,0.33,1.2,0.51a3.116,3.116,0,0,1-1.112-.3,8.926,8.926,0,0,0,1.591.754c7.6,3.13,21.539,7.791,21.615,7.807,0.032-.044.076-0.12,0.109-0.179a0.565,0.565,0,0,0-.153-0.157c0.327,0.01.4,0,3.2,0.911,11.826,3.787,15.63,4.666,17.679,5.132-0.468-.239-0.937-0.4-1.384-0.635A2.406,2.406,0,0,1,284.1,747.236Zm1.21,0.466a5.741,5.741,0,0,0,1.134.429,9.471,9.471,0,0,0,1.493.32,9.541,9.541,0,0,0-2.616-.765C285.305,747.7,285.305,747.7,285.305,747.7Zm-22.65-1.964a2.925,2.925,0,0,0,.861.233,22.734,22.734,0,0,0-3.989-1.328A30.835,30.835,0,0,0,262.655,745.738Zm31.327,7.5a0.8,0.8,0,0,0,.36.06,6.77,6.77,0,0,0-1.984-.531A12.527,12.527,0,0,0,293.982,753.241Zm14.453,3.055a1.331,1.331,0,0,0,.567.07,0.044,0.044,0,0,0,.022-0.038,21.546,21.546,0,0,0-2.137-.385C307.018,756.008,308.294,756.263,308.435,756.3Zm21.757,1.855a0.025,0.025,0,0,0-.033-0.01,0.18,0.18,0,0,0-.033-0.006,0.076,0.076,0,0,0-.043,0,10.394,10.394,0,0,0-1.232-.2c0.065,0.059,1.308.293,1.308,0.293a6.571,6.571,0,0,0,.839.125,3.573,3.573,0,0,0-.763-0.19A0.14,0.14,0,0,0,330.192,758.151Zm7.3,1.736a2.26,2.26,0,0,0,.327.038,18.276,18.276,0,0,0-2.2-.369C335.729,759.6,337.091,759.822,337.5,759.887ZM166.354,684.558a2.606,2.606,0,0,0,.937,1.151c0.4,0.3.752,0.352,0.731,0.13A2.5,2.5,0,0,0,166.354,684.558Zm-43.24-47.888c-0.6.618,4.8,11.089,5.766,11.887,0.327,0.26.534,0.222,0.49-.093-0.022-.26-2.855-6.982-2.855-7.02C126.482,641.4,123.833,636.724,123.114,636.67ZM90.6,546.313a4.115,4.115,0,0,0-1.232-1.638l-0.523.607s0.022,0,.022.011C89.357,545.825,90.61,546.709,90.6,546.313Zm23.9,40.12c0.49,0.45,1.755,1.242,1.776.949a4.486,4.486,0,0,0-1.373-1.557l-0.4.6v0.006ZM123.364,645a0.462,0.462,0,0,0-.087.022l-0.087.043a0.619,0.619,0,0,0-.076.022,0.035,0.035,0,0,0,.021.016c0.829,0.809,2.093,1.829,2.083,1.574a5.243,5.243,0,0,0-1.766-1.72Zm-10.256-52.5a3.281,3.281,0,0,0-1.428-1.888l-0.327.054a1.013,1.013,0,0,0-.153.039,0.633,0.633,0,0,0-.153.032v0h0C111.788,591.733,113.042,592.938,113.108,592.5Zm4.283-7.226,0.022,0.016V585.3c0.752,1.014,1.984,2.224,2.071,1.8,0.055-.2-0.218-0.944-1.384-1.953ZM82.1,590.165c-0.25.135,0.065,0.8,0.2,1a0.642,0.642,0,0,0,.85.325,2.02,2.02,0,0,0-.458-0.814C82.228,590.138,82.228,590.138,82.1,590.165Zm39.164,51.019c-0.24.113,0.207,0.591,0.414,0.8,0.567,0.613.567,0.564,0.6,0.206a0.94,0.94,0,0,0-.327-0.482A1.137,1.137,0,0,0,121.261,641.184ZM95.243,608.063c-0.392.466,3.248,6.125,4.044,6.987a0.918,0.918,0,0,0,.174.131c0.153-.293-2.419-4.932-2.452-4.976C96.66,609.62,95.624,608.106,95.243,608.063Zm-7.521-62.949s-0.01-.022.011-0.022a21.5,21.5,0,0,0-2.246-2.571,3.541,3.541,0,0,0-1.678-.977c-0.055.038-.142,0.071-0.011,0.3A19.458,19.458,0,0,0,87.721,545.114Zm27.36,31.781a0.387,0.387,0,0,0-.142.591,1.515,1.515,0,0,0,.294.31l1.079,0.916c0.054,0.038.207,0.163,0.251,0.038C116.705,578.4,115.909,576.83,115.081,576.9Zm-32.929,11c0.131-.238-0.9-1.969-1.5-1.86a0.466,0.466,0,0,0,.076.6,1.954,1.954,0,0,0,.4.444C82.13,587.94,82.13,587.94,82.152,587.9Zm29.408-2.327c-0.2.049-.229,0.358-0.066,0.608a1.676,1.676,0,0,0,.294.3l1.069,0.868c0.066,0.055.2,0.158,0.24,0.049a2.634,2.634,0,0,0-.621-1.345A1.753,1.753,0,0,0,111.56,585.57Zm-30.869-.808c0.632,0.233.643,0.13,0.643,0.092,0.033-.163-0.229-0.787-1.362-2.083a2.151,2.151,0,0,0,.349,1.687A0.814,0.814,0,0,0,80.691,584.762Zm28.994-10.889a1.532,1.532,0,0,0-.043,1.687,0.856,0.856,0,0,0,.49.342c0.8,0.228.807,0.163,0.828,0.022C110.971,575.87,111.015,575.349,109.685,573.873Zm11.445,63.318a0.69,0.69,0,0,0,.588.054,5.541,5.541,0,0,0-1.645-1.807,2.192,2.192,0,0,0,.654,1.492A0.84,0.84,0,0,0,121.13,637.191Zm-6.518-44.872c0.73,0.217.741,0.119,0.763,0.049,0.043-.19-0.2-0.787-1.341-2a1.468,1.468,0,0,0,.076,1.612A0.856,0.856,0,0,0,114.612,592.319Zm36.526-29.253a3.033,3.033,0,0,0,.85.8,1.6,1.6,0,0,0,.229.152c0.142,0.1.327,0.228,0.457,0.326a10.41,10.41,0,0,0,2.191,1.453c0.872,0.283,1.309-1.085,1.309-1.1,0.239-1.22-2.126-3.352-2.159-3.38a6.306,6.306,0,0,0-2.115-.26C150.091,561.352,151.116,563.055,151.138,563.066Zm-45.595-5.061c2.463,1.128,5.548-2.914,5.668-3.521,0.109-.587-0.011-1.384-1.286-1.964-1.057-.461-2.115.01-3.183-0.049s-1.123-.092-2.769-1.069a0.2,0.2,0,0,1-.054.07c0.643,1.633.643,1.633,0.588,1.731a1.23,1.23,0,0,1-1.809.5,4.274,4.274,0,0,1-1.09-.694c-0.893-.727-1.1-2.073-2.289-2.545a6.749,6.749,0,0,1-1.145-.146,2.91,2.91,0,0,1-.7-0.966,13.312,13.312,0,0,0-2.485-3.081,1.537,1.537,0,0,0,.338.976c0.741,1.519,4.077,7.085,4.087,7.1a1.2,1.2,0,0,0,.076.1c0.109,0.054.2-.011,0.349-0.179a0.509,0.509,0,0,1,.676-0.163C102.666,554.8,103.559,557.109,105.543,558.005Zm-0.011-26.741c0.262,0.1,1.483.45,1.483,0.45a0.294,0.294,0,0,0,.3-0.119,3.139,3.139,0,0,0-1.482-2.7,1.369,1.369,0,0,0-1.166,1.8A1.386,1.386,0,0,0,105.532,531.264Zm-15.14,28.8a10,10,0,0,0,.033,1.139,2.012,2.012,0,0,0,.272.668,11.743,11.743,0,0,0,1.145,1.757,0.086,0.086,0,0,0,.065-0.011l0.85-.916c0.011-.114-1.123-5.74-1.134-5.789-0.152-.456-0.48-1.427-1.275-1.406a0.975,0.975,0,0,0-.512,1.134C89.9,557.8,90.294,558.916,90.392,560.066Zm-0.3,5a0.035,0.035,0,0,0-.011-0.033,0.187,0.187,0,0,1-.022-0.043,2.3,2.3,0,0,0-1.275-1.313c-0.534.168,0.85,3.776,0.97,3.971,0.327,0.521.632,0.488,0.774-.054a3.564,3.564,0,0,0-.4-2.474V565.09C90.087,565.073,90.087,565.068,90.087,565.063Zm1.439-20.226c-0.741.255-.2,1.422,0.011,1.867,0.959,2.023,2.267,3.743,2.485,3.439,0.251-.353-1.068-3.847-1.188-4.107A1.845,1.845,0,0,0,91.526,544.837Zm2.442-8.409c-0.436.114-.556,0.348-1.406,2.42a11.292,11.292,0,0,0-.8,3,9.493,9.493,0,0,0,1.036,1.692,0.979,0.979,0,0,0-.087-0.238,1.87,1.87,0,0,1-.109-1.286,8.835,8.835,0,0,1,1.134-2.2C95.8,536.482,93.989,536.417,93.967,536.428Zm3.008-.119a2.71,2.71,0,0,0-.261-1.552,0.028,0.028,0,0,0-.022-0.021,0.04,0.04,0,0,0-.022-0.038v-0.022a0.043,0.043,0,0,0-.011-0.027c-0.349-.787-0.382-0.847-0.992-0.782-0.7.163-.262,1.134-0.251,1.173C95.548,535.316,96.79,536.862,96.975,536.309Zm14.9,38a3.669,3.669,0,0,0-.643-1.807,0.7,0.7,0,0,0-.861-0.466c-0.643.168-.109,1.107-0.1,1.112C110.426,573.4,111.756,574.834,111.876,574.307Zm-4.447,1.042c-0.589.19-.36,1.568-0.077,2.018a0.913,0.913,0,0,0,1.537-.147A2.657,2.657,0,0,0,107.429,575.349ZM91.548,572.2a3.733,3.733,0,0,0,.305,2.718c0.316,0.472,1.973,2.007,2.125,1.589a2.964,2.964,0,0,0-.479-1.9A15.522,15.522,0,0,0,91.548,572.2Zm2.147-1.568a4.6,4.6,0,0,0-.959-1.156,5.263,5.263,0,0,0,.349,3.537c0.381,0.5.948,0.315,1.046-.357A6.33,6.33,0,0,0,93.695,570.629Zm-3.924,6.033a0.48,0.48,0,0,0,0-.25c-0.065-.7-0.284-1.335-0.371-2.018a14.49,14.49,0,0,0-.142-2.479c-0.284-.912-0.8-1.471-1.33-1.416a0.746,0.746,0,0,0-.381.759l0.218,3.711a1.575,1.575,0,0,0,.295.9C88.321,576.271,89.629,577.052,89.771,576.662Zm2.54,9.038a17.247,17.247,0,0,0,.752-2.186c0.032-.25.1-0.613-1.592-2.42a1.175,1.175,0,0,0-1.221-.591,1.251,1.251,0,0,0-.458.206,27.152,27.152,0,0,0,1.973,4.8C92.005,585.841,92.2,585.906,92.31,585.7Zm-3.957-4.579c0.392,0.608.567-.141,0.578-0.179,0.305-1.226-1.34-4.291-1.722-4.313C86.926,576.83,87.94,580.486,88.354,581.121Zm4.6,7.476a2.035,2.035,0,0,0-.414-1.009c-0.545-.89-1.2-1.682-1.788-2.539a7.543,7.543,0,0,0,1.308,3.841C92.507,589.5,92.953,588.657,92.953,588.6Zm5.821,7.243a0.886,0.886,0,0,0,1.374-.521c-0.012-.439-0.851-1.015-1.407-1.389A1.365,1.365,0,0,0,98.774,595.84Zm345.66-155.476c-0.055-.168-0.055-0.168.872-2.186a1.055,1.055,0,0,0-.654-0.255c-1.591.087-2.539,1.779-3.728,3.906-6.987,12.489-6.921,13.308-6.78,14.93,0.48,6.358,7.783,8.035,10.464,4.8,0.557-.667,1.483-5.61,2.769-14.7,0.283-1.85.742-4.942-1.188-5.805C445.611,440.792,444.7,441.216,444.434,440.364Zm-91.276,24.5c-0.109,0-13.484,2.132-14.094,2.577-3.205,2.289-2.845,6.776-5.81,9.212-2.191,1.8-5.373,1.969-7.193,4.356-0.851,1.107.6,2.062,0.228,3.136-0.948.3-2.114-.054-2.855,0.9-0.731.971-.371,2.4-1.33,3.276-1.254-.173-1.581-1.486-2.529-2.034-1.243.939-.305,2.414-0.883,3.521-0.73,1.346-2.507.83-3.357,1.932-0.087.119-.207,0.287-0.294,0.417-0.284.554-.284,0.554-0.175,3.06-3.957,1.454-3.957,1.454-3.771,2.186,0.316,1.232.6,2.306-1.591,1.536a1.979,1.979,0,0,0-1.647-.158c-0.5,1.53,1.395,3.744-.621,4.672,0.12,1.247,1.166,1.92,1.755,2.891-0.37.613-.632,1.3-1.057,1.872-1.428,2-4.665.038-5.832,2.62-0.839,1.883,1.319,4.042-.556,5.816-1.209,1.145-2.758-.26-4.011.57-0.142.9,0.088,1.828-.142,2.717-0.349,1.324-2.212,2.008-1.558,3.739,0.545,1.459,1.842,2.484,2.332,3.971a25.719,25.719,0,0,1,1.178,6.787c0.392,3.814,4.839,5.127,5.242,5.029a2.372,2.372,0,0,0,1.047-.7l9.014-9.738c0.066-.087,7.892-10.829,8.077-11.312,1.123-2.837.022-5.973,1.177-8.81,0.044-.087,4.273-9.4,7.608-9.277,1.352,0.043,2.18-7.715,2.18-7.8,0.022-1.661.131-1.845,0.447-2.382,1.406-2.257,4.556-1.644,6.1-3.7,1.962-2.647,1.156-6.315,3.281-8.908a0.857,0.857,0,0,1,1.177-.353c1.8,0.868,8.949-8.214,9.026-8.317C355.142,466.237,354.956,465.119,353.158,464.859Zm-18.2,44.4a1.045,1.045,0,0,0-.894-1.222c-1.7.077-1.657,3.711-1.646,3.75,0.066,0.77.48,0.754,1.123-.039A10.486,10.486,0,0,0,334.955,509.254ZM296.26,519.306a3.811,3.811,0,0,0,.294-1.226,12.187,12.187,0,0,1,.469-2.783,1.441,1.441,0,0,1,.665-1.112,0.971,0.971,0,0,0,.37-0.553c-0.011-.261-0.8-2.035-1.94-2.116a1.286,1.286,0,0,0-1.057.743,5.177,5.177,0,0,0-.491,2.056,13.5,13.5,0,0,1-.588,2.816,1.355,1.355,0,0,1-1.308,1.036c-0.774.136-1.21,0.277-.927,1.15,0.12,0.375.578,1.628,1.439,1.633A6.479,6.479,0,0,0,296.26,519.306Zm-12.492,1.134a8.043,8.043,0,0,0,1.69,2.5,4.829,4.829,0,0,0,1.842-1.074c0.371-.553.218-1.226-0.12-2.7a2.641,2.641,0,0,0-1.319-.3C285.142,518.888,283.539,519.4,283.768,520.44ZM348.1,483.76c-1.231,1.84-1.068,2.262-1.068,2.274,0.12,0.287.85-.093,1.177-0.267,1.679-.889,1.809-1.15,1.9-1.345,0.261-.591.131-1.747-0.8-1.806C348.874,482.638,348.874,482.638,348.1,483.76Zm7.946-28.536v0.016l0.011,0.011v0.027a0.064,0.064,0,0,0-.011.027c0.065,0.564.97,1.118,1.188,0.835,0.131-.184.1-0.818-0.556-1.763A1.308,1.308,0,0,0,356.046,455.224Zm6.431,4.112c-0.9.033-1.744,0.5-1.613,0.814,0.1,0.239.294,0.353,3.847,1.237,0.589,0.136.938,0.124,0.982-.033A4.733,4.733,0,0,0,362.477,459.336Zm-0.076-2.458a0.97,0.97,0,0,0-.665-1.687,2.045,2.045,0,0,0-1.3,1.8c0.011,0.147.043,0.586,0.425,0.559A3.115,3.115,0,0,0,362.4,456.878Zm-0.458-4.1a0.015,0.015,0,0,0,.011.011c0.731,1.487,2.562,1.785,2.79,1a1.243,1.243,0,0,0-.8-1.395A10.889,10.889,0,0,0,361.943,452.782Zm-65.509,87.172c-0.915.153-1.613,0.9-2.583,0.945a1.687,1.687,0,0,1-1.472-.755,2.778,2.778,0,0,0-.9.207c-0.905.331-1.254,1.383-2.213,1.655-1,.287-2.115-0.093-3.084.455a2.91,2.91,0,0,0-1.189,1.91c-0.327,1.459-.5,1.774-3.128,1.725-2.856-.076-2.856-0.076-3.434.049-0.806.173-1.166,1.183-2.136,1.134-0.316-.038-0.806-0.081-1.09-1.7-0.25-1.454-.327-1.893-2.213-1.638-0.315.537,0.349,1.172-.163,1.692-0.164.174-.338,0.342-1.7,0.255-2.757-.173-3.586.543-3.836,0.993-0.981,1.72,2.888,1.991,1.918,3.722-0.48.89-6.943,1.562-9.69,1.188-2.354-.32-1.232,5.453-1.079,5.724a0.6,0.6,0,0,0,.5.331c2.028-.2,3.194-2.013,5-2.621,1.733-.591,2.54,1.823,4.23,1.307a8.107,8.107,0,0,0,1.428-.857,3.383,3.383,0,0,1,.991-0.531,0.82,0.82,0,0,1,.731.287c0.087,0.076.087,0.076,3.368-.667,3.4-.759,6.125-3.119,9.428-4.113a2.189,2.189,0,0,1,1.821.158c0.5,0.277.6,1.069,1.362,0.95,1.188-.2,1.276-1.569,2.191-2.057,1.156-.607,2.3.478,3.455-0.022a2.192,2.192,0,0,0,.491-0.281c1.308-.9,1.776-2.561,3.106-3.44,1.025-.678,2.627.4,3.379-1.1C300.391,543.958,298.222,540.291,296.434,539.954Zm-34.018,6.918a0.073,0.073,0,0,1-.077.032c-0.632.06-1.286,0.06-1.951,0.152a3.4,3.4,0,0,0-.916.185c-0.174.059-.359,0.369-0.152,0.917,0.937,2.43,4.381,1.171,4.828.266a1.251,1.251,0,0,0-1.264-1.644A1.311,1.311,0,0,0,262.416,546.872Zm-12.47,8.886c-1.6.19-2.42,2.263-2.148,2.713a0.923,0.923,0,0,0,.447.287,0.519,0.519,0,0,1,.153.06c0.393,0.109.8,0.212,1.166,0.331a11.8,11.8,0,0,0,1.243.423c0.414,0.087.621-.032,0.676-0.347a10.678,10.678,0,0,0-.578-2.68A1,1,0,0,0,249.946,555.758Zm-4.6,1.188c-1.483.141-2.354,2.333-2.093,2.957,0.284,0.668,1.733.651,2.137,0.559a3.917,3.917,0,0,0,1.722-1.492,0.828,0.828,0,0,0-.207-0.738A7.631,7.631,0,0,0,245.346,556.946Zm-4.665.461a1.088,1.088,0,0,0,.556-0.922,0.715,0.715,0,0,0-.807-0.662,1.237,1.237,0,0,0-.436.1,2.56,2.56,0,0,0-.687.412,1.79,1.79,0,0,1-.817.4c-1.156.39-2.387,0.558-3.488,1.052a0.448,0.448,0,0,0-.294.608,1.313,1.313,0,0,0,.294.4l1.45,1.383a0.077,0.077,0,0,0,.043.011,1.007,1.007,0,0,0,.24-0.1,2.945,2.945,0,0,1,1.973-.521,2.537,2.537,0,0,1,1.352.581c0.926,0.7,1.221.081,1.242,0.043,0.229-.5-0.261-1.068-0.7-1.552a2.225,2.225,0,0,1-.3-0.482C240.223,557.891,240.321,557.744,240.681,557.407Zm-7.237,11.3a0.436,0.436,0,0,0,.087-0.065,1.064,1.064,0,0,0,.359-0.423,7.158,7.158,0,0,1,1.722-1.882,3.914,3.914,0,0,1,2.039-.983,0.483,0.483,0,0,0,.49-0.363,1.657,1.657,0,0,0-.763-1.73,20.477,20.477,0,0,0-3.139-.093c-1.831.255-2.747,3.776-1.962,5.04A0.879,0.879,0,0,0,233.444,568.708Zm-8.274-8.295a9.605,9.605,0,0,0,2.3.7,1.6,1.6,0,0,0,1-.374,3.889,3.889,0,0,1,2.169-.738,12.856,12.856,0,0,0,2.038-.06,0.515,0.515,0,0,0,.327-0.32,1.877,1.877,0,0,0-.61-1.231c-1.646-1.943-1.777-1.964-2.126-1.986a3.7,3.7,0,0,0-1.308.493,6.5,6.5,0,0,1-3.117,1.243,11.956,11.956,0,0,0-2.115-.038,0.758,0.758,0,0,0-.12.044s-1.471.737-.948,1.73a1.082,1.082,0,0,0,.7.542C223.96,560.576,224.56,560.288,225.17,560.413ZM221.159,559c-0.382-.407-0.687-0.874-1.1-1.265a1.653,1.653,0,0,0-.981-0.412,0.341,0.341,0,0,0-.316.521,9.714,9.714,0,0,0,3.5,2.485A6.456,6.456,0,0,0,221.159,559Zm-4.371-.375a1.731,1.731,0,0,0-1.144-1.546,0.975,0.975,0,0,0-.85,1.264,1.551,1.551,0,0,0,1.068.494C216.734,558.97,216.766,558.774,216.788,558.628Zm-6.91-.5a1.254,1.254,0,0,0,.272.332c0.011,0,.861.575,1.166-0.109a2.073,2.073,0,0,0-.152-1.758c-0.2-.309-0.3-0.439-1.33-0.412-0.872.071-.665,0.559-0.665,0.591,0,0.016.033,0.033,0.044,0.06,0.109,0.2.261,0.374,0.359,0.58C209.692,557.636,209.747,557.9,209.878,558.123Zm10.551,12.158c-0.153,0-.534.033-0.36,0.429,0.338,0.793,3.412,3.087,3.488,2.61,0.1-.543-1.352-1.959-1.886-2.49A1.638,1.638,0,0,0,220.429,570.281Zm-17.386-8.387a10.2,10.2,0,0,0,2.616,1.009,18.875,18.875,0,0,1,4.611,1.78,8.333,8.333,0,0,1,3.586,3.493,3.218,3.218,0,0,0,1.232,1.433c0.447,0.217,3.161-.049,3.291-0.656s-1.885-4.574-3.815-5.936c-1.242-.884-2.746-1.112-4.087-1.769a20.262,20.262,0,0,0-2.016-1.3,8.22,8.22,0,0,0-3.455-.488c-3.369.314-2.519,1.931-2.519,1.947A2.332,2.332,0,0,0,203.043,561.894Zm-0.621-5.691a0.094,0.094,0,0,0,.054-0.038c0.055-.081.088-0.184,0.142-0.26a3.259,3.259,0,0,0,.272-0.331,0.814,0.814,0,0,0,.132-0.272,1.117,1.117,0,0,0-1.287-1.388c-0.109.07-1.057,0.613-.752,1.226a1.294,1.294,0,0,0,.382.391C201.376,555.541,202.4,556.2,202.422,556.2ZM188.5,557.7a1.134,1.134,0,0,0-1.3-1.389c-0.109.054-1.025,0.608-.676,1.231a1.07,1.07,0,0,0,.381.374c0.011,0.022,1.025.657,1.036,0.668a0.1,0.1,0,0,0,.043-0.044,2.045,2.045,0,0,0,.131-0.255c0.087-.135.207-0.244,0.295-0.385A0.941,0.941,0,0,0,188.5,557.7Zm6.333-.131h0c0.512,0.5,1.852.863,1.874,0.5a2.471,2.471,0,0,0-1.5-1.248Zm2.561-2.729a2.735,2.735,0,0,0-1.493-1.253l-0.4.787h0.033C196.034,554.917,197.419,555.254,197.4,554.841ZM190.04,551.3a1.209,1.209,0,0,0,1.155.592,1.824,1.824,0,0,0-1.047-1.367C189.854,550.577,189.952,551.109,190.04,551.3Zm53.1-82.186c-0.087-.12-0.174-0.288-0.272-0.4-0.633-.667-1.537.287-2.158-0.359-0.992-1.02-.556-2.7-1.7-3.629a2.009,2.009,0,0,0-1.7-.4,1.4,1.4,0,0,1-1.057-.353c-1.308-1.519-.644-3.9-2.333-5.262-1.341-1.058-1.341-1.058-2.442-3.521-0.12-.027-0.272-0.082-0.392-0.1-4.666,1.3-3.63,5.42-3.117,7.389-1.341.771-2.846-.526-4.164,0.32-0.055.027-4.175,4.666-4.033,4.964,1.024,1.834,4.414,1.14,4.458,3.912a4.01,4.01,0,0,1-1.079.683c-0.033.152-.087,0.353-0.131,0.5,0.316,0.45.556,0.8,4.24,1.535,0.469,0.087,2.736.662,1.144,2.756-1.155,1.5,1.744,2.056,2.29,3.3,0.327,0.748.327,0.748-1.025,2.549-0.295.408-.295,0.408,0.152,5.648,0.349,3.8-4.469,4.672-4.665,8.17,1.766,1.618,3.281-.943,5-0.889,0.043,0.038,3.531,6.727,3.9,10.124a5.835,5.835,0,0,0,.479,2.289,2.937,2.937,0,0,0,2.736,1.622c0.174-.027.174-0.027,3.237,3.375,3.216,3.569.644,8.864,3.739,12.466,0.523,0.608,8.731,5.165,8.7,2.263-0.1-7.177,2.168-4.774,2.615-4.221a4.013,4.013,0,0,0,.589.591c0.523-.282.523-0.282,0.763-1.632,2.213,0.216,2.234-.7,2.322-2.214a3.037,3.037,0,0,1,.36-0.239c0.075,0.054.075,0.054,1.046,3.8a2.5,2.5,0,0,0,.446.136c1.167,0.266,1.951-1.015,3.118-.77,0.948,0.195,1.046,1.166,1.57,1.746,1.809-.981-0.219-4.4,2.136-4.492,1.58-.07,3.009,1.514,4.687.435A3.545,3.545,0,0,0,273.915,520c1.733-3.449-.523-6.737-0.4-10.117,0.11-2.816.949-3.782,2.725-3.169a0.923,0.923,0,0,0,1.156-.14c1.613-2.089-1.276-3.549-.948-5.491,0.239-1.248,2.638-2.148,1.438-3.423-1.94-2.094-1.667-3.244-1.558-3.744,0.054-.233.054-0.233,1.134-0.917,0.294-1.437-3.576-5.289-4.535-4.54-0.807.618-.937,2.175-2.333,1.909-2.245-.412-2.376.076-2.637,1.161-0.033.114-.088,0.25-0.12,0.369-2.148.325-2.442,0.272-3.074,0.119l-0.894-5.837c0.022-.033-0.425-3.407-4.84-3.944a5.609,5.609,0,0,1-3.411-1.416c-0.611-.5-1.777-1.584-1.788-1.606-0.218-.195-0.5-0.461-0.709-0.672-2.125-2-3.313-4.688-5.111-6.918C246.752,470.078,244.332,470.772,243.144,469.118ZM280.3,473.93a4.1,4.1,0,0,0-1.3-.223c-0.512.022-1.079,0.033-.926,1.232a8.9,8.9,0,0,0,.577,2c0.153,0.272.327,0.283,0.534,0.006A10.844,10.844,0,0,0,280.3,473.93Zm-62.151,60.9a6.427,6.427,0,0,0,.327-3.027c-0.1-.944-0.338-3.1,1.656-4.3a0.734,0.734,0,0,0,.371-0.656c-0.272-1.46-1.94-2.241-1.853-3.868a3.7,3.7,0,0,1,.294-1.248c1.614-2.55,4.371,2.343,4.382,2.4a2.18,2.18,0,0,1,.1.923c-0.065,2.072,2.289,13.9,2.333,13.953,0.469,1.031,3.346.1,3.945-1.269,0.252-.575.393-0.9-1.351-7.807-0.905-3.527.066-4.764,1.243-5.589a1.256,1.256,0,0,0,.719-1.312c-0.512-2.349-2.714-3.608-3.695-5.664-0.97-2.013-1.09-4.264-1.777-6.358-0.49-1.481-1.9-2.393-2.409-3.847-0.447-1.221.033-2.5-.316-3.727-0.872-2.94-3.183-7.02-4.458-6.451-1.744.792-1.744,0.792-1.962,0.294-0.828-1.986-.828-1.986-1.765-2.144a2.43,2.43,0,0,0-.676.011c-0.709.12-1.112,0.819-1.8,0.96-0.818.147-1.58-.439-2.409-0.141-1.079.4-1.69,1.5-2.812,1.845-0.7.212-1.1,0.12-2.6-.206-1.635-.347-3.03.879-4.633,0.634-2.932-.444-3.095-4.1-5.722-4.893-0.4.2-1.243,0.917-.883,1.562,0.011,0.055,2.932,5.019,7.15,6.636,2.039,0.765,2.039.765,4.905-.635,0.687-.326.687-0.326,4.916-0.863a8.768,8.768,0,0,1,.894-0.087c1.45-.065,2.54,1.21,4,1.1,1.362-.093,2.114-2.409,3.7-1.416,0.032,0.027,2.834,2.609,2.746,5.289a29.19,29.19,0,0,1-.741,4.308c-0.316.759-1.155,1.259-1.1,2.192,0.131,1.557-.665,1.616-1.33,1.383-1.82-.613-1.962-3.054-3.88-3.569a65.323,65.323,0,0,0-8.2.282,0.888,0.888,0,0,0,.1.33c1.134,0.9,2.671,1.036,3.739,2.073,3.205,3.092,3.205,3.092,3.3,3.168a4.678,4.678,0,0,0,2.627.548c1.559-.016,1.3.939,0.447,1.606-1.384,1.052-1.384,1.052-1.689,2.089-0.447,1.5-1,2.984-1.341,4.535-0.371,1.829,2.431,2.246,1.853,4.156-0.468,1.551-3.891,1.308-2.986,3.141,1.264,2.615,4.414,2.078,6.267,3.711A3.488,3.488,0,0,1,218.151,534.833ZM206.8,513.588c0.425-.7-0.186-1.356-1.232-1.313-0.523.06-.741,0.228-0.534,1.063,0.022,0.022.447,1.579,0.5,1.585A9.665,9.665,0,0,0,206.8,513.588Zm9.646,24.349a1.932,1.932,0,0,0-.261-1.53,2.6,2.6,0,0,0-.567-0.662,2.091,2.091,0,0,0-.2-0.12,1.423,1.423,0,0,0-.73-0.418c-0.49.082-.555,0.673-0.348,1.243C214.728,537.568,216.079,538.539,216.45,537.937Zm-2.659,1.644c0.25-.51-0.251-2.393-1.167-4.39a1.623,1.623,0,0,0-1.351-1.161,0.815,0.815,0,0,0-.665,1.156c0.044,0.092.109,0.206,0.152,0.287,0.393,0.673.883,1.286,1.276,1.975a15.8,15.8,0,0,0,.915,1.785C213.158,539.5,213.594,539.938,213.791,539.581Zm-45.726,3.081c-0.566.081-.283,0.846-0.283,0.846a1.126,1.126,0,0,0,.251.375,0.174,0.174,0,0,1,.043.043c0.207,0.212.447,0.418,0.676,0.618,0.294,0.288.545,0.63,0.85,0.906,0.077,0.055.284,0.244,0.349,0.06a3.912,3.912,0,0,0-.818-2.105C168.708,542.765,168.632,542.657,168.065,542.662Zm-5.864-.07c-0.087.032-.12,0.032-0.131,0.2l-0.13,1.969a2.535,2.535,0,0,0,.25,1.112c0.48,0.89,1.853,1.633,2.028,1.215a13.938,13.938,0,0,0-.949-3.515C162.855,542.635,162.5,542.564,162.2,542.592Zm2.812,7.888a2.194,2.194,0,0,0,.687.922,2.127,2.127,0,0,0,.905-0.016,0.313,0.313,0,0,0,.218-0.2,3.48,3.48,0,0,0-.709-1.834C165.962,549.368,164.6,549.546,165.013,550.48Zm15.62,7.02c0.4,0.434.861,0.868,1.025,0.564a3.332,3.332,0,0,0-.426-2.507c-0.25-.33-0.861-1.09-0.861-1.09a4.271,4.271,0,0,0-1.525-.38c-0.469.077-.36,0.38-0.23,0.733C178.791,555.254,178.987,555.747,180.633,557.5Zm13.145-42.387c0.327,0.553,6.878,3.347,7.412,1.785,0.2-.559-0.545-1.465-1.439-1.763a23.814,23.814,0,0,0-5.057-.375C194.258,514.792,193.626,514.858,193.778,515.113Zm1.254,13.8c0.327-.775,1.362-3.119-0.49-3.341a0.537,0.537,0,0,0-.426.238c-2.18-.027-3.6.96-3.1,2.138C191.326,528.67,194.17,530.83,195.032,528.914Zm-8.709-2.9c0.043-.136-0.938-2.289-2.038-2.311-0.066,0-.153.027-0.2,0.027-1.286.347-2.311,1.264-3.6,1.578a7.316,7.316,0,0,1-1.526.142c-1.711.07-2.485,0.086-2.866,0.39-1.919,1.52-1.45,5.133-1.275,5.328,0.162,0.179.424-.016,0.795-0.391,0.305-.336.665-0.635,0.981-0.965,0.73-.765,1.123-1.845,2.136-2.344,0.981-.467,2.42-0.358,4.262.336a1.784,1.784,0,0,0,1.09.152c0.229-.108.524-0.239,0.654-1.665,0.011-.408.022-0.473,0.12-0.483,0.5-.06.905,0.721,1.4,0.282A0.294,0.294,0,0,0,186.323,526.012Zm-0.349-9.906c0.185-.527-0.839-2.019-1.853-2.2a2.694,2.694,0,0,0-.654,2.067,1.025,1.025,0,0,0,.926.423C185.843,516.463,185.93,516.225,185.974,516.106Zm-10.791-19.662a1.456,1.456,0,0,0,.109,1.189c0.392,1.079,1.428,1.752,1.81,2.853,0.207,0.646-.644,1.145-0.24,1.829,0.926,1.443,3.149,1.464,3.738,3.3a10.836,10.836,0,0,1,.218,3.831,1.42,1.42,0,0,0,.218,1.318,3.7,3.7,0,0,0,2.485-.114,1.073,1.073,0,0,0-.283-0.819,6.01,6.01,0,0,1-.9-3.044,35.081,35.081,0,0,1-.36-7.715,10.018,10.018,0,0,0-.055-1.893,9.146,9.146,0,0,0-.272-1.069c-0.011-.049-1.668-5.116-2.943-5.251-0.741.3-.142,2.484-0.142,2.5,0.261,0.8-.6,1.249-0.622,1.959a5.929,5.929,0,0,0,.579,2.029c0.3,0.819-.731,1.08-2.366-0.45C175.553,496.347,175.445,496.368,175.183,496.444Zm1.068-4.861c0.305-.5-0.381-2.11-0.381-2.121a1.7,1.7,0,0,0-1.1-1.063c-0.185.054-.284,0.2-0.087,0.814a9.16,9.16,0,0,0,.817,2.268A0.432,0.432,0,0,0,176.251,491.583ZM165.308,511.82a0.692,0.692,0,0,0,.065.309c0.5,1.47,2.2-.038,2.409-0.4,0.153-.266.153-0.71-0.818-0.672A2.806,2.806,0,0,0,165.308,511.82Zm4.436,5.034a0.379,0.379,0,0,0,.174-0.076c0.131-.135.229-0.3,0.36-0.439,0.12-.114.272-0.2,0.392-0.31a1.432,1.432,0,0,0,.153-0.243,1.086,1.086,0,0,0-1.2-1.33c-0.109.011-1.1,0.152-.643,1.33A1.971,1.971,0,0,0,169.744,516.854Zm4.077,4.6a1.457,1.457,0,0,0-1.537-1.763c-0.731.092-.534,0.743-0.426,1.187a1.362,1.362,0,0,0,.469.966,6.126,6.126,0,0,0,1.134-.141A0.51,0.51,0,0,0,173.821,521.455Zm-26.27-2.4a6.938,6.938,0,0,0,1.494-1.91,0.855,0.855,0,0,0-1.014-1.183,2.436,2.436,0,0,0-1.438.76,2.934,2.934,0,0,0,.119,1.964C147.039,519.4,147.41,519.138,147.551,519.057Zm0.371,4.758c1.853-.017,1.919-0.32,1.973-0.521,0.12-.44-0.7-1.373-2.464-1.237-1.5.211-1.057,1.248-1.046,1.258A1.618,1.618,0,0,0,147.922,523.815Zm39.774-60.67a1.2,1.2,0,0,1,1.439.461c0.654,0.645.654,0.645,2.627-1.8,0.632-.776.883-2.154,0.37-7.156-0.305-2.854-.588-5.528,1.407-3.8,0.937,0.825,1.144,2.23,2.321,2.859a0.986,0.986,0,0,0,.164.06c1.417,0.4,1.94-1.335,3.193-1.324,2.039,0.006,1.418,2.621,3.02,3.076,0.665-.787-0.349-5.675-0.5-5.891-1.177-1.579-3.477-.31-4.676-1.856-2.191-2.881-2.191-2.881-2.583-3.136a0.527,0.527,0,0,0-.327-0.108c-1.853.314,0.4,4.22-1.4,3.689a5.178,5.178,0,0,1-1.667-1.547,9.217,9.217,0,0,0-3.706-2.387c-1.177-.255-2.267,1.037-3.455.163a1.948,1.948,0,0,1-.294-2.951c3.171-3.89-1.1-4.2-1.145-4.2-2.268.326-3.445,3.256-3.488,3.5a2.893,2.893,0,0,0-.1.689c0.054,0.8.131,1.714,1.777,3.51a1.638,1.638,0,0,1,.566,1.064,3.076,3.076,0,0,1-.773,1.644c-1.254,1.779-1.047,3.433-.546,6.71,0.371,2.306.621,3.82,1.319,3.847a2.01,2.01,0,0,0,.524-1.351c0.37-1.9.632-1.883,2.071-1.779,0.784,0.054,1.471.352,1.449,3.412-0.032,5.935-.032,5.935.066,6.5,0.316,1.8,1.188.841,1.22,0.808C187.26,465.081,186.715,463.79,187.7,463.145Zm16.11-2.729a1.734,1.734,0,0,0,.153-1.52,7.6,7.6,0,0,0-2.224-.417,0.481,0.481,0,0,0-.534.651C201.419,460.128,203.043,461.474,203.806,460.416Zm3.281,3.276c0.044,0.152.153,0.57,1.788,0.673a0.975,0.975,0,0,0,.97-0.5,3.47,3.47,0,0,0,.12-1.823,2.5,2.5,0,0,0-1.2-.293A1.929,1.929,0,0,0,207.087,463.692Zm-25.9,14.741c0.043,0.109.229,0.39,0.425,0.038a5.041,5.041,0,0,0,.24-2.431c0-.021-0.622-1.53-1.45-1.6,0,0-.632.119-0.5,0.6,0.011,0.054.033,0.1,0.043,0.141,0.175,0.434.4,0.825,0.578,1.253C180.785,477.087,180.872,477.8,181.189,478.433Zm8.949,1.638c0.152-.439-0.753-1.411-1.6-1.421a1.133,1.133,0,0,0-.818,1.373,0.906,0.906,0,0,0,.992.395C189.527,480.429,190.029,480.364,190.138,480.071Zm23.6-54.274c-0.61.157-1.232,4.053-1.123,4.617a1.085,1.085,0,0,0,.338.564,1.331,1.331,0,0,0,.4.272,2.994,2.994,0,0,1,1.265,1.02,6.254,6.254,0,0,0,1.1,1.307c0.359,0.239,2.343.846,2.529,0.613a1.321,1.321,0,0,0-.164-0.83c-0.741-1.383-2.408-1.872-3.183-3.228a4.23,4.23,0,0,1-.447-2.051C214.445,427.3,214.314,425.966,213.736,425.8Zm5.461,9.988c-0.174.027-.447,0.06-0.316,0.526a31,31,0,0,0,3.695,5.181c0.806,0.782,4.742,3.641,5.33,3.424,0.174-.516-1.657-3.25-2.06-3.657-0.839-.889-2.136-0.743-3.1-1.378-1.427-.944-1.471-2.859-2.746-3.911A2.238,2.238,0,0,0,219.2,435.785Zm-32.733-9.678a1.809,1.809,0,0,0-1.449,1.236c-0.393.728-.556,1.552-0.916,2.295-0.218.451-.621,0.787-0.817,1.281a3.773,3.773,0,0,0,.032,1.248c0.23,1.72.262,1.855,0.458,2.023a1.853,1.853,0,0,0,1.81-.065,2.855,2.855,0,0,0,.065-1.46,2.022,2.022,0,0,1,.2-1.535,12.4,12.4,0,0,1,1.8-1.839c1.3-.5,2.279,2.382,2.442,3.109,0.414,1.747-.392,2.252-1.384,1.991-1.592-.429-0.316,2.284-0.3,2.311,0.3,0.6,1.047,2.176,1.832,1.026a1.729,1.729,0,0,0,.131-0.25c0.381-.738.141-1.574,0.4-2.322,0.251-.722,1.221-0.694,1.471-1.4a2.568,2.568,0,0,0-.13-1.188C191.271,429.986,188.8,426.205,186.464,426.107Zm8.579,14.658c0.4,1.047,1.155-.238,1.438-0.716,1.516-2.566,1.6-2.788,1.352-3.749-0.033-.151-3.477-6.548-3.5-6.6a1.325,1.325,0,0,0-.85-0.792c-0.785.38-.36,2.2-0.305,2.392a6.693,6.693,0,0,0,.5,1.351,10.046,10.046,0,0,1,.785,3.8A21.592,21.592,0,0,0,195.043,440.765Zm-15.369-13.346c0.457,0.624,3.553-.021,3.978-2.332a26.426,26.426,0,0,1,.491-3.456,2.406,2.406,0,0,1,1.155-1.5c1.788-1.123,1.788-1.123,1.9-1.541,0.055-.173.2-1.041-1.22-1.128A5.116,5.116,0,0,0,184,418.566c-0.469.26-.469,0.26-1.831,0.086-0.109,0-.24.011-0.349,0.011a2.9,2.9,0,0,0-.381.027c-0.12.006-.24,0.006-0.349,0.016a3.042,3.042,0,0,1-.382.017,2.537,2.537,0,0,0-.131.493,3.88,3.88,0,0,0,.131,1.406,7.89,7.89,0,0,1,.185,2.68,5.605,5.605,0,0,1-.828,2.387C179.87,426.036,179.336,426.921,179.674,427.419ZM204.3,417.394a34.248,34.248,0,0,0,1.787-6.071,0.847,0.847,0,0,0-.85-1.145,2.722,2.722,0,0,0-1.035.32l-1.962,1.177c-1.134.944-1.025,1.487-.971,1.78,0.153,0.922,2.191,3.906,2.2,3.928C203.719,417.687,203.959,417.9,204.3,417.394Zm-5.058-12.359c-1.853.412-2.943-2-4.872-1.324a1.807,1.807,0,0,0-.916,1.9,2.034,2.034,0,0,1-.436,1.676c-0.97.667-1.559-.554-2.387-0.721-1.166-.245-0.3,1.871-1.482,2.012-1.668.195-1.907-2.1-3.521-1.98a1.344,1.344,0,0,0-.152.971A13.125,13.125,0,0,0,186,409.9c0.033,0.076.1,0.174,0.141,0.249,0.72,1.2,2.028-.357,2.965.272,1.7,1.139-1.711,2.918-.229,4.318,0,0.011,1.178,1.053,3.042-1.085a22.616,22.616,0,0,0,2.419-3.873c0.774-1.487,1.254-1.5,1.5-1.254,0.512,0.516-.142,1.634.795,1.877,0.458,0.125.883-.2,1.624-1.247,1.711-2.42,1.886-2.669,3.15-1.215,1.156,1.324,1.854,2.132,2.442-.4,0.207-.847.207-0.847,0.436-1.02,1.82,1.106,2.125-.315,1.94-1.064a2.584,2.584,0,0,0-.916-1.269,5.052,5.052,0,0,1-1.634-3.841c0.032-.6,1.188-1.335,2.746-0.4,4.426,2.724,4-8.647,3.51-10.655-0.36-1.487-.949-1.052-2.071.38-0.48.624-1.09,1.193-1.33,0.011-1.035-4.937.458-10.042-1.046-14.941-0.087-.294-0.218-0.673-0.316-0.955-0.632-1.693-1.319-2.572-2-2.642-1.482.325-2.125,1.806-3.412,2.4-1.177.543-2.43-.4-3.618,0.141a1.349,1.349,0,0,0-.578.944c-2.049,7.65.218,13.71,2.627,15.142,1.853,1.09,1.853,1.09,2.071,1.649l1.014,5.963c0.087,1.475-1.8,1.823-1.843,3.222-0.054,1.292,1,2.387.633,3.733A0.977,0.977,0,0,1,199.239,405.035ZM194.2,426.1a1.705,1.705,0,0,0,.382.868c0.032,0.044.087,0.119,0.131,0.168,0.621,0.716,1.558,1.02,2.18,1.726a7.647,7.647,0,0,1,1.122,1.877,2.145,2.145,0,0,0,.611.954c0.163,0.131.632,0.348,1.352-.623a2.4,2.4,0,0,0,.631-2.181c-0.032-.114-0.076-0.255-0.119-0.364-0.36-1.025-.905-1.985-1.276-3.011-0.218-.618-0.185-1.291-0.457-1.893a1.055,1.055,0,0,0-.949-0.814C197.168,422.857,193.866,424.218,194.2,426.1Zm-2.212-8.252c-2.791.2-2.649,3.152-2.627,3.18a0.488,0.488,0,0,0,.643.238c0.578-.162.948-0.7,1.526-0.862a1.255,1.255,0,0,1,1.275.482,0.723,0.723,0,0,0,.392.25,2.541,2.541,0,0,0,.7-0.971,2.139,2.139,0,0,0-.534-1.926A1.377,1.377,0,0,0,191.991,417.849Zm5.831-1.925a2.4,2.4,0,0,0-1.439,1.1,0.1,0.1,0,0,0,.011.054,1.685,1.685,0,0,0,.458,1.21,0.371,0.371,0,0,0,.4-0.027,0.781,0.781,0,0,1,1.014.108,3.809,3.809,0,0,1,.829,1.254c0.229,0.5.577,0.526,0.773,0.249a2.171,2.171,0,0,0-.217-1.9C198.705,416.1,198.247,415.94,197.822,415.924Zm12.535,1.991c-0.022.027-.087,0.075-0.1,0.1-0.12.141-.163,0.309-0.283,0.45a2.491,2.491,0,0,1-.349.326,4.568,4.568,0,0,0-.425.494,1.581,1.581,0,0,0-.458,1.172c0.142,0.645,1.286.255,2.093-.955,0.643-.912.479-1.731-0.1-1.758A0.551,0.551,0,0,0,210.357,417.915Zm30.978,9.385c0.043,0.271.087,0.342,0.392,0.32,1.45-.152,1.657-0.428,1.712-0.537,0.381-.548-0.349-1.578-1.254-2.137A2.131,2.131,0,0,0,241.335,427.3Zm-0.1,3.613a1.85,1.85,0,0,0,1.046.885,2.314,2.314,0,0,0,.055-1.872C242.207,429.958,241.051,430.219,241.237,430.913ZM246.2,432.9a0.848,0.848,0,0,0-.719-1.53,1.124,1.124,0,0,0-.948,1.259,0.68,0.68,0,0,0,.664.483C245.946,433.246,246.087,433.045,246.2,432.9Zm10.878-49.667a1.138,1.138,0,0,0-.229-1.4c-0.991.049-1.558,0.473-1.438,1.08a1.374,1.374,0,0,0,.959.672A0.713,0.713,0,0,0,257.074,383.237Zm-7.826.9a1.267,1.267,0,0,0,.905.662,0.728,0.728,0,0,0,.763-0.352,1.114,1.114,0,0,0-.218-1.384C249.5,383.112,249.161,383.682,249.248,384.137Zm2.17,5.035a1.368,1.368,0,0,0,.926.662,0.778,0.778,0,0,0,.773-0.353,1.147,1.147,0,0,0-.228-1.378C251.668,388.152,251.33,388.71,251.418,389.172Zm4.076-2.235a1.331,1.331,0,0,0,.97.683,0.725,0.725,0,0,0,.709-0.358,1.148,1.148,0,0,0-.229-1.389C256.671,385.884,255.308,385.976,255.494,386.937Zm-0.12,3.623a1.281,1.281,0,0,0,.949.641,0.77,0.77,0,0,0,.741-0.353,1.085,1.085,0,0,0-.24-1.383C255.854,389.5,255.265,389.937,255.374,390.56Zm-1.929-2.5a1.389,1.389,0,0,0,.959.651,0.672,0.672,0,0,0,.7-0.293,1.08,1.08,0,0,0-.195-1.432C253.935,387.023,253.336,387.474,253.445,388.065ZM273.511,363.6a0.847,0.847,0,0,0-.555-0.6c-3.129-2.04-3.129-2.04-3.554-2.757-0.828-1.383-.828-1.383-1.526-1.416-6.18.353-7.379,3.218-7.183,4a2.536,2.536,0,0,0,.2.45c0.447,1.036,1.527,1.59,1.973,2.621,0.4,0.873-.185,1.882.393,2.734a1.882,1.882,0,0,0,.905.6,24.041,24.041,0,0,1,3.051,2.2,2.6,2.6,0,0,1,.742,2.068,0.761,0.761,0,0,0,.163.607,0.417,0.417,0,0,0,.131-0.027c0.774-.629.774-1.715,1.428-2.387,1.068-1.047,3.085-.261,3.8-1.937a2.894,2.894,0,0,0,.305-1.107,3.534,3.534,0,0,0,0-.591c-0.054-.792-0.861-1.248-0.894-2.029-0.054-.814.687-1.372,0.654-2.17A1.791,1.791,0,0,0,273.511,363.6Zm-67.1-35.562c-2.343-6.472-3-6.667-3.608-6.841a5.161,5.161,0,0,0-.915-0.092c-0.85.26-3.27,1.785-3.074,4.058l3.041,11.637c0.316,1.074.894,2.04,1.3,3.092a25.717,25.717,0,0,1,.992,3.028c0.262,0.976.262,0.976,0.469,1.138,0.044-.032,4.011-3.959,3.717-7.562-0.011-.163-0.055-0.369-0.076-0.532-0.153-.77-0.709-1.378-0.883-2.148-0.284-1.4-.153-2.843-0.447-4.243A15.266,15.266,0,0,0,206.411,328.035Zm-7.259,15.457a0.962,0.962,0,0,0-.992,1.133,0.952,0.952,0,0,0,.72.819c0.305,0.12,2.626.592,2.648,0.6a0.4,0.4,0,0,0,.382-0.055C202.226,345.651,200.384,343.871,199.152,343.492Zm10.18,2.5a7.117,7.117,0,0,0-1.155.239,1.8,1.8,0,0,0-.566.293,1.227,1.227,0,0,0-.469,1.226c0.076,0.288.392,0.325,0.992,0.141,0.741-.212,1.994-0.662,2.212-1.128C210.5,346.443,210.215,345.993,209.332,345.987Zm-47.959-45.626c0.337-.379.207-1.253-0.927-1.812a0.938,0.938,0,0,0-.872,1.1,2.016,2.016,0,0,0,.425,1.139A1.932,1.932,0,0,0,161.373,300.361Zm-49.181-30.88a1.168,1.168,0,0,0-.589-1.769,0.994,0.994,0,0,0-.828,1.053,1.735,1.735,0,0,0,.251,1.074A1.854,1.854,0,0,0,112.192,269.481Zm5.188-11.708a2.564,2.564,0,0,0,.458-1.958,1.4,1.4,0,0,0-1.46,1.09,0.819,0.819,0,0,0,.348.717C117.01,257.871,117.162,257.969,117.38,257.773Zm2.747,0.152a2.694,2.694,0,0,0,.469-1.98c-0.436.049-1.45,0.244-1.483,1.112a0.864,0.864,0,0,0,.349.7C119.757,258.023,119.92,258.109,120.127,257.925Zm-7.793,5.376a2.867,2.867,0,0,0,.457-1.991,1.458,1.458,0,0,0-1.482,1.15,0.84,0.84,0,0,0,.36.695C112.04,263.47,112.181,263.454,112.334,263.3Zm-1.581,11.605a2.627,2.627,0,0,0,.393-2.013,1.373,1.373,0,0,0-1.429,1.166C109.707,274.559,110.426,275.248,110.753,274.906Zm-1.482,4.552a1.157,1.157,0,0,0,.141-1.427,2.453,2.453,0,0,0-.534-0.043,1.049,1.049,0,0,0-.893,1.128C107.941,279.887,108.856,279.838,109.271,279.458Zm58.62-12.994a0.92,0.92,0,0,0-.959,1.058c-0.011.863,1.166,0.765,1.613,0.309a1.053,1.053,0,0,0,0-1.318A2.028,2.028,0,0,0,167.891,266.464Zm-52.854-7.693a1.109,1.109,0,0,0,.2-1.383,1.6,1.6,0,0,0-.523-0.044,1.046,1.046,0,0,0-.938,1.08C113.718,259.2,114.6,259.151,115.037,258.771Zm39.97,24.707a2.252,2.252,0,0,0,.218-1.552,1.856,1.856,0,0,0-.839-0.141,1.377,1.377,0,0,0-1.352,1.259,1.8,1.8,0,0,0,1.177.819A0.738,0.738,0,0,0,155.007,283.478Zm0.414,1.931c0.033,0.9,1.614.472,2.17-.114a0.621,0.621,0,0,0,.163-0.737,0.9,0.9,0,0,0-.709-0.543,0.155,0.155,0,0,1-.054,0A1.568,1.568,0,0,0,155.421,285.409Zm4.775-27.332a5.852,5.852,0,0,0-1.527.358c-0.893,2-.893,2-1.188,2.2-0.676.429-1.166-.418-1.82-0.255a1.392,1.392,0,0,0-1.024.966c-0.306.944,0.5,1.9,0.01,2.853-1.547,3.022-1.547,3.022-1.635,4.292a6.39,6.39,0,0,0,.088,1.579c0.272,1.248,1.09,2.273,1.417,3.5,0.425,1.731.272,3.543,0.8,5.257,0.239,0.809.729,1.46,1.209,1.117,0.371-.26.5-0.791,0.85-2.083,0.513-2.029.774-2.419,1.1-2.463,0.883-.135,1.123,1.709,1.832,1.031a0.824,0.824,0,0,0,.087-0.141c0.011-.043,1.526-4.942-0.949-7.72-0.621-.754-0.632-1.47,0-3.51,0.382-1.253,1.167-1.8,1.406-.988a4.133,4.133,0,0,1,.142,1.954c-0.087.6-.142,0.922,0.436,1.106a2.752,2.752,0,0,0,3.03-1.964,10.305,10.305,0,0,0,.36-1.052c0.469-1.519.294-1.834-.163-1.845-0.774-.021-1.3.771-2.093,0.64-0.392-.049-0.349-0.6-0.262-1.009C162.474,260.822,162.975,258,160.2,258.077Zm5.188,7.78c0.022,0.559,1.319.206,1.613-.109a1.368,1.368,0,0,0-.294-1.519A2.723,2.723,0,0,0,165.384,265.857ZM141.9,259.986c0,0.044.435,4.363,1.841,2.9,1.494-1.53,1.494-1.53,1.93-1.3a4.4,4.4,0,0,1,1.591,3.168c-0.011.83-.262,1.633-0.25,2.463a0.53,0.53,0,0,0,.25.618c0.523,0.206,2.638-1.942,2.671-1.963a4.905,4.905,0,0,0,1.624-3.288c-0.033-1.15-1.1-1.807-1.352-2.854-0.2-.8.131-1.628-0.119-2.441a0.324,0.324,0,0,0-.339-0.223,3.9,3.9,0,0,0-1.177.559c-2.354,1.346-3.422-.239-3.433-0.26a3.024,3.024,0,0,0-.316.011C142.963,257.551,141.851,258.554,141.9,259.986Zm3.7-2.614a1.126,1.126,0,0,0-.392-0.1,0.084,0.084,0,0,0-.087.059,0.083,0.083,0,0,1,.011.044c0.141,0,.261.011,0.392,0.011C145.557,257.383,145.59,257.4,145.6,257.372Zm-28.231-5.491c0.622,0.011.622,0.011,1.984-3.141a4.193,4.193,0,0,1,2.572,4.243c-0.13,1.161-.1,1.188.284,1.5,1.395-.423,1.046-2.039,1.951-2.8,0.861,0.07,1.112,1.584,1.058,2.349a1.68,1.68,0,0,0,.1,1.009c0.817-.033,1.275-0.885,2.1-0.857s1.526,0.575,2.376.5a1.572,1.572,0,0,0,.5-0.076c0.817-.358,1.2-1.15,1.624-2.5,0.273-.846.97-1.465,1.581-0.108a2.523,2.523,0,0,1-.447,2.6c-1.984,1.98-1.984,1.98-2.028,2.268,0.72,0.9,2.3.092,2.791,1.416s-0.97,3.547.926,4.1c0.033,0.01,3.793-1.671,4.044-3.256,0.283-1.925-2.551-4.611-.087-5.756,3.2-1.47,7.433.635,8.382,1.915,0.654,0.9.687,0.869,2.551-.613,0.447-.352,1.939.049,2.441,0.462-1.1,3.613,1.559,3.146,1.569,3.146,0.938-.282.622-1.313,1.156-1.823,3.139,2.669,3.532-1.188,3.521-1.226-0.371-3.646-7.162-3.873-5.385-8.105-2.049-1.72-2.605-1.422-5.254-.049-1.613.841-2.746,0.25-5.33-1.535-1.6-1.107-1.362,2.658-3.182,2.626a5.455,5.455,0,0,1-1.973-1.324c0.174-1.232.97-2.333,0.795-3.646-0.229-1.709-2.485-2.1-2.583-3.895-0.109-1.671.959-3.223,0.49-4.937a1.1,1.1,0,0,0-.534-0.516c-1.853.765-1.58,1.384-1.307,1.916,0.13,0.325-.622,5.74-2.137,3.217-0.36-.6.131-1.351-0.327-1.948-0.316-.423-0.316-0.423-1.613-0.613-1.614-.238-1.995-2.111-1.5-3.847,0.283-1.02.37-1.361-.818-1.952a1.92,1.92,0,0,1-1.341-1.715c-0.239-1.9.578-3.738,0.327-5.642-0.61-4.4-.61-4.4-0.479-4.644,0.61-1.166,2.452-.781,2.768-2.279s-0.926-2.653-.9-4.079c0.01-1.281.664-2.442,0.577-3.744a1.27,1.27,0,0,0-.25-0.662c-1.352.358-1.581,2.5-3.4,2.154-0.022-.8.709-1.5,0.338-2.354-1.319.889-7.172,11.544-7.532,13.741a2.36,2.36,0,0,0,.381,2.068,2.268,2.268,0,0,1,.513,1.025c0.185,1.335-.611,2.512-0.654,3.808-0.055,1.4,1.613,2.149,1.34,3.619a11.32,11.32,0,0,1-1.307,3.239c-1.178,2.213-.033,4.449-0.088,6.662s-2.125,3.733-2.158,5.973a2.882,2.882,0,0,0,.011.31c0.207,0.553.959,0.531,1.188,1.073C117.348,250.053,116.846,251.046,117.369,251.881Zm14.966-69.518c2.649-3.95,1.711-3.928,1.254-3.928-0.382.076-.534,0.108-3.914,3.309-1.318,1.253-2.321,2.8-3.706,4.02a32.5,32.5,0,0,1-4.022,2.838,5.014,5.014,0,0,1-3.193,1.161c-1.079-.158-1.058-1.313-1.7-1.856a0.272,0.272,0,0,0-.141.055c-0.861,1.426-.513,3.222-1.384,4.643a3.3,3.3,0,0,1-1.919,1.569c-1.123.395-1.035,0.965-1,1.068a0.813,0.813,0,0,0,.382.4c0.763,0.467,1.711.527,2.5,0.961a12.843,12.843,0,0,1,2.529,1.9c1.21,1.058,1.395,1.416,1.079,3.467a1.468,1.468,0,0,0,.032.867,0.617,0.617,0,0,0,.142.049,3.714,3.714,0,0,0,1.3-1.128,17.429,17.429,0,0,1,5.668-3.423,1.832,1.832,0,0,1,2.376,1.193c0.207,0.445.273,0.445,0.491,0.434,0.512-.553.425-1.535,1.319-1.812a1.433,1.433,0,0,1,1.024,1.064,3,3,0,0,1-2.158,3.1,4.493,4.493,0,0,0-2.289,1.7,1.144,1.144,0,0,0,.076.131c0.731,0.292,1.537-.3,2.224.232,0.425,0.332.512,1.059,1.221,1.113a1.145,1.145,0,0,0,.817-1.107c0.186-.879-0.207-1.828.306-2.674a6.076,6.076,0,0,1,1.765-1.709c0.818-.521,1.265-0.847,1.3-1.183,0.12-1.514-1.842-1.172-2.5-2.062-0.97-1.286.752-2.153,0.676-3.315-0.032-.753-0.643-0.776-1.548-0.732-2.027.092-1.079-4.807-1.089-4.861A19.043,19.043,0,0,1,132.335,182.363Zm22.65-50.281,3.423-6.109c0.654-1.248-.1-2.648.458-3.895,0.632-1.487,2.213-2.3,2.812-3.82a0.774,0.774,0,0,0-.1-0.531c-0.066-.006-0.153-0.011-0.229-0.022-1.766.314-6.911,6.727-8.448,8.68a12.835,12.835,0,0,0-2.049,3.424c-1.21,2.745-11.27,16.015-11.369,16.129-2.419,3.054-5.177,5.843-7.455,8.989a1.708,1.708,0,0,0-.262.462,2.346,2.346,0,0,0,.109.227c0.534-.216,1.188-0.477,3.358-2.506,0.762-.705,2.321-2.17,2.713-1.633,1.069,1.481.938,2.034-2.125,9.651a12.342,12.342,0,0,1-4.088,5.209c-4.8,4.112-4.359,5.739-4.294,5.913,1.907-.315,1.6-3.581,3.978-3.168,0.022,0,1.09.3,0.862,3.087-0.066.689-.066,0.689,0.174,0.949l5.025-9.776c0.588-1.2-.273-2.506.294-3.7,0.741-1.541,2.289-2.376,3.227-3.732a7.674,7.674,0,0,0,.49-0.765c0.142-.229.3-0.559,0.425-0.8,0.752-1.644.959-3.483,1.723-5.127,1.525-3.277,3.5-6.32,5.079-9.554C150.2,136.628,153.317,134.957,154.985,132.082Zm26.051-20.811a0.726,0.726,0,0,0-.359-0.065,1.316,1.316,0,0,0-1.123.6c-0.48.939-1.417,3.321,0.011,2.876C181.418,114.113,182,111.732,181.036,111.271ZM381.345,1.383V1.421a4.113,4.113,0,0,0,2.877.005c-0.01-.087-0.119-0.136-0.468-0.184-0.305-.005-1.82.038-1.82,0.038A1.461,1.461,0,0,0,381.345,1.383Zm-3.739-.656V0.759a2.746,2.746,0,0,0,.763.174,6.268,6.268,0,0,0,.9.011,12.483,12.483,0,0,1,1.341.233,1.158,1.158,0,0,0,.2,0,6.967,6.967,0,0,1,.828-0.087,3.01,3.01,0,0,0,.393.016,0.716,0.716,0,0,1-.295-0.261,0.418,0.418,0,0,1,.339-0.011,2.375,2.375,0,0,0,.958-0.011c-0.032-.054-0.043-0.065-0.4-0.13a0.709,0.709,0,0,1-.523-0.173c0.043-.277.043-0.277-0.044-0.315-0.392-.1-0.763-0.022-1.155-0.087a3.71,3.71,0,0,0-.709-0.13,3.5,3.5,0,0,0-.424.022c-0.469.076-.916,0.211-1.4,0.282-0.239.044-.512,0.022-0.752,0.054-0.142.033-.152,0.054-0.152,0.076a2.857,2.857,0,0,0,.545.136A1.5,1.5,0,0,1,377.606.727ZM379.754,2.1c0.043-.792,2.245.266,1.667-0.293a7.435,7.435,0,0,0-2.616-.673,10,10,0,0,0-2.1.119,0.612,0.612,0,0,0,.152.217,0.772,0.772,0,0,1-.817-0.163c0-.022-0.011-0.049-0.011-0.065a3.9,3.9,0,0,0-2.18.174,0.912,0.912,0,0,1-.185.6c-0.251.418-.883,0.184-1.091,0.634C372.647,2.718,379.721,2.842,379.754,2.1ZM367.807,3.841c1.058,0.174,2.1.412,3.161,0.559a1.8,1.8,0,0,0,.251.016c0.752-.016.687-0.352,0.534-0.51a1.072,1.072,0,0,0-.24-0.163,0.435,0.435,0,0,1-.272-0.26,1.194,1.194,0,0,1,.185-0.456c0.054-.195-0.011-0.195-0.48-0.228a0.042,0.042,0,0,1-.021-0.022c0.447-.412.774-0.727-0.175-0.743-0.174-.006-0.316.06-0.48,0.06a0.037,0.037,0,0,1,0-.033c0.164-.087.164-0.087,0.175-0.141a0.376,0.376,0,0,0-.2-0.043,4.233,4.233,0,0,0-1.2.217c0.022,0.136.218,0.114,0.24,0.266,0.011,0.1-.142.147-0.218,0.157a1.813,1.813,0,0,1-1.265-.184,0.126,0.126,0,0,0-.142-0.027,15.665,15.665,0,0,1-1.656.5,5.505,5.505,0,0,0-1.112.065,1.325,1.325,0,0,0-.48.261c-0.065.087-.272,0.342,0.164,0.423C365.649,3.765,366.739,3.656,367.807,3.841Zm-6.747.184a0.744,0.744,0,0,0-.479-0.071,6.368,6.368,0,0,0-2.017.353,0.069,0.069,0,0,0,.011.027c0.109,0.049.142,0.081,1.929-.141A1.078,1.078,0,0,0,361.06,4.025ZM358.618,5.62c0.012-.065-0.119-0.13-0.37-0.13a2.28,2.28,0,0,0-1.155.244l-0.011.017a4.711,4.711,0,0,0,1.057.054A0.6,0.6,0,0,0,358.618,5.62Zm17.473,1.7c0.066-.027-0.087-0.076-0.25-0.131-0.142-.032-0.251-0.071-0.382-0.108-0.044-.022-0.1-0.011-0.1-0.054a0.478,0.478,0,0,0-.49.282C374.827,7.519,376.081,7.346,376.091,7.324Zm-0.567-.315h0l-0.032.006V7.009l-0.131.022,0.174-.011ZM373,7.584a0.737,0.737,0,0,0,.174-0.423,0.448,0.448,0,0,0-.218-0.054,0.358,0.358,0,0,0-.338.152A0.528,0.528,0,0,0,373,7.584ZM337.56,13.992c0.414-.017.828-0.19,1.243-0.179a3.049,3.049,0,0,0,.828.092s0.73-.249.4-0.689c-2.779.277-2.878,0.483-2.932,0.564-0.054.114,0.12,0.206,0.327,0.206A0.96,0.96,0,0,0,337.56,13.992Zm-33.245,4.1a12.739,12.739,0,0,0-1.787,1.877c0.337,0.325,9.755-2.078,9.8-2.149-0.512-.461-1.068.174-1.6-0.032a0.211,0.211,0,0,0,.011-0.076,4.908,4.908,0,0,1,1.678-.787c0.012-.006,1.243-0.548,1.2-0.977a0.925,0.925,0,0,0-.7-0.136,12.11,12.11,0,0,0-3.063.662c-1.155.358-2.387,0.337-3.564,0.651A4.556,4.556,0,0,0,304.315,18.088Zm-3.968,2.164a5.163,5.163,0,0,0,.807-0.363c0.065-.043.152-0.1,0.207-0.131,0.229-.173.393-0.428,0.632-0.607,0.523-.38,1.134-0.635,1.646-1.031a2.069,2.069,0,0,0,.534-0.76,0.329,0.329,0,0,0-.1-0.022c-1.232.1-2.245,0.917-3.455,1.091a6.511,6.511,0,0,0-.85-0.071,3.413,3.413,0,0,0-.937.477,1.9,1.9,0,0,0-.873.678,0.291,0.291,0,0,1,.055.022,3.988,3.988,0,0,0,1.384-.108c0.687-.011.556,0.244,0.12,0.781C299.323,20.431,299.508,20.54,300.347,20.252Zm-10.769-7.78a1.425,1.425,0,0,0-1.188,1.036,0.485,0.485,0,0,0,.338.076,18.6,18.6,0,0,0,2.845-.526c0.621-.06.883,0.071,0.883,0.461,0.01,0.2,0,.391.708,0.25,0.077-.016,7.848-1.78,10.2-3.168a1.028,1.028,0,0,0-.109-0.076c0.414-.613,1.831-0.049,1.733-0.976a0.365,0.365,0,0,0-.164-0.076c-2.485.249-4.8,1.258-7.248,1.693a0.17,0.17,0,0,1,.1-0.082c0.97-.407,1.94-0.787,2.932-1.2,0.1-.033.229-0.076,0.338-0.108-2.137.184-4.1,1.161-6.213,1.432-0.676.092-1.352,0.108-2.006,0.239a1.73,1.73,0,0,0-.283.065,16.924,16.924,0,0,0-2.028.521,0.225,0.225,0,0,0-.087.043,0.27,0.27,0,0,0,.044.076A2.451,2.451,0,0,1,289.578,12.472Zm0.142-.585c-2.049.385-4.011,1.172-6.1,1.372a1.966,1.966,0,0,1,.316-0.206,47.1,47.1,0,0,0-5.755,1.476,0.9,0.9,0,0,0-.3.174C279.866,14.875,287.638,12.858,289.72,11.887ZM297.415,9V8.984a0.469,0.469,0,0,0-.239-0.011,2.791,2.791,0,0,0-.535.114,7.111,7.111,0,0,0-1.416.532A12.805,12.805,0,0,0,297.415,9Zm5.374,2.577v0.016a0.691,0.691,0,0,0,.338-0.081c0.381-.152.752-0.353,1.133-0.5,0.546-.2,1.1-0.379,1.646-0.607a0.78,0.78,0,0,0,.305-0.158,0.159,0.159,0,0,0-.043-0.005,23.375,23.375,0,0,0-2.692.792A1.41,1.41,0,0,0,302.789,11.577ZM291.082,16.2a21.043,21.043,0,0,0,3.63-1.2A0.181,0.181,0,0,0,294.658,15a18.051,18.051,0,0,0-3.51,1.161C291.126,16.178,291.1,16.189,291.082,16.2Zm-14.834,2.734c0.937-.114,1.809-0.5,2.757-0.624a2.23,2.23,0,0,1,1.275.065,0.355,0.355,0,0,0,.327-0.011,4.211,4.211,0,0,0,1.5-.8,2.893,2.893,0,0,0-.338-0.2,0.749,0.749,0,0,1,.4-0.282c0.262-.141.85-0.456,0.294-0.461a3.574,3.574,0,0,0-.512.092c-2.027.493-2.027,0.493-2.387,0.553a5.8,5.8,0,0,0-2.376.64c-0.872.412-1.624,0.89-1.33,1.02A0.969,0.969,0,0,0,276.248,18.939Zm7.978-2.523a6.786,6.786,0,0,0,2.976-1.074,0.469,0.469,0,0,0-.327-0.065,6.091,6.091,0,0,0-1.406.434A6.447,6.447,0,0,0,284.226,16.417Zm-70.011,19.9c0.153-.022,3.293-1.356,3.325-1.367,0.088-.043,1.265-0.683,1.363-0.771,0-.01-0.022-0.01-0.044-0.01-0.294.087-2.725,1.123-3.509,1.519C214.9,35.909,214.292,36.267,214.215,36.316Zm525.99,216.5c-0.022,0-.022.012-0.022,0.012-0.032.124,0.676,2.115,0.676,2.126a7.68,7.68,0,0,0,.4,1.052,19.041,19.041,0,0,0-1.057-3.168v-0.022Zm-1.439-2.327a0.815,0.815,0,0,0,.305.483,8.913,8.913,0,0,0-.621-1.638h-0.011A4.531,4.531,0,0,0,738.766,250.487Zm3.9,8.686a2.781,2.781,0,0,0,.217.6c0.011-.076-0.5-1.585-0.566-1.715a0.056,0.056,0,0,0-.022.049,0.68,0.68,0,0,1,.065.158C742.45,258.571,742.559,258.869,742.669,259.173Zm-367.221,505.9A0.921,0.921,0,0,0,375.22,765a2.611,2.611,0,0,0,.686.282A3.754,3.754,0,0,0,375.448,765.074Zm-1.242-.359a1.735,1.735,0,0,0-.349-0.157,2.111,2.111,0,0,0,.643.347c0.033,0,0-.027-0.044-0.053A2.569,2.569,0,0,0,374.206,764.715Zm-0.927-.406c-0.109-.076-0.229-0.147-0.338-0.217a7.118,7.118,0,0,1,.6.4c-0.1-.043-0.185-0.114-0.284-0.168,0.1,0.092.229,0.125,0.338,0.223a0.525,0.525,0,0,1-.174-0.082,3.049,3.049,0,0,0,.621.342h0.022A5.893,5.893,0,0,0,373.279,764.309Zm1.744,1.237V765.54a0.3,0.3,0,0,0-.152-0.1,2.124,2.124,0,0,0-.753-0.391v0.006a2.588,2.588,0,0,0,.665.477c0.022-.043.022-0.043,0.065-0.043a1,1,0,0,0,.153.059Zm1.679,1.047a1.858,1.858,0,0,0-.534-0.32,0.28,0.28,0,0,0-.338.011,2.434,2.434,0,0,0,.85.314Zm-1.679-.743a2.623,2.623,0,0,0,.414.358c0.087,0,.109-0.081.033-0.163a1.5,1.5,0,0,0-.229-0.173A0.294,0.294,0,0,0,375.023,765.85Zm0.665,0.585c-0.131-.065-0.066.153-0.044,0.2a0.39,0.39,0,0,0,.164.281c0.109-.021.065-0.325-0.066-0.444A0.346,0.346,0,0,1,375.688,766.435Zm0.719,0.619a0.13,0.13,0,0,0-.065-0.022,1.467,1.467,0,0,0,.512.255c0.022,0-.01-0.022-0.01-0.022a0.216,0.216,0,0,0-.11-0.059C376.615,767.151,376.517,767.1,376.407,767.054Zm1.058,0.488a0.818,0.818,0,0,0-.36-0.038,1.737,1.737,0,0,0,.512.13A0.449,0.449,0,0,0,377.465,767.542Zm0.043,0.131a1.078,1.078,0,0,0-.381-0.049h0a0.678,0.678,0,0,0,.261.065c0.11,0.027.207,0.049,0.3,0.065A0.356,0.356,0,0,0,377.508,767.673Zm0.458,0.216h0a0.316,0.316,0,0,0-.261.011,0.789,0.789,0,0,0,.337.044s0.044-.006.033-0.016a0.267,0.267,0,0,0-.1-0.044Zm1.276,0.076a0.147,0.147,0,0,0-.044-0.01h-0.011c-0.011,0-.011,0-0.011,0-0.174-.006-0.316-0.033-0.48-0.044a1.959,1.959,0,0,0-.4-0.043v0.011a1.709,1.709,0,0,0,.894.086A0.061,0.061,0,0,0,379.242,767.965Zm-0.459.033,0.469,0a0.033,0.033,0,0,1-.022,0C379.078,768,378.936,767.987,378.783,768Zm0.84,0,0.12,0a2.971,2.971,0,0,0-.327,0C379.481,767.993,379.546,767.993,379.623,768Zm0.174-.011a0.18,0.18,0,0,0,.033.006l0.022-.006-0.109.006C379.765,767.987,379.786,767.993,379.8,767.987ZM402.175,9.619c0.022-.125-0.164-0.212-0.513-0.342a0.266,0.266,0,0,0-.075.423C402,10.172,402.175,9.624,402.175,9.619Zm3.248,1.731a0.706,0.706,0,0,0-.774-0.467c-0.338.006-.12,0.293-0.109,0.314A0.756,0.756,0,0,0,405.423,11.349Zm-16.72-5.1c0.054-.233-0.088-0.239-0.382-0.255-0.218.006-.294,0.059-0.262,0.125a1.661,1.661,0,0,0,.371.336A0.291,0.291,0,0,0,388.7,6.249Zm23.62,7.65a0.8,0.8,0,0,0-.818-0.456c-0.5,0-.1.435-0.1,0.439A0.676,0.676,0,0,0,412.323,13.9Zm3.281,4.47c-0.469.017-.109,1.058,0.054,1.21a2.4,2.4,0,0,0,2.147-.168C417.86,19.118,416.607,18.467,415.6,18.369Zm7.652-1.042c-0.087.011-.829,0.055-0.327,0.543a0.434,0.434,0,0,0,.49.206,0.993,0.993,0,0,0,.567-0.445A1.046,1.046,0,0,0,423.256,17.328Zm12.513,2.029c0.479,0.391,1.842.488,1.776,0.027a3.422,3.422,0,0,0-1.526-1.443C435.627,18.223,435.115,18.814,435.769,19.357ZM104.66,144.478c0.055-.048,26.705-32.676,26.912-32.947,2.431-3.092,2.191-3.754,2.1-3.976a1.133,1.133,0,0,1,.076-0.82c1.112-1.985,3.172-3.168,4.415-5.04a1.777,1.777,0,0,0,.163-0.233,1.039,1.039,0,0,1-.087-0.249,20.1,20.1,0,0,0-2.213,1.269,28.355,28.355,0,0,0,1.9-2.42,8.74,8.74,0,0,0-1.363.261,8.116,8.116,0,0,1,.938-2.745c0.076-.114.163-0.261,0.251-0.391,0.839-1.291,2.136-2.213,2.964-3.51,0.578-.889.556-2.013,1.178-2.88,0.719-1.042,1.6-1.943,2.4-2.93a110.934,110.934,0,0,0-10.1,8.724c-1.559,1.595-2.572,3.6-4.055,5.252-2.823,3.163-6.507,5.414-9.265,8.626-1.733,2.007-2.518,4.617-4.163,6.684-2.006,2.534-4.665,4.454-6.628,7a2.067,2.067,0,0,0-.36.722,3.028,3.028,0,0,0,.84.3c4.153,0.592-5.439,5.577-2.452,8.529-0.022.6-.022,0.6-1.352,2.321C100.812,143.736,102.971,146.068,104.66,144.478Zm33.387-51.99a14.167,14.167,0,0,0,1.373-1.7c0.077-.081.142-0.184,0.011-0.288a0.438,0.438,0,0,0-.349-0.038,4.086,4.086,0,0,0-1.689,1.091c-0.85.895-1.494,2.306-1.069,2.333A4.6,4.6,0,0,0,138.047,92.488Zm-35.24,58.495a0.947,0.947,0,0,0,.371-0.423,9.51,9.51,0,0,0,.632-2.946,9.481,9.481,0,0,0-1.668,2.078c-0.469.8-.905,1.736-0.283,1.579C101.87,151.265,102.818,150.989,102.807,150.983Zm382.96,598.553a2.278,2.278,0,0,0-.676.282v0.016a26.312,26.312,0,0,0,2.823-.813C487.74,749,485.789,749.531,485.767,749.536Zm20.535-5.328c0.022,0.006.022,0.011,0.044,0.017a0.031,0.031,0,0,0-.022.016c0.185,0.022,2.42-.8,2.42-0.808a17.5,17.5,0,0,0-2.027.618A1.9,1.9,0,0,0,506.3,744.208ZM744.554,264.017c-0.24-.688-0.468-1.377-0.687-2.072-0.4-1.194-.795-2.376-1.221-3.554,0.6,1.785,1.418,4.178,2.017,5.979ZM653.376,115.2v0Zm95.483,163.43v-0.006h0v0h0v0l-0.01-.012v0.006l-0.011-.016h0v-0.006l-0.829-2.126a49.049,49.049,0,0,1-4.523-6.283l-3.75-.108c5.254,11.876,5.57,17.637,6.072,27.18-0.938,1.486-3.227,2.691-4.906,3.222,0.1,2.485.11,5.789,0.044,8.263-2.082,1.156-4.861,2.685-6.932,3.841-7.827-18.923-7.827-18.923-10.486-19.357a17.556,17.556,0,0,1-3.9,6.348c-5.167.851-6.235,1.475-10.791,4.074-1.472-1.248-1.472-1.248-17.3-6.375-2.594-2.49-14.191-36.528-13.864-42.756,1.188,0.114,2.769.261,3.946,0.363a41.664,41.664,0,0,0,4.948,5.551,11.412,11.412,0,0,0,6.2-3.711c1.668,1.508,3.75,3.629,5.232,5.3,0.7-.868,1.625-2.035,2.3-2.908,1.144,0.043,2.649.114,3.793,0.173-2.376-9.906-2.724-20.127-4.752-30.077,8.589,3.011,8.589,3.011,10.769,22.385,0.48-1.118,1.1-2.615,1.581-3.733-0.164,1.1-.414,2.561-0.589,3.657,4.306,4.145,4.436,5.631,4.818,10.014,1.079,0.228,2.529.532,3.608,0.771-2.061-7.357-1.57-15.109-3.51-22.482,0.327-.695.327-0.695-4.36-16.124,1.842-1.53.959-4.931,0.175-7.932,0.424,0.12.969,0.261,1.395,0.38-0.6-8.409-2.191-12.131-3.466-15.114,7.444,12.879,3.28,28.732,10.649,41.632,0.349-1.052.8-2.462,1.144-3.526,6.049,15.728,6.049,15.728,7.673,18.619l0.012,0h0l0.2-.309c-0.066-.152-6.812-32.161-7.281-41.427,0.664,0.976,1.537,2.279,2.19,3.266,2.878,4.2,4.742,6.933,6.366,9.76-2.583-5.854-5.178-11.605-7.456-16.607-8.829-16.47-17.167-32.03-28.7-47.969-7.793-11.046-11.281-14.784-12.971-16.569-2.365-2.007-2.431-2.083-5.69-6.109h0.011l-1.123-1.486c-11.1-13.8-13.385-16.666-19.129-21.028,15.7,17.084,15.7,17.084,17.232,21.4-5.024-1.411-8.468-5.946-13.679-6.955-17.734-18.7-17.734-18.7-21.69-20.757,0.566,1.014,1.34,2.365,1.907,3.385h0l-1.2-.607c-15.434-14.546-15.434-14.546-24.569-18.978-0.567-.325-1.329-0.76-1.907-1.085-0.207-1.107-.491-2.583-0.7-3.689,5.123,3.135,6.159,3.331,10.584,4.15-9.068-16.666-30.116-19-40.766-33.783,33.376,16.427,55.208,46.766,83.756,69.009-0.534-.673-0.534-0.673-20.689-24.294,3.139,2.7,6.17,5.555,9.44,8.148V115.2h0s-0.066-.092-0.959-1.107c-6.715-6.993-11.347-11.154-17.19-16.416,0.85,0.732,1.962,1.7,2.8,2.425-9.974-9.032-9.974-9.032-30.532-24.4,0.906,0.618,2.137,1.443,3.053,2.05-32.678-24.679-54.424-33.5-71.907-40.6,1.046,0.613,2.485,1.416,3.531,2.013-2.245-.8-5.21-1.953-7.423-2.854,1,0.608,2.311,1.411,3.314,2.007-1.232-.266-2.878-0.629-4.12-0.9,2.115,1.058,4.915,2.414,7.041,3.369a34.217,34.217,0,0,1-4.894-.722c0.9,0.678,2.1,1.595,3.019,2.284-1.112-.016-2.583-0.027-3.706-0.038-1.046,8.268,12.731,16.97,22.956,12.033,1.983,4.058,1.983,4.058,10.453,11-0.087,1.112-.24,2.6-0.349,3.71a11.28,11.28,0,0,1-4.785-5.327c-2.289-.049-5.33-0.141-7.6-0.244-0.088-.1-8.383-9.8-17.517-8.094-2.016-1.546-4.621-3.695-6.55-5.365h0.021v0.005l0.022-.005h0l0.033-.706c-6.115-3.8-6.115-3.8-9.1-7.1-1.09.244-2.551,0.564-3.64,0.8a20.753,20.753,0,0,0,6.616,4c0.425,1.042.992,2.419,1.428,3.461-10.116-3.673-19.424-9.326-30.139-11.441,0.72,0.938,1.668,2.17,2.376,3.108-8.469-3.754-10.474-3.043-14.889-1.476-8.109-5.778-8.109-5.778-9-6.825-7.837-.022-7.837-0.022-11.293,1.812a36.871,36.871,0,0,1-6.79,3.005c-2.333-6.1-7.772-20.366-25.56-17.675,1.732,1.443,4.141,3.233,6.027,4.481,0.066,0.683,1.864,16.878,18.65,21.05-4.938,1.454-4.938,1.454-17.516-6.228-0.262-1.15-.6-2.691-0.861-3.852a17.108,17.108,0,0,0-7.282-.412c-0.207,1.085-.447,2.539-0.643,3.624-0.49-1.02-1.144-2.376-1.613-3.4,0.73-.835,1.733-1.958,2.474-2.794,1.112,0.108,2.616.244,3.761,0.358l2.136-2.994c-0.97-.645-2.278-1.5-3.27-2.149-0.174-1.123-.425-2.631-0.61-3.749a56.622,56.622,0,0,0-7.227-2.69c0.316,1.085.709,2.533,1,3.624-1.068-.38-2.474-0.879-3.542-1.248h0.01l0.011-.006h0V24.63l1.613-1.53c-10.071-2.164-10.071-2.164-15.052.168h0l-0.011.006V23.263h-0.022l-2.8,2.344a14.842,14.842,0,0,1,3.934-6.271c-4.218-4.655-11.215-4.058-16.349-2.729-0.24-1.129-.578-2.632-0.818-3.76-9.265-4.747-20.971-.575-29.5-8-0.327.011-.327,0.011-8.339,2.533h-0.021l-1.3.158a29.561,29.561,0,0,0-7.619.114h-0.01V7.644h0l-0.764.071a24.238,24.238,0,0,0-6.431,3.515c3.619,1.682,6.344,4.6,9.6,6.76-2.463-.667-2.463-0.667-69.923,8.924,0.632-.917,1.482-2.154,2.114-3.076a55.585,55.585,0,0,1-15.347,1.541,39.348,39.348,0,0,0,6.148-4.557c-0.338.043-42.913,9.515-65.367,21.592,4.229-2.49,4.229-2.49,10.878-7-3.139.754-3.139,0.754-11.031,4.064,3.5-1.926,7.161-3.511,10.66-5.388-2.1.759-4.905,1.877-6.976,2.778l-1.1.532-2.866,1.378c-11.652,5.995-26.923,14.55-38.1,21.44a0.871,0.871,0,0,1,.436-0.022c-10.071,6.2-22.606,13.9-29.756,24.881,1.09-.743,2.528-1.736,3.608-2.474h0.01L142.7,85.458c4.044-.608,7.085-2.647,9.832-5.067a34.822,34.822,0,0,0-4.186,6.011c9-7.183,9-7.183,12.764-6.743-3.052,4.058-4.97,8.87-8.524,12.592,1.134,0.168,2.616.4,3.75,0.559,0.131-.125,19.685-8.241,28.013-3.217,4.153,20.963,4.153,20.963,5.09,23.133a0.2,0.2,0,0,1-.055.076,0.187,0.187,0,0,1-.054.086,0.129,0.129,0,0,1-.033.082,8.741,8.741,0,0,1-.708.646c-3.717,1.345-7.205,3.3-11.074,4.264-0.459,1.009-1.058,2.354-1.516,3.363-1.122.076-2.616,0.152-3.716,0.228-0.513-1-1.21-2.311-1.734-3.309-4.959,3.515-20.045,14.214-22.3,37.477-0.044.51-.523,48.513,17.179,36.675,11.085,3.227,8.033,15.771,14.627,21.961-1.1,12.619-17.658,25.52-4.48,37.7a17.336,17.336,0,0,0,5.494-4.905c-1.439-5.674.109-11.333,0.055-17,1.013-.781,2.332-1.806,3.335-2.582a10.389,10.389,0,0,0,6.856-.944c-0.588-.944-1.4-2.214-2-3.158a23.618,23.618,0,0,0,2.376-7.259c7.053-4.806,7.053-4.806,18.465-.108,0.5-1.01,1.166-2.344,1.668-3.342-0.665-.944-1.516-2.181-2.17-3.125,0.415-1.02.971-2.387,1.385-3.418,1.068-.337,2.518-0.77,3.608-1.1,8.131,6.727,8.131,6.727,10.714,11.328,1.221,0.054,2.856.13,4.077,0.185a11.344,11.344,0,0,1,.218,7.063c-6.159,1.2-6.845,2.664-9.1,7.476-8.066-4.742-9.32-5.469-17.091,1.015a19.615,19.615,0,0,0,7.073,2.691c6.617,10.107,6.617,10.107,7.194,13.98-8.24,6.543-12.6,19.867-12.6,23.3,1.242,0.011,2.91.022,4.153,0.043a49.2,49.2,0,0,0-6.725,4.769,60.707,60.707,0,0,0,1.918,7.748c-9.025,3.6-3.793,8.994-1.123,11.137-0.294,1.156-.686,2.691-0.992,3.841,7.292,11.046,7.26,14.92,7.216,20.28,2.627,1.345,2.627,1.345,9.549,7.693,0,1.15-.033,2.669-0.033,3.8,6.66,4.2,14.115,7.1,20.056,12.44a36.34,36.34,0,0,1,6.4-4.574,16.284,16.284,0,0,0,1.428,7.1,18.5,18.5,0,0,0,7.543.1,33.367,33.367,0,0,0,7.379,3.45,19.367,19.367,0,0,1-.251,7.8c1.091-.483,2.529-1.134,3.608-1.616a27.655,27.655,0,0,0,.883-7.743,19.7,19.7,0,0,0,7.14-3.282,12.863,12.863,0,0,0,5.46,4.46,54.811,54.811,0,0,0,10.443,12.114c0.425,10.341.425,10.341-14.694,26.91-17.919,19.644.589,46.5,21.277,52.309a34.018,34.018,0,0,1-.763-7.855c2.083-1.123,4.818-2.68,6.824-3.9,0.1-1.145.218-2.68,0.316-3.836,5.407-1.79,6.551-7.714,10.573-10.856l0.021,0.006h0.022l0.022-.011,0.011,0.011h0.033c0.022-.006.022,0,0.022,0h0.01l0.022-.006,0.011,0a0.034,0.034,0,0,0,.022.011h0.077l0.021-.011h0a0.02,0.02,0,0,0,.022,0h0l0.011,0.006h0.043l0.022-.006,0.022,0v0.011l0.022-.006a0.016,0.016,0,0,0,.022,0l3.422-.624c1.4-1.822,3.27-4.253,4.665-6.087,0.949,0.63,2.213,1.476,3.161,2.105-1.656,39.512-1.656,39.512-1.9,41.677-0.262,2.311-3.761,4.047-5.821,5.138-6.278,3.325-6.278,3.325-13.93,34.688,2.638,0.9,2.638.9,23.882-36.023,0.469-2.805,2.845-4.562,3.924-7.031h0l1.9-.922c0.871-.809,2.048-1.888,2.921-2.708-0.709-7.307-2.431-14.5-2.747-21.863l0.2-1.937c1.254-13.221,6.922-25.449,8.764-38.557,0.992-.749,2.343-1.758,3.346-2.517-0.153,1.128-.371,2.637-0.512,3.765,7.379,6.934,7.379,6.934,8.087,8,0.9-.673,2.126-1.568,3.053-2.241,1.078,0.391,2.528.895,3.6,1.3,1.777-6.531-.948-14.051,4.426-19.785-2.54-12.408,7.2-20.98,10.006-31.727h0v0.006h0.022a0.036,0.036,0,0,0,.022.01h0l0.01,0,0.012-.005,0.01,0.005c1.428-.206,3.314-0.467,4.742-0.673a11.323,11.323,0,0,1,1.58-7.015c0.981,0.554,2.278,1.292,3.249,1.845-2.845,3.7-3.608,4.7.1,12.055,1.113-.082,2.584-0.184,3.685-0.261h0.076v0h0.022l0.011,0,0.011,0h0.022l0.01,0.006V345.01h0.022s0.011,0,.011,0h0.011l2.551,0.955c6.343-2.68,6.343-2.68,13.843,2.311,1.187,7.737,38.76,43.4,42.771,45.594,5.831,28.108,2.126,33.6.916,35.4,6.093,11.882,6.093,11.882,5.864,13.791a10.63,10.63,0,0,1,5.1,4.861c1.156,0.386,2.67.885,3.826,1.275,30.062-25.411,17.636-66.035,34.771-96.069-0.447-1.172-1.025-2.734-1.45-3.917,0.861-.716,2.038-1.671,2.911-2.377a14.712,14.712,0,0,1,1.624,7.151c3.281,3.081,10.954,10.292,19.3-6.315-1.254-.326-2.889-0.781-4.121-1.129-0.37-1.112-.894-2.587-1.3-3.689a16.493,16.493,0,0,0,7.674-.542c0.9-2.138,2.245-4.937,3.346-6.988,0.981,0.564,2.289,1.3,3.281,1.866,1.5-4.953,6.714-7.931,7.227-13.427,19.631,5.485,20.742,5.376,39.185,3.6h0.022v0h0c8.1,0.228,8.1.228,13.734-1.5,0.534-2.431,1.286-5.675,1.864-8.106,1.1-.591,2.583-1.378,3.684-1.963,16.023,10.719,21.593-17.654,36.438-18.6,0.851,0.733,1.962,1.72,2.812,2.458,0.687,1.063,1.6,2.485,2.3,3.548-4.579,13.552-4.579,13.552-10.192,21.017,1,5.317,1,5.317-2.06,12.288-1.384-2.9-1.93-6.19-4.044-8.762,0.415,9.571.415,9.571-.1,11.936-5.047,1.97-14.584-1.514-14.661-1.557a13.822,13.822,0,0,0-4.6-5.7c-0.5-2.941-.5-2.941-5.985-9.407L578.308,348.39c-0.665.961-2.322,1.449-3.292,2.068,1.438,10.215,10.137,17.469,11.423,27.755,9.429,6.825,16.808,15.961,25.964,23.122l35.13,31.765c0.284-.239,43.513-110.837,44.33-116.149,0.949,0.738,2.2,1.72,3.161,2.463A47.5,47.5,0,0,1,698,311.96c0.011,0.293-7.3,51.469-17.483,78.319-7.532,19.834-24.765,33.793-32.548,53.476a43.428,43.428,0,0,1-4.512,5.045c-8.567-5.826-21.146-4.145-27.283-14.491-1.057.38-2.442,0.906-3.488,1.292,5.068,32.7,19.642,63.746,17.113,97.756,0.829,0.782,1.951,1.813,2.812,2.589-0.653,5.609-1.668,11.175-2.223,16.8C629.9,571.361,612.544,579.7,605,594.017c-4.589,8.708-12.078,15.679-15.282,25.238-2.779,8.273,3.543,17.122-1.592,25.238-15.935,25.265-40.286,43.342-57.976,67.1a39.008,39.008,0,0,0,2.4,7c2.975-1.156,6.038-2.334,41.343-22.8,15.358-7.275,61-43.852,67.569-50.6,21.68-23.35,37.518-51.143,57.966-75.421C716.16,554.256,717.043,529.7,732,513.148c0.48,1.053,1.112,2.436,1.581,3.489,2.049-5.154,2.507-6.13,6.267-10.688,0.174,4.948.174,4.948-2.311,15.451,0,0,0,.012,1.32-2.6-0.327,1.014-.753,2.349-1.091,3.418l7.761-21.891c6.311-19.775,6.311-19.775,13.952-60.09,1.842-14.773,3.215-34.6,4.1-49.45,0.393-21.349.317-22.114-3.956-62.792C754.757,298.332,748.914,278.8,748.859,278.628ZM156.577,76.582a38.232,38.232,0,0,1,5.94-5.051C159.988,73.668,158.07,75.269,156.577,76.582ZM568.214,673.843a0.1,0.1,0,0,0-.043.039,0.164,0.164,0,0,1,.076-0.076C568.225,673.822,568.2,673.833,568.214,673.843Zm17.124-15.581-0.032,0a3.381,3.381,0,0,0,.555-0.131C585.709,658.17,585.491,658.23,585.338,658.262Zm138.4-317.147c-0.589-10.025-1.831-20.757-4.229-41.329A364.7,364.7,0,0,1,723.735,341.115Zm16.459-89.635c-4.807-12.7-6.791-17.73-9.483-22.455,3.51,7.97,7.03,16.135,9.723,23.128Zm-2.507,270.962a0.928,0.928,0,0,0,.076-0.222l-0.152.434ZM375.535,765.719a0.139,0.139,0,0,1,.109.011,3.425,3.425,0,0,1,.589.4c0.382,0.271.883,0.222,1.275,0.456a0.058,0.058,0,0,1,.011.026c-0.076.017-.141,0.006-0.218,0.017a4.288,4.288,0,0,0,1.842.467,0.054,0.054,0,0,0,.044-0.017,0.687,0.687,0,0,0-.447-0.206,3.763,3.763,0,0,1-.763-0.3,0.808,0.808,0,0,0-.436-0.212,5.491,5.491,0,0,1-.534-0.222,0.761,0.761,0,0,1,.239.06,2.788,2.788,0,0,0-.424-0.239,4.513,4.513,0,0,1-1.134-.629,0.038,0.038,0,0,0,.011-0.022c-0.131-.076-0.284-0.125-0.4-0.184a1.632,1.632,0,0,0-.642-0.228c0.076,0.081.261,0.092,0.24,0.238a0.976,0.976,0,0,1-.469-0.1A3.517,3.517,0,0,0,375.535,765.719Zm10.639,2.2a1.3,1.3,0,0,1,.141-0.011c-0.392,0-.85.016-1.307,0.022C385.345,767.928,385.749,767.922,386.174,767.917Zm-8.873-1.069c-0.589-.163-0.589-0.163-0.654-0.044a0.53,0.53,0,0,0,.534.239,2.1,2.1,0,0,1,.654.185,3.18,3.18,0,0,0-.337-0.016,0.15,0.15,0,0,1-.022.053,8.39,8.39,0,0,1,1.656.461c-0.676.137-1.188-.547-1.842-0.384a10.434,10.434,0,0,0,1.188.51c0.415,0.092.851,0.043,1.276,0.119l-0.044.01c0.218,0.017.447,0.012,0.665,0.022l0.077-.01,3.738-.06c0.24,0,.534-0.011.818,0-2.41.016-3.042-.114-7.925-1.189C377.149,766.777,377.225,766.81,377.3,766.848ZM147.05,568.415c0.207-.89.207-0.89-0.305-4.139l0.283-.266c1.384,0.174,2.507,1.438,4.066.928-0.022-.212-0.022-0.5-0.065-0.711-0.382-1.752-2.137-2.75-2.507-4.53-0.262-1.362,1.166-2.49.544-3.895a4.984,4.984,0,0,1-1.58-.689,2.067,2.067,0,0,1,0-.369c0.022-.863.818-1.433,0.839-2.29,0.044-1.248-.839-2.333-0.654-3.608,0.011-.032,1.145-4.215,1.341-4.5,2.137-3.483,6.725-2.013,9.309-4.606,1.2-1.2-.872-2.246-1.167-3.407,1.287,0.179,2.551,2.186,3.772.841,1.482-1.617-.763-3.06-0.294-4.65a2.252,2.252,0,0,0,.37-0.087c1.689,1.177,1.821,3.537,3.575,4.661,0.611,0.385,2.431.39,2.049-1.042-0.381-1.448-1.82-2.447-1.8-4.085,0-.462,0-0.462,1.875-2.018,0.2-.18,1.352-3.489-2.093-1.042-1.253-.206-1.1-1.975-2.387-2.149-0.84-.1-0.84-0.1-2.2,1.547-1.722-.451-2.812-2.642-1.755-3.559,0.6-.527,2.1-0.326,4.011-0.093,1.45,0.185,3.085.4,3.707-.3,0.348-.395.654-1.16-0.088-3.612-0.512-1.666,2.082-1.476,2.311-2.865,0.055-.32.2-1.069-1.243-2.018a5.769,5.769,0,0,0-.675-0.369l-5.974-2.826c-6.332,3.7-4.937,8.447-4.2,11,0.294,0.944.905,3.261,0.545,4.525-0.087.033-.207,0.087-0.3,0.119a2.872,2.872,0,0,0-.872-0.547c-0.219.39-.36,0.629,0.621,3.7,1.678,5.246-5.766-.575-6.279-1.222-0.915-1.182-.544-3-1.961-3.943-0.414-.294-0.414-0.294-3.314.445a3.076,3.076,0,0,0-.262-0.223c-0.022-2.425-.087-3.239-0.632-3.526-0.021-.022-4.589.211-4.85,0.51a37.509,37.509,0,0,1-7.979,7.047c-0.523.374-1.1,0.64-1.581,1.031-0.795.689-.828,1.86-1.613,2.549-1.319,1.173-3.226,1.428-4.436,2.773-0.36.4-.36,0.4-1.483,3.819-0.457,1.416-2.049,1.79-2.79,2.968-2.049,3.282.981,6.337,0.458,9.559-0.447,2.555-3.673,1.117-4.622,3.038-0.479.971-.337,3.5,1.657,3.668,2.78,0.238,2.78.238,3.118,1.632,0.555,2.415-.753,4.677-0.611,7.054a12.152,12.152,0,0,0,.785,2.972c0.708,2.187.817,2.957,0.12,3.217-0.48.174-.937-0.178-1.428-0.048-0.011,1.475,1.755,2.224,1.537,3.765-0.556,3.694-2.159,4.15-2.693,4.3a3.105,3.105,0,0,0-.152.375,3.253,3.253,0,0,0,.24.243c3.139,2.485,3.226,2.117,3.891-.358,0.283-.982.283-0.982,5.167-2.506,0.021-.049-0.676-6.939-0.894-7.384-0.36-.727-0.36-0.727-0.175-1.139,0.905-.239.905-0.239,0.327-4.433-0.24-1.741,2.4-1.052,2.856-2.43,0.251-.732-0.25-1.4-0.131-2.132,1.613-.993,2.159,1.655,3.576,1.861,0.174-.657.043-1.34,0.174-2a0.685,0.685,0,0,1,.425-0.076c1.592,0.96,1.373,3.011,2.5,4.253,1.243,1.378,2.66-1.106,3.979.038a1.551,1.551,0,0,1-.131,1.774c-0.512.955-2.693,1.823-1.559,2.854,2.464,2.224,4.251,1.692,6.006,1.182C146.244,572.105,146.429,571.258,147.05,568.415Z"/>
</svg>
