<svg xmlns="http://www.w3.org/2000/svg" width="768" height="768" viewBox="0 0 768 768">
  <metadata><?xpacket begin="﻿" id="W5M0MpCehiHzreSzNTczkc9d"?>
<x:xmpmeta xmlns:x="adobe:ns:meta/" x:xmptk="Adobe XMP Core 5.6-c142 79.160924, 2017/07/13-01:06:39        ">
   <rdf:RDF xmlns:rdf="http://www.w3.org/1999/02/22-rdf-syntax-ns#">
      <rdf:Description rdf:about=""/>
   </rdf:RDF>
</x:xmpmeta>
                                                                                                    
                                                                                                    
                                                                                                    
                                                                                                    
                                                                                                    
                                                                                                    
                                                                                                    
                                                                                                    
                                                                                                    
                                                                                                    
                                                                                                    
                                                                                                    
                                                                                                    
                                                                                                    
                                                                                                    
                                                                                                    
                                                                                                    
                                                                                                    
                                                                                                    
                                                                                                    
                           
<?xpacket end="w"?></metadata>
<defs>
    <style>
      .cls-1 {
        fill: #fff;
        fill-rule: evenodd;
      }
    </style>
  </defs>
  <path class="cls-1" d="M282.447,40.43a13.93,13.93,0,0,1,3.034-.869c0.033,0.043.087,0.1,0.109,0.141,0.433,0.516,1.712.282,3.045-.565,3.956-2.5,3.956-2.5,5.57-2.954,1.777-.5,3.251-1.683,4.963-2.352,3.566-1.4,7.445-1.6,11.086-2.873a2.831,2.831,0,0,0,.672-0.293l1.247-3.248c-1.355-1.683-3.013.494-4.541,0.538,0.347-.288.77-0.451,1.105-0.766a6.391,6.391,0,0,1-1.831.511c0.325-.283.748-0.424,1.073-0.717a1,1,0,0,0-.748-1.5h0l-0.022.005V25.485h0c-5.852-.326-5.852-0.326-9,2.2a0.972,0.972,0,0,0,.195.353c-0.065.038-.13,0.109-0.195,0.141-1.9.945-4.5,1.912-5.354,2.238-1.549.575-2.7,1.879-4.236,2.487-5.983,2.357-6.178,2.8-6.362,3.161,0.087,0.022.173,0.049,0.238,0.065h0V36.14l0.022-.011h0c2.46,0.614-1.766,3.133-2.373,4.834C280.431,41.114,280.431,41.114,282.447,40.43Zm32.76-6.05c-2.395-1.771-3.208-1.119-4.15-.359-0.813.641-1.452,1.151-2.482,0.7,0.856-1.021,2.351-1.184,3.132-2.335-0.25-1.168-.25-1.168-7.8.88-1.885.511-3.251,0.88-4.009,1.184-0.878.358-1.29,1.352-2.2,1.656a19.649,19.649,0,0,0-5.061,2.688,4.168,4.168,0,0,0,1.137.109c0.033,0.065.1,0.146,0.131,0.212a1.46,1.46,0,0,0-.282.852c1.463,1.341,2.969-.272,4.443.071a14.262,14.262,0,0,1-4.269,1.037c-1.951.217-3.869,1-4.162,1.738,0.293,0.7,3.89,2.346,7.846,2.335,2.558,0,3.565.1,4.064,1.238-0.25.5-.379,0.543-1.626,0.472-13.535-.733-13.752-0.092-15.291,4.127,0.228,0.337.228,0.337,0.78,0.337,0.033-.005,3.371.234,4.379,1.369-0.108,1.379-2.861,3.1-1.127,3.9,0.617,0.277,9.623.033,9.688,0.033,0.087-.011,8.6-0.88,10.88-3.269,1.322-1.412,1.734-1.4,1.983-1.385,0.217,0.613-.314,1.422.477,1.884,0.759,0.445,1.842-.136,2.46.787a8.6,8.6,0,0,1-.8,1.711,2.471,2.471,0,0,0,.184.261c2.309-.706,2.309-0.706,4.411.206,0.943,0.4,4.725-1.053,5.267-2.232,0.011-.027,1.051-2.46-1.55-1.412-0.943.369-1.495,0.6-1.853-.408,0.661-.966,1.69-0.163,2.493-0.521,1-.451,1.365-1.6,2.329-2.118a2.632,2.632,0,0,1,.423-0.222c0.422-.169.52,0.32,0.585,0.668,0.315,1.83,2.092.293,2.3,0.108,0.964-.869-1.669-4.42-1.713-4.464-0.455-.587-0.877.684-1.506,0.467,0-.017-1.658-2.216-1.506-3.057,0.173-1.124,1.582-.4,2.189-1,0.845-.836.238-1.944,0.52-2.884,0.509-1.6,1.994-2.557,2.655-4.034a1.452,1.452,0,0,0,.119-0.348c0-.033-0.216-2.509-1.441-2.748-1.625.076-4.541,2.938-4.562,2.96-1.149,1.157-1.518,2.775-2.449,4.057-0.77,1.048-2.363,1.95-2.721,1.059-0.292-.733.26-2.656,1.626-3.807,0.834-.728,1.181-1.129,1.084-1.759-0.174-1.092-.965-2.026-1.843-1.684-1.376.533-.607,2.01-1.214,2.873-1.95-.054-3.695,1.238-5.7.961-0.021-.076-0.054-0.163-0.076-0.228a18.163,18.163,0,0,1,2.33-1.3C315.185,34.966,315.2,34.945,315.207,34.38Zm14.522-.038a1.908,1.908,0,0,0,.975-0.608,7.423,7.423,0,0,1,.986-0.761c0.466-.277,1.008-0.418,1.441-0.722a1.333,1.333,0,0,0,.25-0.207,0.84,0.84,0,0,0-.553-1.5,8.863,8.863,0,0,0-3.4.766,1.428,1.428,0,0,0-.65.875,0.543,0.543,0,0,0,.52.287,3.237,3.237,0,0,1,.217,1.314C329.5,33.94,329.5,34.348,329.729,34.342Zm9.178,18.991c-0.617-.554-0.27-1.537-0.91-2.1a1,1,0,0,0-.52-0.136c-0.239.059-.726,0.179-1.832,1.591a0.94,0.94,0,0,0-1.072.038,1.5,1.5,0,0,0-.282.353,3.491,3.491,0,0,1-1.344,1.39c-3.023,1.841-3.023,1.841-3,2.281a12.348,12.348,0,0,0,2.406-.5c1.019-.233,1.019-0.233,1.17.961a0.931,0.931,0,0,0,.553.836c0.856,0.353,1.452-.445,2.211-0.5a0.724,0.724,0,0,1,.737.662,1.428,1.428,0,0,0,1.116.907,4.921,4.921,0,0,0,3-1.07,0.283,0.283,0,0,0,.054-0.1,4.515,4.515,0,0,0-.618-0.549c0.141-.222,1.258-2.215.976-2.786C341,53.506,339.655,54.038,338.907,53.333Zm10.88-22.7c-1.289-.027-2.524.489-3.825,0.44l-0.011.006-0.01-.011H345.93l-0.022.005V31.068H345.9a10.475,10.475,0,0,0-2.666-.141c-0.541.114-.531,0.358-0.52,0.5,0,0.245-.195.6-0.5,0.413-0.3-.163-0.455-0.26-1.517.212-0.109.038-.206,0.1-0.315,0.152-0.715.4,0.911,0.8,0.922,1.487,0,0.017-.347,1.917-1.258,2.1a5.2,5.2,0,0,1-1.863.1c-0.575-.386.206-1.108-0.358-1.5-1.366-.977-3.457,1.673-3.49,1.836-0.1.348,1.474,1.732,1.7,1.787a2.37,2.37,0,0,1,1.159.408c0.5,0.559,0,1.292.315,1.9,0.238,0.478.942,0.146,1.17,0.657,0.368,0.826-.509,1.434-0.39,2.2,0.086,0.608,3.652-.185,3.641-0.8,0-.457-0.683-1.054-0.12-1.347,0.586-.294.672,0.662,1.128,0.836,0.845,0.336,1.43-.44,2.167-0.543,1.008-.157,1.008-0.157,1.073-0.923a0.493,0.493,0,0,1,.206-0.478,5.508,5.508,0,0,1,.715-0.141c0.011-.006.7-0.429,0.054-0.826-0.13-.076-0.259-0.141-0.195-0.287,0.336-.8,1.333-0.429,1.778-1.015a5.4,5.4,0,0,0,.617-1.694c-0.52-.087-1.019.358-1.538,0.087-0.109-.424.476-0.771,0.119-1.211-0.39-.494-1.052-0.326-1.561-0.543,0.033-.114.249-0.712,2.384-0.972,0.445-.054.521-0.25,0.51-0.321a1.137,1.137,0,0,0-.542-0.516c0.65-.51,1.539-0.315,2.211-0.8C351.337,31.394,350.872,30.731,349.787,30.633Zm3.306,9.287c0.26-.076,2.525-1.808,2.525-1.82,0.379-.516-0.325-1-0.022-1.5a2.287,2.287,0,0,1,1.171-.38c2.167,0.717,2.492.554,2.828,0.37,1.116-.565,1.669-1.727,2.6-2.5a23.321,23.321,0,0,1,2.937-2.189,2.332,2.332,0,0,0,.7-0.467,1.216,1.216,0,0,0,.087-0.185c-0.412-.554-3.165-0.63-5.169-0.679v0h-0.011l-0.011,0h-0.011v0H360.7c-1.116-.087-2.124-0.63-3.251-0.7a1.96,1.96,0,0,0-1.083.26c-0.618.3-.932,0.956-1.507,1.3-0.325.179-.7-0.022-1,0.174a0.672,0.672,0,0,0-.249.19,17.122,17.122,0,0,0-.682,1.955c-0.413.771-1.138,1.282-1.561,2.042a0.745,0.745,0,0,0-.076.2,2.4,2.4,0,0,0,.293,1.385c0.1,0.684-.607,1.113-0.564,1.77A3.428,3.428,0,0,0,353.093,39.919Zm48.593,0.119a1.983,1.983,0,0,0-.694.565c-0.119.011-.281,0.033-0.422,0.038a4.645,4.645,0,0,0-.2-1.091c-0.325-.9-6.176-4.518-7.867-1.075,0.141,0.076.314,0.174,0.444,0.261h0l0.022-.006c0.932,0.222,1.149.5,1,1.347a1.339,1.339,0,0,1-.835.108c-0.335.624-.335,0.624,0.087,1.8a3.977,3.977,0,0,1-.834-0.152c-1.127-2.65-1.127-2.65-1.734-2.911a4.98,4.98,0,0,0-.661.7c-0.109-.033-0.282-0.065-0.4-0.092a4.271,4.271,0,0,0-.217-0.972,7.959,7.959,0,0,0-.954-0.038c-1.484,2.08-1.484,2.08-2.406,1.9,0.228-1.249,1.626-1.945,1.507-3.345l-2.178-4.269c-1.908-1.178-3.338.657-5.04,0.793-0.693.055-1.311-.511-2.015-0.217-1.68.7-1.441,1.336-.932,2.748a6.079,6.079,0,0,0-.835.032c-0.162.511-.39,1-0.519,1.515,1.809,2.232,1.809,2.232,1.809,2.46-0.141.054-.314,0.13-0.444,0.185-2.634-1.119-2.84-1.206-2.341,1.075,0.347,1.608,3.414,3.286,1.55,4.659-2.081-1.064-2.081-1.064-1.712-2.118a2.078,2.078,0,0,0-.153-1.792,2.32,2.32,0,0,0-.845-0.391c-0.6-3.5-.607-3.573-1.408-4.029-0.022-.136-0.065-0.3-0.087-0.434,0.195-.321.195-0.321,5.1-4.844-0.542-.418-0.889-0.7-3.825-0.848-4.422.076-9.667,7.494-9.71,7.565,0.141,0.065.3,0.152,0.434,0.222,0.032,0.125.075,0.293,0.118,0.424a4.178,4.178,0,0,0-2.373,4c1.561,0.728,3.435.375,4.888,1.466-0.39.456-.39,0.456-3.815,1-0.087.152-.195,0.353-0.26,0.489,1.04,0.88.911,2.8,2.655,3.019l0.011-.005,0.022,0.011h0l0.01-.005h0l0.011,0.005h0l0.011-.005h0.011v0.011h0l0.011-.006,0.021-.005h0.011l0.358,0.022c1.593,0.211,2.557-1.466,4.118-1.347,0.346,2.406.346,2.406,2.5,2.981a3.642,3.642,0,0,0,.618.141c1.322,0.071,2.265-1.124,3.576-1.07,1.225,0.049,1.962,1.325,3.208,1.336a10.6,10.6,0,0,0,1.4-.352c0.877,1.271.877,1.271,1.8,1.352,0.151-.266.151-0.266,0.151-1.542l5.213,0.2a2.794,2.794,0,0,1,1.311.6c1.55,1.059,2.991-.483,1.5-1.569-1.6-1.129-2.373-1.7-1.062-2.7l3.294,2.683c0.857,1.608.857,1.608,3.674,1.238,0.672,0.733.043,1.846,0.747,2.574,0.878,0.9,2.352.483,3.23,1.428a2.161,2.161,0,0,1,.184.608,16,16,0,0,0-1.658.711c-0.032.027-1.9,2.172,1.127,2.411,0.64-1,.813-1.26,3.143-1.292l0.022-.006,0.216,0.006a5.069,5.069,0,0,0,.553.217c0.824,2.27,3.468,1.673,4.833,3.1,1,1.021.488,2.574,1.29,3.671,0.607,0.815,2.015.19,2.4,1.358,0.238,0.689.119,1.471-3.587,6.386-1.182,1.575-1.485,2.254-.076,3.063,1.355,0.771,1.42,1.07,1.517,1.531-0.086.114-.086,0.114-2.1,0.608-0.293,1.455-.293,1.455-0.542,1.564-1.116.483-2.3-.326-3.414,0.141-0.368,1.249-.986,3.346-1.961.858-0.726-1.836-4.551-.809-4.551-0.793-0.076.033-3.859,3.866-1.171,5.653,3.295,2.178,6.741-.462,10.089.255,0.13-.092.282-0.212,0.423-0.3a1.7,1.7,0,0,1,.022-1.444c2.535,0.087,2.2,3.85,4.833,3.8-0.325-1.233-1.81-2.118-1.127-3.666,3.8-.554,1.885,5.653,5.494,6.022,0.65-.673,2.33-2.444,3.956.261-5.159,2.634,2.449,6.511,6.469,6.234,2.775-.174,3.359.272,3.706,0.538-0.032,4.3,8.952,5.013,12.831,5.116,0.694-3.872-8.485-8.135-8.561-8.173-0.411-1.129-1.474-1.884-1.734-3.1,0.379-.348.379-0.348,2.092-0.825,0.552,0.668.693,1.6,1.452,2.123,0.834,0.554,1.68-.44,2.493.022,1.159,0.646,1.365,2.14,2.524,2.791,0.163,0.087.38,0.222,0.553,0.309a1.122,1.122,0,0,0,.553-0.108,3.977,3.977,0,0,1,.574-1.287c0.141,0.011.358,0.022,0.51,0.027,3.056,3.823,3.056,3.823,4.3,3.563-0.3-2.047-3.4-3.155-2.1-5.7a4.542,4.542,0,0,0,1.072-.325c-1.485-3.454-1.485-3.454-2.438-3.687a1.442,1.442,0,0,1-1.365-1.081,4.169,4.169,0,0,0,1.387-1.14c-0.51-1.668-2.775-1.2-3.371-2.759-0.747.032-1.419,0.51-2.189,0.211L435,80.143c-1.084-.733-0.141-2.227-1.171-2.965-0.13.027-.281,0.071-0.422,0.092-0.228.966-.228,0.966-0.575,1.265-0.032-.027-3.435-2.916-3.9-4.171,1.473-.418,2.72.527,4.085,0.722,0.119-.108.271-0.245,0.412-0.353-1.571-.988-1.571-0.988-1.821-1.461,1.518-1.412,1.518-1.412,2.2-1.3,1.149,0.168,1.073,1.667,2.124,1.928,0.466-.385.878-0.831,1.387-1.195,0.857,0.581.228,2.015,1.388,2.427s1.593-1.357,2.774-.934a2.97,2.97,0,0,1,.423.169c-0.022.13-.044,0.32-0.076,0.462a2.532,2.532,0,0,0-.716.8c1.572,1.906,1.29,4.947,3.815,6.261,0.52-.673.3-1.672,0.965-2.286,1.712,1.064,2.546,3.155,4.5,3.937-1.008-2.606-4.237-4.008-4.009-7.309,0.118-.071.281-0.169,0.411-0.239,1.2,0.358,1.864,1.9,3.381,1.575a10.149,10.149,0,0,0-.39-1.51c0.184-.25.434-0.587,0.607-0.836-0.347-1.135-2-1.466-1.842-2.938,0.921-.385,1.517.581,2.341,0.559-0.044-.636.1-1.287,0.032-1.933-0.585-3.008-2.557-2.324-5.809-1.211-0.78-.793-0.184-2.438-1.69-2.808-1.734,2.172-1.734,2.172-3.512.939,0-.059-1.516-5.61-3.543-5.094a4.683,4.683,0,0,1-.109,1.406c-0.129.043-.3,0.12-0.4,0.152-2.764-1.912-2.764-1.912-2.862-1.868-0.1.445-.075,0.907-0.14,1.363-0.141,0-.325.005-0.444,0.005-1.387-1.95-1.387-1.95-2.124-2.161h-0.022L424.3,59.773c0.066-.261.131-0.6,0.184-0.847a3,3,0,0,0-.281-0.369c-0.184-.011-0.434-0.011-0.618-0.027V58.524h-0.022l-0.01.005h0l-0.011.006V58.524l-0.011.005h0l-0.011.006h0a2.148,2.148,0,0,1-1.17-.424,2.6,2.6,0,0,1-.39-2.275c0.747-.9,1.636-0.06,2.471-0.18a1.657,1.657,0,0,0-.272-2.1c-1.6.2-3.1,1.075-4.789,0.662-0.022,0-1.453-.478-0.054-2.085a13.877,13.877,0,0,1-.824-1.52c0.412-.456,1.084-0.4,1.528-0.8a1.59,1.59,0,0,0-.119-2.074c-1.062-.689-2.168.4-3.262-0.049-0.249-1.124-.282-1.292-1.04-1.347-0.9,1.309-.943,1.38-1.724,1.162-0.032-.966-0.227-1.287-0.9-1.471-1.777,1.135-1.777,1.135-1.962,1.048-0.292-1.064.661-2.047,0.217-3.117-0.434-1.048-4.389-2.15-5.31,1.043-0.141.032-.281,0.076-0.412,0.1-0.552-2.254-.552-2.254-1.289-2.422a5.661,5.661,0,0,1-.77,1.092C402.911,40.745,402.911,40.745,401.686,40.038Zm-14.674-7.5c-0.455.017-.8,0.087-0.606,0.771a11.28,11.28,0,0,0,1.734,3.074,3.018,3.018,0,0,0,1.462.793,1.912,1.912,0,0,0,.6-0.163,6.969,6.969,0,0,1,3.1-.646c0,0.006,2.438.3,3.208,0.538a0.607,0.607,0,0,0,.3.054,0.78,0.78,0,0,0,.152-0.782c-0.108-1.634-3.013-2.726-3.143-2.769a2.971,2.971,0,0,0-.737-0.217c-0.921-.108-1.842-0.022-2.731-0.114C389.245,32.957,388.162,32.555,387.012,32.533Zm16.8,30.085a4.625,4.625,0,0,0-.64-0.271c-0.487-.141-1-0.206-1.484-0.348-0.228-.066-0.434-0.206-0.65-0.266a1.032,1.032,0,0,0-.325-0.049,1.147,1.147,0,0,0-.976.571,18.919,18.919,0,0,0-1.626,2.938,0.628,0.628,0,0,0,.347.76,1,1,0,0,1,.51.326c0.141,0.3,0,.652.162,0.945a3.716,3.716,0,0,0,.39.559,1.89,1.89,0,0,0,1.269.934,0.6,0.6,0,0,0,.27-0.071,5.661,5.661,0,0,1,1.745-.234c0.434-.011.9,0.049,1.333,0a0.272,0.272,0,0,0,.076-0.022,17.572,17.572,0,0,0,.108-1.808,5.009,5.009,0,0,1-.336-1.129,18.471,18.471,0,0,1,.325-1.868A0.885,0.885,0,0,0,403.81,62.619Zm-86.154-42.9c0.022,0.027.033,0.06,0.054,0.092a3.363,3.363,0,0,0,1.279-.336,1.611,1.611,0,0,1,1.127-.473,5.525,5.525,0,0,1-1.138,1.086,1.1,1.1,0,0,1,.044.109,5.509,5.509,0,0,0,2.221-.853c0.022-.011,2.114-1.145,2.482-1.01-0.206.169-.444,0.288-0.64,0.478a0.348,0.348,0,0,1,.022.1,14.8,14.8,0,0,0,3.782-1.406c1.041-.673,1.138-0.684,1.6-0.538l0.022,0.125c-0.846.533-2.037,0.51-2.558,1.564,0.065,0.006,5.657-1.108,6.632-2.237a0.359,0.359,0,0,0-.01-0.147c0.7-.733,1.744-0.548,2.557-0.918a3.1,3.1,0,0,0,1.246-1.075,0.466,0.466,0,0,1-.1-0.071l-4.974.652-11.726,3.1c-0.043.016-3.056,0.907-3.348,1.814a8.8,8.8,0,0,1,1.983-.641A2.367,2.367,0,0,1,317.656,19.723Zm6.687-.239c-0.011,0-.022-0.006-0.033-0.006-0.054-.005-4.811.706-5.083,1.944-0.118.587,4.737-1.683,4.8-1.716A0.515,0.515,0,0,0,324.343,19.484Zm17-5.822c0.011-.006.022-0.006,0.032-0.011,0.586-.434,1.084-0.809.726-0.874a5.946,5.946,0,0,0-1.473.31,1.766,1.766,0,0,0-.629.684C339.861,14.162,341.324,13.668,341.346,13.663Zm-6.372,3.7a1.264,1.264,0,0,0,.585-0.407c-0.022-.082-0.033-0.147-0.5-0.179a2.29,2.29,0,0,0-1.637.315,4.564,4.564,0,0,1,.672.206,4.3,4.3,0,0,1-.477.548C333.565,18.056,334.963,17.366,334.974,17.361ZM346.1,11.92a2.887,2.887,0,0,1,1.16-.179,3.7,3.7,0,0,0-.531.369c0.368-.016,2.222-0.06,2.471.331a3.553,3.553,0,0,0,1.2-.532,5.9,5.9,0,0,0,.607-0.348c-0.011-.011.769-0.815,0.39-0.858-0.542-.017-5.56.809-6.405,1.379A2.229,2.229,0,0,0,346.1,11.92Zm-5.375,3.063c0.965-.087,1.962-0.043,2.937-0.136a4.048,4.048,0,0,0,1.018-.234c0.488-.2.467-0.315,0.456-0.359-0.011-.1-0.022-0.152.271-0.309,0.6-.31,1.268-0.473,1.863-0.826a2.745,2.745,0,0,0,.25-0.157,0.136,0.136,0,0,1,.011-0.065,16.028,16.028,0,0,0-1.864.434c-0.9.152-1.843,0.043-2.731,0.163a5.253,5.253,0,0,0-.737.163,17.922,17.922,0,0,0-2.958,1.488A3.432,3.432,0,0,0,340.728,14.982ZM321.6,26.4c1.084,1.2,6.015-.608,6.058-0.635,0.921-.506,2.59-0.972,3.067-0.506,1.647-.8,1.647-0.8,1.874-0.711a0.911,0.911,0,0,1-.184.76c0.022,0.022.065,0.06,0.087,0.087,0.791-.19,1.344-1,2.265-0.847,0.152,0.673.238,0.972,2.037,0.445a43.033,43.033,0,0,0,4.411-2.352c1.441-.966,1.062-1.444.563-2.064a11.126,11.126,0,0,1-2.687,1.57c0.27-.31.6-0.522,0.845-0.842a0.855,0.855,0,0,0-.065-0.092,6.857,6.857,0,0,0-1.257.141c0.7-.575.7-0.575,0.715-0.744a6.694,6.694,0,0,0-.932-0.043c1.181-.88,2.547-1.461,3.49-2.629a0.476,0.476,0,0,0-.4-0.358,25.957,25.957,0,0,0-4.692,1.705c0,0.043-.012.109-0.012,0.147a6.571,6.571,0,0,1,.867.157c0.022,0.055.044,0.125,0.066,0.174-0.651.706-2.32,0.374-2.276,1.727,0.032,0.543.065,1.173-3.219,1.081-0.867-.027-0.943-0.048-0.8-0.678a0.391,0.391,0,0,0-.173-0.543c0.184-.521.759-0.391,1.094-0.69,0,0,.715-0.961.184-1.2-0.769-.38-1.43.239-2.167,0.261a1.8,1.8,0,0,0,.726-0.815,1.33,1.33,0,0,0-.542-0.777c-0.39.033-.66,0.071-3.8,1.2a13.914,13.914,0,0,0-1.561,1.162c-0.672.353-1.43,0.054-2.124,0.326-0.531.228-.78,0.8-1.311,1.027-0.856.331-2.016-.147-2.623,0.929,0.26,0.087.531,0.12,0.78,0.206,0,0.391-.357.668-0.357,1.064,1.181,0.152,1.972-.842,3.034-0.994-0.3.331-.759,0.516-1.084,0.864,1.659,0.108,2.764-1.162,4.194-1.629,0.033,0.006.087,0.043,0.13,0.055a4.533,4.533,0,0,0-.79,1.043,0.933,0.933,0,0,0,.1.163c0.975,0.119,1.864-.592,2.872-0.37l0.021,0.114C326.337,25.268,319.336,23.915,321.6,26.4Zm28.9-10.036a2.68,2.68,0,0,0,.574-0.771,3.134,3.134,0,0,1,.206-0.266c0.022-.027.054-0.059,0.076-0.087a2.779,2.779,0,0,0,.174-0.668,0.508,0.508,0,0,0-.25-0.076,1.369,1.369,0,0,0-.856.326,3.09,3.09,0,0,0-.358.592c-0.282.288-.65,0.467-0.921,0.755a0.656,0.656,0,0,0-.054.1c-0.065.206,0.434,0.326,0.575,0.336A1.692,1.692,0,0,0,350.5,16.362Zm-2.634,3.471,0.023-.006a2.559,2.559,0,0,0,1.191-.25,0.508,0.508,0,0,1,.076-0.066c0.217-.174.141-0.293,0.033-0.521-0.195-.326-0.423-0.636-0.423-0.636a0.2,0.2,0,0,0-.141-0.027,1.018,1.018,0,0,1-.13-0.011,1.118,1.118,0,0,0-.737.179,0.486,0.486,0,0,0-.119.217,1.871,1.871,0,0,0-.022.342c-0.01.141-.043,0.271-0.043,0.4a0.514,0.514,0,0,0,0,.13,0.246,0.246,0,0,0,.292.234h0v0.011Zm-7.4,4.778a0.566,0.566,0,0,0,.7.369,4.575,4.575,0,0,0,1.507-.668,1.268,1.268,0,0,0,.368-0.749,0.223,0.223,0,0,0-.271-0.2A2.712,2.712,0,0,0,340.468,24.61Zm17.263-12.094a1.448,1.448,0,0,1,.629-0.141c0.119,0.337-.423.3-0.412,0.619a0.93,0.93,0,0,0,.5-0.06,1.392,1.392,0,0,1,1.019-.054c0.228,0.233.1,0.527-.195,0.966-0.163.223-.141,0.255-0.108,0.3,0.184,0.022.368-.038,0.563-0.033a5.445,5.445,0,0,0,.878.239,2.709,2.709,0,0,0,.791-0.336c0.65-.4.379-0.652,0.25-0.755a0.2,0.2,0,0,1-.033-0.266c0.325-.554,1.03-0.6,1.4-1.081a0.317,0.317,0,0,0,.054-0.114,1.218,1.218,0,0,0-.054-0.744c-0.315-.217-0.553.288-0.846,0.071a5.241,5.241,0,0,0,1.019-.575l-0.022-.022c-1.354-.168-1.354-0.168-1.516-0.092a1.536,1.536,0,0,1-.619.212,3.371,3.371,0,0,1,.933-0.608c0.054-.06.639-0.564-0.921-0.662-1.5-.065-2.2.38-2.211,0.532a0.793,0.793,0,0,0,.1.022h0V9.943l0.022-.005c0.195,0.016.195,0.038,0.228,0.092a1.557,1.557,0,0,1-.922.641,1.411,1.411,0,0,0-.488.3,10.262,10.262,0,0,0,1.019-.315c0.25,0,.6.348-0.032,0.907a1.57,1.57,0,0,1-1.236.2,1.453,1.453,0,0,0-1.246.19C354.924,12.886,355.661,13.158,357.731,12.517ZM369.056,8c0.076-.054.173-0.12,0.249-0.185,0.206-.2.249-0.467-0.011-0.483a1.637,1.637,0,0,0-.953.223c-0.1.076,0.076,0.162,0.043,0.255a4.746,4.746,0,0,1-.477.608,0.235,0.235,0,0,0-.043.12C367.864,8.661,367.972,8.726,369.056,8Zm-11.043,6.517c0.119-.1-0.021-0.478-0.628-0.511a1.523,1.523,0,0,0-1.019.19,7.318,7.318,0,0,0,1.029.364,1.09,1.09,0,0,0,.553-0.016A0.415,0.415,0,0,1,358.013,14.515Zm-5.05,5.735c0.065,0.1.065,0.1,0.975,0.277a0.2,0.2,0,0,1,.065.081,5.909,5.909,0,0,1-1.506,1.434c-0.173-.4.184-0.825-0.1-1.206a1.082,1.082,0,0,0-.889-0.152c0.065-.206.206-0.369,0.26-0.576,0.1-.315-0.25-0.326-0.477-0.233a4.429,4.429,0,0,0-.769.793,3.739,3.739,0,0,1-1.181.576v0.087a1.81,1.81,0,0,1,.78.407,1.1,1.1,0,0,1-1.789.261,1.133,1.133,0,0,0-.628-0.326,1.257,1.257,0,0,0-1.29.771c0,0.027.759,1.4,1.8,1,1.2-.473,3.284-1.189,3.587-0.706,0.076,0.141-.259.271-0.845,0.5a8.952,8.952,0,0,0-2.243,1.048,1.644,1.644,0,0,0-.228,1.428c0.054,0.054.206,0.146,0.737-.147,1.235-.689,1.42-0.673,1.528-0.565a8.421,8.421,0,0,0-.293.875,0.243,0.243,0,0,0,.272.206c0.531-.022.845-0.543,1.354-0.565,0.466-.032.846,0.445,1.355,0.283a0.511,0.511,0,0,0,.271-0.722,1.008,1.008,0,0,1,.682-1.108c0.412-.114.466,0.559,0.9,0.413a1.332,1.332,0,0,0,.325-0.288,1.728,1.728,0,0,0,.217-0.272,8.029,8.029,0,0,0,.26-1.444c0.455-1.173,1.864-1.6,2.254-2.829a1.554,1.554,0,0,0-1.062-.7,1.649,1.649,0,0,0-1.084.564c-0.932.82-1.094,0.82-1.159,0.815a2.6,2.6,0,0,0,.379-1.059,0.632,0.632,0,0,0-.585-0.38,2.567,2.567,0,0,1-.867.532,0.151,0.151,0,0,1-.054-0.048,0.767,0.767,0,0,1,.032-0.272c0.011-.266-0.607-0.071-0.9.136A0.886,0.886,0,0,0,352.963,20.25Zm4.844,3.573a2.386,2.386,0,0,0-.054.559c-0.087.494-.553,0.483-1,0.467a0.687,0.687,0,0,0-.4.059,2.488,2.488,0,0,0-.5,1.07c0,0.1,0,.1.651,0.038a1.161,1.161,0,0,1,1.127.641,0.974,0.974,0,0,0,.325.288c0.358,0.13.726,0.13,1.073,0.25,0.281,0.1.552,0.277,0.834,0.375a0.243,0.243,0,0,0,.087.005,4.231,4.231,0,0,0,1.419-1.2,0.662,0.662,0,0,0,.109-0.755,0.493,0.493,0,0,1-.087-0.4,1.354,1.354,0,0,1,.575-0.473c0.91-.792-1.453-1.487-2.439-1.531V23.2h0a8.877,8.877,0,0,0-1.528.369A0.446,0.446,0,0,0,357.807,23.823Zm6.058-8.254a0.449,0.449,0,0,0,.011.054,1.763,1.763,0,0,0,.282.06l0.01-.006,0.011,0.011h0.044a15.432,15.432,0,0,1,1.668.2c0.391,0.049.759,0.081,1.149,0.136a0.813,0.813,0,0,0,.293.1,8.247,8.247,0,0,0,1.517-.928,0.434,0.434,0,0,0,.141-0.2,0.6,0.6,0,0,0-.282-0.092h-0.022C364.743,14.852,364.331,15.189,363.865,15.569Zm-0.4-1.629a5.022,5.022,0,0,0,1.615.434c0.314-.022.585-0.217,0.91-0.266a5.593,5.593,0,0,0,.585.032,1.709,1.709,0,0,0,.683-0.336,0.465,0.465,0,0,0,.13-0.19c-0.184-.217-0.184-0.217-0.141-0.288a6.118,6.118,0,0,1,.834-0.527c0.131-.114.174-0.358-0.563-0.385h0l-0.021-.006h-0.033c-0.336-.011-0.455-0.055-0.466-0.3-0.044-.766-0.5-0.809-1.507-0.9a0.242,0.242,0,0,0-.173.054c-0.021.022-.043,0.033-0.033,0.043-0.249.234-.314,0.571-0.574,0.8a5.019,5.019,0,0,0-.791.494c-0.173.239,0.336,0.266,0.336,0.505a0.758,0.758,0,0,1-.39.4A1.041,1.041,0,0,0,363.464,13.94Zm7.087,10.1a0.64,0.64,0,0,0-.13-0.065c-0.054-.532.488-0.956,0.271-1.51-0.195-.5-1.257-0.271-1.072-0.912,0.227-.869,1.43,0,1.69-0.869a8.37,8.37,0,0,0-1.171-.587,1.92,1.92,0,0,0-.368-0.662c-0.715-.3-1.2.511-1.9,0.391-0.909-.174-1.3-1.135-2.112-1.439a2.836,2.836,0,0,1-1.16-.2c-0.239-.223-0.618-0.548-2.59-0.972-1.593.685-1.593,0.858-1.593,1.922,0.422,0.027.812-.1,1.246-0.059a2.014,2.014,0,0,0-.509.885,3.027,3.027,0,0,1,.7.054c0.282,0.2.184,0.608,0.455,0.8a1.207,1.207,0,0,0,.109.1,2.942,2.942,0,0,0,1.322-.38c0.943-.413,1.419-0.608,1.43.407,0,0.777,0,.777.152,0.929,0.271,0.272.639-.043,0.921,0.119-0.043.288-.054,0.3-0.748,1.064-2.926,3.144-1.159,4.4-1.138,4.41a5.93,5.93,0,0,0,1.333-.706,0.806,0.806,0,0,1,.141.071c0.022,1.015.054,1.82,1.485,1.885,0.91,0.043,1.571-1.857,2.319-.94,0.835,1.065,4.443,1.982,5.863.962a0.851,0.851,0,0,1,.574-0.261,2.531,2.531,0,0,1,.824.347,1.335,1.335,0,0,0,1.853-.309c0.726-.657,1.355.315,2.026,0.456a1.979,1.979,0,0,0,.412-1.385,1.2,1.2,0,0,0,.119-0.071c0.586,0.271,1.03.793,1.637,1.037a3.958,3.958,0,0,0,1.614.277l0.011-.006h0.011v0.011h0.043l0.011-.006v0.006h0.011a8.33,8.33,0,0,0,2.254-.174c0.477-.217.38-0.825,0.77-1.118,0.368-.266.867-0.1,1.224-0.392a0.712,0.712,0,0,0,.261-0.32c0.075-.348-0.282-0.385-0.51-0.429h-0.011a0.544,0.544,0,0,1-.585-0.239c0.13-.418.683-0.619,0.6-1.151a1.526,1.526,0,0,0-.9-0.907c-3.619-1.331-3.619-1.331-3.717-1.336a5.3,5.3,0,0,0-1.8.5c-0.607.125-1.094-.359-1.69-0.31a4.18,4.18,0,0,0-.8.141C376.49,24,376.49,24,376.393,24.127a1.208,1.208,0,0,1-.619.315c-0.335.054-.335,0.054-0.974-0.467-0.488-.4-0.878.157-1.323,0.19-0.715.071-.9-0.614-1.355-0.907C371.407,22.84,371.223,24.073,370.551,24.041Zm0.856-4.5a0.99,0.99,0,0,0-.151-0.978c-0.889.065-.813,0.532-0.8,0.576C370.508,19.354,371.136,20.033,371.407,19.544Zm-0.6-8.374c0.315,0.152.727-.092,0.976,0.3a0.731,0.731,0,0,0-.314.326c0.216,0.185.661,0.065,0.715,0.467-0.271.315-.737,0.06-1.008,0.326,0,0.011.021,0.369,1.181,0.76a1.033,1.033,0,0,1,.715.429,1.528,1.528,0,0,0,.8-0.527c0.271-.152.271-0.152,0.683,0.359a0.177,0.177,0,0,0,.054-0.006,1.29,1.29,0,0,1,.369-0.613c0.368-.261.476,0.88,0.8,0.554a1.093,1.093,0,0,0,.563-0.869,0.441,0.441,0,0,1,.249-0.445,0.824,0.824,0,0,1,.477.364c0.011-.006.033-0.011,0.054-0.022a9.275,9.275,0,0,1,.369-0.962,0.829,0.829,0,0,1,.455-0.369c0.206,0.266-.108.456-0.152,0.7a0.112,0.112,0,0,0,.054.027,0.339,0.339,0,0,0,.066-0.022c0.6-.271,1.115-0.668,1.712-0.934a5.978,5.978,0,0,1,1.278-.456,1.287,1.287,0,0,0,.737-0.337,1.972,1.972,0,0,0-.465-0.961,5.063,5.063,0,0,0-.554.527,2.577,2.577,0,0,0-.379-0.548,0.605,0.605,0,0,0-.617.055,0.367,0.367,0,0,1-.066-0.027,4.336,4.336,0,0,1,.6-0.961c0.162-.255.162-0.255-0.217-0.456,0.184-.94-0.108-0.961-0.249-0.923-0.4.1-.4,0.88-0.889,0.684-0.108-.315.368-0.407,0.271-0.733a1.389,1.389,0,0,1-.867-0.223,0.852,0.852,0,0,1-.054-1.021c0.455-.831.65-1.178-0.228-1.238a1.356,1.356,0,0,0-.585.429c-0.455.245-1,.31-1.463,0.543a0.423,0.423,0,0,0-.162.147,0.981,0.981,0,0,1,.141.25,1.936,1.936,0,0,1-1.193.478,3.944,3.944,0,0,0-.8.027c-0.281.114-.238,0.483-0.509,0.6-0.292.13-.607-0.038-0.9,0.1-0.011.005-.044,0.016-0.065,0.027a0.1,0.1,0,0,0-.022.1c0.488,0.445,1.1.006,1.625,0.206a2.007,2.007,0,0,1-1.69.255,0.63,0.63,0,0,0-.423-0.06,0.416,0.416,0,0,0-.217.108l-0.845,1.01a1.012,1.012,0,0,0,.6.032,1.672,1.672,0,0,1,.954.011,2.457,2.457,0,0,1-1.106.467,0.987,0.987,0,0,0-.715.353,14.7,14.7,0,0,0,3.078.131,0.388,0.388,0,0,1,.39.1,18.251,18.251,0,0,1-2.308.82C371.624,10.545,370.757,10.844,370.811,11.17Zm11.054-5.534a0.161,0.161,0,0,0,.043-0.13,0.113,0.113,0,0,0-.065-0.027,3.992,3.992,0,0,0-.953.25,0.167,0.167,0,0,1-.033-0.005,2.583,2.583,0,0,0-.715.005l-0.087.011a0.329,0.329,0,0,0-.3.266,0.741,0.741,0,0,0,.693.646A5.148,5.148,0,0,0,381.865,5.636ZM372.61,20.467v0a0.158,0.158,0,0,0-.043.027A0.235,0.235,0,0,0,372.61,20.467Zm2.58,0.456a2.61,2.61,0,0,1,.813-0.88c0.216,0.266,0,.722.4,0.88,0.152,0.066.369,0.152,0.78-.4,0.586-.8.813-0.874,1.149-0.424,1.311,1.722,2,.44,2.222.022,0.325-.587.606-0.478,0.606-0.478a2.968,2.968,0,0,1,.792,1.043c0.726-.043.552-1.543,1.214-1.141,0.487,0.282.736,0.945,1.462,0.869,0.044-.011.087-0.033,0.131-0.044a0.666,0.666,0,0,0,.151-0.575,0.865,0.865,0,0,1,.26-0.608c0.033,0,.087.017,0.13,0.022,0.553,1.048.553,1.048,1.312,0.988,0.271,1.461.271,1.461,0.357,1.466a10.048,10.048,0,0,0,2.406-1.5,3.459,3.459,0,0,0-.444-2.856c-0.412.152-.564,0.722-1.095,0.673a2.146,2.146,0,0,1-1.5-.885,1.17,1.17,0,0,0,.109-0.206c0.585-.076,1.116.429,1.713,0.174,0.3-.13.346-0.5,0.65-0.63a5.426,5.426,0,0,1,1.213-.19c0.38-.049,1.1-0.505.38-1.021a0.909,0.909,0,0,1-.542-0.608c0.8-.624,1.441.2,2.189,0.206s-0.076-1.238.639-1.488a3.476,3.476,0,0,1,.856-0.016c0.044-.038.065-0.082,0.1-0.114a2.06,2.06,0,0,1-.737-0.934,0.927,0.927,0,0,1,.347-0.081,0.93,0.93,0,0,1,.1-0.125,1.071,1.071,0,0,0-.78-0.815c-0.466-.141-0.455.826-0.867,0.554a2.409,2.409,0,0,0-.835-0.5c-0.649.673-.649-0.054-0.649-0.065,0-.217,0-0.217.747-0.771a1.258,1.258,0,0,0-.682-0.445,0.884,0.884,0,0,0,0-.163c0.043-.022.129-0.092,0.194-0.12,0.315-.13.64,0.185,0.965,0.054a2.063,2.063,0,0,0,.52-0.624,1.336,1.336,0,0,0,1.68.2c0.184-.755-1.073-0.38-1.4-0.9,0.791-.5,1.517.869,2.3,0.12,0-.277-0.12-0.532-0.131-0.815a1.8,1.8,0,0,1,.6.049,0.458,0.458,0,0,1,.044-0.152,3.265,3.265,0,0,1-.7-1.113c0.423,0.038.51,0.684,1.029,0.57,0.163-.467-0.129-0.95.044-1.417,0.238-.076.238-0.076,0.531-1.021a0.645,0.645,0,0,0-.737-0.391,5.1,5.1,0,0,1-2.568-.336,1.43,1.43,0,0,0,.076-0.131,5.516,5.516,0,0,0,1.885-.054c0.185-.087.3-0.348-0.011-0.7a3.814,3.814,0,0,0-.65-0.483,19.517,19.517,0,0,0-3.37-1.1c0.086,0.06.2,0.136,0.292,0.19a5.8,5.8,0,0,1-.649-0.234,4.473,4.473,0,0,0,.443.255c-0.1-.022-0.216-0.065-0.325-0.1a0.393,0.393,0,0,1,.033.25,12.85,12.85,0,0,1-2.092-.673,1.581,1.581,0,0,1,.152.228,1.757,1.757,0,0,0-.422-0.136c-0.065.212-.065,0.212,0.552,0.592a6.833,6.833,0,0,0-1.387-.369L387.2,1.678a2.743,2.743,0,0,1,.639.4c-0.043.032-.065,0.071-0.108,0.1a1.982,1.982,0,0,1-.683-0.522,0.343,0.343,0,0,1-.358-0.141c-0.021.022-.075,0.055-0.108,0.087-0.357-.185-0.357-0.185-0.5-0.087a2.094,2.094,0,0,1,.281.364c-0.043.006-.1,0.017-0.14,0.022-0.25-.185-0.25-0.185-0.413-0.125a1.762,1.762,0,0,1,.185.391,0.666,0.666,0,0,1-.379-0.239c-0.1.206-.217,0.4-0.325,0.6,0.335,0.467,1.018.38,1.332,0.836a0.328,0.328,0,0,1-.043.136,2.937,2.937,0,0,1-1.333-.853,1.472,1.472,0,0,0-.152.261,2.063,2.063,0,0,1-.6-0.673,0.576,0.576,0,0,0-.249-0.043,0.358,0.358,0,0,0-.065.271,2.719,2.719,0,0,0-.693.326,0.789,0.789,0,0,1,.509.457,0.544,0.544,0,0,1-.076.119c-0.249-.032-0.639-0.472-0.791-0.119-0.271.005-.369-0.315-0.65-0.294a18.125,18.125,0,0,0-2.287.576,0.589,0.589,0,0,0-.466.522c0.39,0.141.683-.429,1.095-0.2a9.191,9.191,0,0,0-.759.646c0.423-.054.8-0.331,1.225-0.424l0.086-.011,0.011,0.017c0.022,0.016.054,0.054,0.087,0.087-0.488.809-1.777,0.31-2.146,1.331,1.3,0.152,2.406-.641,3.663-0.647a0.9,0.9,0,0,0,.087.131c-0.336.652-1.149,0.787-1.517,1.385a6.333,6.333,0,0,0,2.178.108c0.314-.6.314-0.6,0.477-0.651a0.749,0.749,0,0,0,.076.629c2.6,0.18,2.774-.749,2.86-1.194,0.065-.293.109-0.581,1.247-0.836a1.3,1.3,0,0,1,.065.114c-0.25.32-.781,0.4-0.791,0.918a4.014,4.014,0,0,1,.769.283,1.365,1.365,0,0,1-.812.386,1.614,1.614,0,0,0,.292.206l-0.011.146c-0.4.12-3.576,0.728-3.576,0.717,0.412,1.173,2.048.744,2.5,1.9-1.279,1.173-2.145-1.238-3.37-1.509-2.406-.522-2.406-0.522-2.395.532a1.123,1.123,0,0,0-.379.364,0.539,0.539,0,0,1,.108.108c0.477-.038,1.246-0.1,1.55,2.308,0.748,0.462,1.56-.239,2.33.119-0.044.3-.282,1.271-0.282,1.271a13.617,13.617,0,0,1-2.038-.663,2.38,2.38,0,0,0-2.177-.108c-0.543.147-2.84,2.215-2.526,2.628a0.955,0.955,0,0,0,.824.277c0.52-.19.7-0.777,1.2-0.994,0.173,1.282.921,0.359,0.921,0.348,0.834-1.069.834-1.069,1.04-1.043v1.771c-0.3.614-1.105,0.614-1.474,1.162,0.694,1.07,1.821-.282,2.677.2a1.871,1.871,0,0,1-1.647.82,2.274,2.274,0,0,0-.585.108c-1.192.337-1.149-1.455-2.178-1.5-1.6-.065-2.395-0.092-2.211,1.043a2.615,2.615,0,0,1,1.127.554c-0.271.662-.38,0.673-1.366,0.706-3.8.131-3.554,2.71-3.554,2.737,0.65,0.185,1.062-.554,1.691-0.4C374.236,20.63,374.453,21.808,375.19,20.923Zm16.136-1.678c-0.109-.82-0.521-0.842-0.64-0.852a2.192,2.192,0,0,0-.9.271,1.636,1.636,0,0,0,.552,1.184C390.361,19.848,391.51,20.576,391.326,19.245Zm-1.344,1.564h0c-0.639.451-.358,0.809-0.271,0.907a7.1,7.1,0,0,0,.737.4c0.206,0.136.4,0.288,0.607,0.408a0.177,0.177,0,0,0,.076.043,0.385,0.385,0,0,0,.27.087c0.3,0.043.391-.6,0.391-0.76-0.033-.63-1.073-1.059-1.778-1.086Zm9.677-19.631c0.109,0.011.206,0.054,0.325,0.065,0.174,0.022.337,0.038,0.521,0.06C400.256,1.265,399.909,1.216,399.659,1.178Zm116.855,45.35a4.114,4.114,0,0,0,.737,1.45c-0.065.19-.174,0.44-0.26,0.63-2.851-2.161-2.851-2.161-3.652-2.3,0.054,0.217.119,0.494,0.173,0.711-2.655-.239-3.793-2.748-5.808-3.921,0-.217-0.011-0.5-0.033-0.727a13.389,13.389,0,0,0,3.251.173c-2.828-1.971-6.849-1.178-9.309-4.04,10.609,3.079,10.609,3.079,12.04,3.953,1.56,0.945,4.139,2.547,5.939,2.042-2.569-1.8-2.569-1.8-3.067-2.455,5.906,2.862,5.906,2.862,6.209,2.9-1.17-.869-7.2-5.181-9.915-5.442a5.186,5.186,0,0,1,1.018,1.048c-4.074-1.553-7.532-4.67-12.17-4.762,0.1,0.2.239,0.456,0.336,0.662-1.69-.782-2.817-2.628-4.92-2.65,0.109,0.174.272,0.4,0.39,0.576-0.032-.011-6.263-1.922-7.4-3.182a9.611,9.611,0,0,0,1.431-.033c-0.272-1.129-1.431-1.509-1.984-2.389,5.776,1.542,5.776,1.542,6.058,1.369a7.283,7.283,0,0,0,1.474.266c-6.871-6.566-8.941-5.767-9.71-5.469h0l-0.022.006h0l-0.021.006h0V24.942h-0.011s-0.011,0-.163.016c-1.582-.342-2.915-1.379-4.541-1.569,0.184,0.13.423,0.3,0.6,0.434-2.363-.673-2.363-0.673-3.208-1.173a5.929,5.929,0,0,0,1.615-.092,38.148,38.148,0,0,1-4.877-1.477c4.736,0.983,4.736.983,5.364,0.961-5.549-3.16-12.115-2.987-17.826-5.517,0.162-.065.411-0.174,0.606-0.26-0.162-.174-0.4-0.418-0.585-0.614a23.407,23.407,0,0,0,2.85.4c-2.2-.961-10.956-3.427-13.644-3.633,1.322,0.554,2.731.912,4.021,1.575L435.258,6.956l0.727,0.054c-2.992-.717-2.992-0.717-3.848-0.6,0.25,0.087.6,0.206,0.856,0.293a27.891,27.891,0,0,1-4.345-1.075,8.381,8.381,0,0,0,1.571,0,32.372,32.372,0,0,0-3.337-.678l-0.174.168h-0.2a10.394,10.394,0,0,1-1.842-.44c0.206-.033.487-0.071,0.7-0.109-0.672-.179-1.42-0.391-4.866-1.075-0.531-.092-1.062-0.168-1.593-0.245s-1.062-.173-1.6-0.239c-0.531-.087-1.062-0.163-1.571-0.25-0.553-.076-1.084-0.141-1.605-0.217-1.506-.141-1.722-0.141-2.514-0.18l-0.011.006h-0.021l0.358,0.1a17.2,17.2,0,0,1,3.4.739c-1.008-.169-1.983-0.326-2.98-0.467,7.337,1.423,7.77,1.51,9.223,2.064-11.1-2.27-11.1-2.27-12.745-2.357,4.4,0.9,4.4.9,5.147,1.206-1.625-.277-3.229-0.717-4.865-1.015-0.141.157-.325,0.38-0.456,0.548-2.925-.516-5.711-1.667-8.691-1.944-1.278-.141-2.2-0.228-10.435-1,0.628,0.076,1.278.152,1.928,0.228-0.26-.011-0.563-0.043-0.813-0.054,2.114,0.337,4.249.636,6.362,1.038-1.463-.2-2.926-0.408-4.389-0.592,2.026,0.581,4.172.467,6.209,1.064-0.823-.12-0.823-0.12-2.362-0.239,2.959,0.5,3.641.641,5,.945C399.2,2.275,399.2,2.275,398.6,2.221c4.021,0.874,4.021.874,4.823,1.1-5.256-1.075-5.538-1.064-6.351-1.043,3.533,0.9,3.6.94,4.692,1.478a8.485,8.485,0,0,0-1.473-.185c0.227,0.119.531,0.288,0.78,0.413a40.036,40.036,0,0,0-4.465-1.4,6.479,6.479,0,0,0-.412.554c0.466,0.152,1.084.391,1.518,0.587a4.3,4.3,0,0,0-1.539-.108c1.961,0.836,1.961.836,2.427,1.721l-0.747.055a3.453,3.453,0,0,1-.272,1.439c0.25,0.6.651,1.5,3.274,0.782,0.378,1.135,1.766,1.711,1.69,3.079-2.818.212-2.818,0.212-3.283,1.2-0.206.027-.478,0.082-0.683,0.12-0.12.18-.282,0.424-0.391,0.6a10.558,10.558,0,0,0-1.376.049c-0.087.2-.173,0.451-0.249,0.652,0.5,0.94.552,0.988,2.146,2.14,0.108-.18.249-0.413,0.347-0.592,1.321,0.7,1.321.7,2.015,0.494,1.214,0.836,1.214.836,1.983,0.793,0.141-.147.326-0.364,0.466-0.511,1.019,0.7,1.019.7,2.081,0.445,0.087-.207.217-0.484,0.325-0.7a4.825,4.825,0,0,1,1.593,1.406c-0.076.222-.163,0.521-0.249,0.755-2.027.858-4.3-1.092-6.275,0.575,0.022,0.011,3.262,1.3,4.834.978,0.1,0.185.227,0.445,0.325,0.63-0.163.119-.423,0.271-0.575,0.391,0.5,1.385.5,1.385,4.476,2.064-0.065-.2-0.184-0.467-0.249-0.662,0.184,0.032.455,0.054,0.661,0.076,0.1-.179.249-0.413,0.357-0.592a9.267,9.267,0,0,1,1.94.972,10.358,10.358,0,0,1,1.041-.891,1.189,1.189,0,0,0,1.842-.4c1.279,0.9,13.773,5.4,13.882,5.43h0l0.249-.006c1.572,0.234,2.644,1.651,4.28,1.716a19.9,19.9,0,0,0,7.879,5.849c-0.021.44-.076,1.037-0.108,1.488,2.752,1.135,2.752,1.135,3.262,2.84,0.574,0.174.574,0.174,2.33,2.9a7.14,7.14,0,0,1,1.755.277,3.549,3.549,0,0,1-.043,1.434c0.65,0.874,2.308,1.787,3.587,1.113a5.289,5.289,0,0,1-.347-1.64c0.227-.043.52-0.1,0.737-0.152a4.838,4.838,0,0,1,1.008-1.14c2.5,3.269,2.5,3.269,3.63,3.92a1.456,1.456,0,0,1,1.929-.771c0.26,1.5.26,1.5,0.943,2.161,0.466-.108,1.116-0.206,1.572-0.26,1.137,1.3,2.806,1.846,4,3.063-0.043.228-.087,0.543-0.108,0.782-3.522.163-6.318-3.487-10.111-1.9l9.439,3.394c1.6-.234,3.457-0.26,3.609,1.592,1.918,1.151,1.918,1.151,2.351,2.107-0.14.206-.314,0.478-0.444,0.69,1.636,1.95,1.636,1.95,1.16,3.464a7.578,7.578,0,0,1-2.146-.071c-0.054.207-.13,0.478-0.185,0.679,2.146,2.775,2.146,2.775,2.168,4.111,3.121,1,6.5,5.561,6.546,5.6-0.466.022-1.1,0.032-1.528,0.022,5.114,8.8,5.483,8.884,6.252,9.08h0.044l0.011-.005h0l0.01,0.005h0.011l0.011-.005c0,0.011.021,0.011,0.021,0.011h0l0.023-.006h0.043a0.03,0.03,0,0,1,.022,0h0l0.032-.005h0l0.314-.005c5.2,0.5,4.562,6.408,7.911,8.623-0.022-.043-1.235-4.583-0.877-6.332a2.589,2.589,0,0,1,2.655,3.573,9.787,9.787,0,0,1,2.232,1.521,2.643,2.643,0,0,1-1.409.869c-0.542,2.911,3.067,2.933,3.966,4.909,0.976,2.112,2.915,3.563,4,5.6,6.936,1.4,10.35,9.59,18.087,9.427,1.691,1.7,1.691,1.7,2.666,1.646,0.357-1.173-.022-2.362.054-3.536,0.553-.233.553-0.233,4.118,4.5a4.357,4.357,0,0,0,1.149-1.027c0.216-.026.5-0.048,0.726-0.07,0.867,1.162,1.03,2.818,2.514,3.535,1.008-2.091,3.739-.559,4.909-2.291-0.8-1.6-2.406-2.58-3.262-4.139,1.929-6.3-6.708-6.782-7.4-11.833,1.6-.358,1.6-0.358,2.19-1.162-1.29-2.243-.51-5.474-3.349-6.951a2.755,2.755,0,0,1-1.105-.739,6.583,6.583,0,0,1-.26-0.956c0.184-.141.412-0.336,0.574-0.472-0.943-1.977-2.98-2.786-4.389-4.274,0.032-.217.076-0.51,0.1-0.727a11.411,11.411,0,0,0,1.431.076c0.044-.217.109-0.5,0.163-0.706-0.477-.684-1-1.341-1.431-2.036a7.444,7.444,0,0,1,.282-0.858,13.429,13.429,0,0,0,1.571-.3c0.087-.212.228-0.489,0.315-0.706-2.114-2.666-2.114-2.666-2.308-3.692,7.325,1.689,7.325,1.689,8.094,1.721,0.272-.858.315-0.988-0.986-3.541-2.568-5.094-2.568-5.094-1.538-5.962-5.127-4.622-5.127-4.622-5.137-4.665,3.609,1.787,3.609,1.787,4.193,1.9,0.174-.141.39-0.315,0.575-0.45-0.152-.212-0.358-0.489-0.487-0.712,0.043-.228.118-0.532,0.173-0.76,0.476,0.3,1.116.706,1.582,1.032,0.228-.049.488-0.119,0.694-0.158a3.09,3.09,0,0,1-.694-1.406c0.835-.076,1.691-0.081,2.525-0.152,0.26-.989-0.423-1.9-0.26-2.878a6.223,6.223,0,0,0,1.376-.179C519.223,44.03,519.223,44.03,516.514,46.528Zm145.54,79.443c-0.119-.087-0.271-0.2-0.369-0.288,1.528,2.172,2.005,2.748,2.937,2.949a17.6,17.6,0,0,1-1.712-2.14c2.731,2.737,3.955,6.756,7.5,8.787-0.5-.755-1.105-1.455-1.55-2.27,2.482,2.411,4.162,5.468,6.557,7.934-1.225-1.678-2.688-3.166-3.771-4.969,1.268,1.477,2.33,3.134,3.684,4.54a4.074,4.074,0,0,1-.325-0.7c1.647,1.705,2.168,4.431,4.682,5.387a1.823,1.823,0,0,1-.315-0.75c0.889,0.684,7.532,8.787,8.356,10.579-0.109,0-.271,0-0.39.011,0.054,0.087,7.683,11.849,9.114,13.185a2.2,2.2,0,0,1-.391-1.2c2.157,2.367,6.979,11.855,7.023,11.931a1.32,1.32,0,0,0,.834.9c-1-1.95-1-1.95-1.019-2.59a6.34,6.34,0,0,0,.564.559,29.362,29.362,0,0,1-2.5-4.48,13.98,13.98,0,0,0,1.062,1.357,23.678,23.678,0,0,1-1.572-3.264c0.054,0.039.1,0.1,0.152,0.147,1.69,2.716,3.435,5.572,5.2,8.537a11.624,11.624,0,0,0,.715.951c-1.235-2.721-6.524-10.623-8.106-12.991v0c0.043,0.071.1,0.152,0.141,0.239-0.477-.706-0.878-1.292-0.943-1.4,0.065,0.119.162,0.282,0.228,0.4-2.038-2.879-3.967-5.822-6.015-8.684-2.016-2.8-2.417-3.269-2.644-3.518,0.227,0.309.433,0.63,0.639,0.95-16.852-21.684-26.442-31.313-27.645-32.106a3.615,3.615,0,0,0-.347.207c-2.3-2.384-4.356-5.007-6.621-7.429a5.6,5.6,0,0,1,1.084,1.515,1.77,1.77,0,0,0-.293.25C657.871,121.094,660.439,123.142,662.054,125.971Zm-4.3-4.768c-0.585-.641-0.846-0.608-0.922-0.57-0.118.282,4.671,5.816,5.039,6.044C661.826,126.536,658.164,121.67,657.752,121.2Zm15.03,16.97a8.609,8.609,0,0,0,1.041,1.5,2.481,2.481,0,0,0,.834.7,15.531,15.531,0,0,0-1.116-1.4A2.539,2.539,0,0,0,672.782,138.173ZM611.564,89.152a2.09,2.09,0,0,1,.683-0.054c-0.455-.815-1.354-1.271-1.8-2.107a1.31,1.31,0,0,0,.065-0.206c1.159-.456-5.072-6.3-5.148-6.343a49.7,49.7,0,0,0-9.7-6.376,0.977,0.977,0,0,1-.152.087,0.749,0.749,0,0,1,.033.152c-3.078-2.243-3.078-2.243-3.349-2.281a14.9,14.9,0,0,1,2.092,1.917c-1.269-.391-1.94-1.852-3.4-1.9a0.554,0.554,0,0,0-.315.25c0.716,0.815,2.157.706,2.537,1.961-0.662-.3-1.106-1.108-2.006-0.94,0.64,0.75,1.68,1.064,2.124,2.026-0.855-.2-1.376-1.092-2.308-1.113,0.217,0.282.521,0.5,0.759,0.8a2.788,2.788,0,0,0-1.29-.407c0.293,1.379,1.875,1.542,2.471,2.639-1.116-.336-1.918-1.33-3.034-1.662-0.043.043-.1,0.087-0.13,0.12,0.769,1.341,2.622,1.417,3.326,2.846a1,1,0,0,0-.584-0.152c0.39,0.712,1.181,1.1,1.549,1.82a6.021,6.021,0,0,1-2.828-2.026c-1.7-2.227-7.044-3.964-7.521-3.943-0.032.044-.076,0.1-0.12,0.152a4,4,0,0,0,1.594,1.357c1.387,0.858,1.4.923,1.409,1.152-0.672-.147-1.138-0.869-1.94-0.685a0.654,0.654,0,0,0,.14.271c0.716,0.793,1.713,1.25,2.428,2.042,0.509,0.532.6,1.325,1.127,1.841,1.268,1.157,1.788,1.178,2,1.189,0.065-.169.076-0.353,0.13-0.516a1.329,1.329,0,0,1,1.5-.777c0.812,0.331.834,1.26,1.387,1.787,0.585,0.538,1.462.331,2.08,0.809a0.866,0.866,0,0,1,.109.255,5.205,5.205,0,0,0-1.452.57,2.12,2.12,0,0,0,1.452,1.336,1.3,1.3,0,0,1,1.81-.336c0.053,0.032,5.656,3.991,5.732,4.236-0.683.825-.26,1.6,1.257,2.3,0.054-.017.109-0.049,0.163-0.066-0.2-1.374,1.777-1.113,3.067-.211,2.471,1.694,3.674,2.041,4.237,2.036,0.737-.006,2.308-0.223.639-2.091C611.348,89.766,611.4,89.522,611.564,89.152Zm-118.2-73.529c-2.276-.684-5.169-1.553-8.474-2.492-0.163-.038-0.368-0.092-0.531-0.119C487.363,13.875,490.386,14.667,493.366,15.623Zm-8.442-2.487c-0.162-.044-0.661-0.2-1.289-0.364,0.455,0.125.823,0.233,1.257,0.359C484.9,13.136,484.914,13.131,484.924,13.136Zm-23-5.7c-1.734-.359-3.457-0.771-5.212-1.048,0.054,0.016.13,0.038,0.184,0.049-0.694-.12-1.366-0.261-2.048-0.38,1.538,0.315,3.078.663,4.606,0.966a0.744,0.744,0,0,0-.185-0.032c0.467,0.108.932,0.2,1.4,0.293a14.308,14.308,0,0,0-1.831-.315c0.477,0.1.921,0.2,1.365,0.326-0.26-.049-0.52-0.092-0.791-0.141,0.759,0.168,1.528.315,2.265,0.483-0.043-.006-0.13-0.006-0.184-0.006,0.032,0.006,3.815.82,5.343,1.135,1.755,0.4,3.489.809,5.245,1.222,1.018,0.26,3.858.939,4.345,1.043-0.108-.033-0.206-0.06-0.293-0.087,0.618,0.109,1.214.32,1.843,0.435-0.054-.011-0.13-0.027-0.174-0.038-1.072-.287-3.337-0.82-4.822-1.167,0.91,0.211,1.81.445,2.742,0.575,0.52,0.146.932,0.26,0.942,0.26,2.081,0.543,4.162,1.108,6.264,1.657-1.116-.369-2.265-0.619-3.381-0.95a4.97,4.97,0,0,1,.51.125c0.617,0.168,1.224.342,1.831,0.489-0.26-.076-0.531-0.158-0.791-0.233a0.366,0.366,0,0,1,.075.022c-0.043-.022-0.281-0.082-0.584-0.163-0.152-.049-0.325-0.092-0.488-0.141-1.593-.429-3.219-0.869-5.029-1.336-0.888-.228-1.69-0.418-2.2-0.543-0.075-.022-0.162-0.038-0.238-0.054-1.625-.4-3.164-0.787-4.931-1.211-2.893-.678-7.542-1.623-8.041-1.727C460.411,7.108,461.17,7.271,461.928,7.434Zm8.605,1.955c0.715,0.174,1.474.348,2.2,0.532,0.368,0.114,1.549.44,2.568,0.717-1.257-.348-2.546-0.63-3.836-0.966,0.238,0.043.455,0.108,0.672,0.141-0.607-.147-1.236-0.282-1.843-0.445,0.889,0.206,1.745.434,2.645,0.614C472.137,9.775,471.324,9.59,470.533,9.389Zm9.136,2.292c0.162,0.044.292,0.087,0.433,0.131,0.65,0.185,1.387.358,1.994,0.532C480.98,12.039,479.9,11.746,479.669,11.68Zm-20.32-4.86c0.3,0.065.6,0.125,0.878,0.185,0.314,0.071.6,0.125,0.943,0.2C460.552,7.065,459.967,6.94,459.349,6.82ZM448.165,4.654c1.008,0.19,2.027.369,3.045,0.554-1.343-.239-3.6-0.646-4.908-0.847,1.311,0.228,2.611.467,3.912,0.7,0.26,0.054.552,0.1,0.812,0.163-1.019-.163-2.037-0.38-3.077-0.515,0.964,0.19,1.94.331,2.893,0.515-0.357-.06-0.694-0.125-1.04-0.173,1.008,0.2,1.983.326,2.969,0.543-0.206-.032-0.412-0.076-0.617-0.092,0.422,0.1,4.908.924,5.245,0.978-0.369-.114-0.759-0.168-1.127-0.266,1.473,0.266,2.9.619,4.356,0.885-0.141-.027-0.26-0.054-0.4-0.087-4.368-.918-5.115-1.07-8.29-1.667-0.943-.179-1.583-0.3-2.114-0.4,0.163,0.033.325,0.066,0.51,0.1-0.824-.163-1.647-0.3-2.45-0.456,0.39,0.076.76,0.147,1.16,0.222C448.545,4.708,448.285,4.664,448.165,4.654Zm3.772,0.711a0.7,0.7,0,0,1,.173.038c-0.3-.065-0.65-0.12-0.975-0.179C451.4,5.273,451.676,5.316,451.937,5.365Zm-7.293-1.292c0.942,0.163,1.852.32,2.784,0.467-0.238-.054-2.286-0.418-2.719-0.494,0.075,0.022.173,0.038,0.249,0.06-0.434-.049-0.835-0.152-1.268-0.222C443.993,3.959,444.34,4,444.644,4.073Zm-10.48-1.255a0.765,0.765,0,0,1-.13-0.033c0.109,0.011.206,0.033,0.314,0.049-0.433-.2-8.528-1.308-8.593-1.33,0.086,0.043.791,0.228,0.8,0.228Zm-5.191-.88a1.53,1.53,0,0,0-.26-0.071,15.238,15.238,0,0,1,2.016.288c0.552,0.093,1.094.2,1.636,0.239A1.156,1.156,0,0,0,432,2.318c0.173-.011.347,0.044,0.531,0.049-0.488-.108-3.739-0.548-4.563-0.635L427.8,1.721a9.145,9.145,0,0,0,.932.185A1.747,1.747,0,0,0,428.973,1.938Zm-15.594-1.8c-0.043-.022-0.77-0.1-1.192-0.141a0.189,0.189,0,0,1-.033.011,1.634,1.634,0,0,0,.423.06A6.737,6.737,0,0,0,413.379.136Zm7.033,0.8a0.7,0.7,0,0,0-.109,0l1.062,0.13A5.985,5.985,0,0,0,420.412.939ZM419,0.787c-0.737-.141-3.814-0.445-3.858-0.457a0.129,0.129,0,0,1-.065,0c0.022,0.011.054,0.011,0.054,0.017ZM229.075,29.666a13.672,13.672,0,0,0,1.81-.652c0.639-.255,4.7-2.009,5.039-2.2a0.026,0.026,0,0,1,.011-0.022c-0.856.223-7.261,2.862-8.03,3.253a14.818,14.818,0,0,1,1.994-.793A3.668,3.668,0,0,0,229.075,29.666ZM372.849,91.314c0.866-.554,1.582.331,2.394,0.25,2.331-.239,1.366-3.378,3.393-3.883,0.4-.1.726-0.179,3.078,2.362,1.928,2.107,2.839,2.857,3.467,2.862,0.65,0.011,3.132-2.547,3.186-2.721,0.423-1.4-1.343-2.058-4.183-.782-2.113.945-1.094-1.032-.639-1.618a1.034,1.034,0,0,0-.206-1.6c-0.563-.424-1.3-0.543-1.832-1.021-0.812-.744-1.213-1.846-2.124-2.52a3.89,3.89,0,0,0-1.961-.8,4.233,4.233,0,0,1-1.431-.678c-0.942-.82-1.018-3.318-2.644-2.645a4.032,4.032,0,0,0-1.181.858c-1.03,1-1.42.635-1.549,0.434-0.662-1.01,1.018-3.063-.554-3.291a1.974,1.974,0,0,0-1.918,1.488,11.9,11.9,0,0,1-.509,2.688c-0.3.64-1.04,0.841-1.409,1.417-1.019,1.672.477,3.72-.78,5.365a4.5,4.5,0,0,1-2.395,1.385c-1.073.277-1.246,0.32-1.268,0.934-0.087,1.7,2.7,1.141,5.689.538a1.089,1.089,0,0,1,1.312.673c0.412,0.869-.076,1.835.3,2.7,0.173,0.429,1.387.478,1.993,0.369a1.575,1.575,0,0,0,1.246-1.64,1.376,1.376,0,0,1,.358-1.01A0.849,0.849,0,0,1,372.849,91.314Zm3.934,8.667a11.665,11.665,0,0,0,1.722-1.232c0.748-.559,1.659-0.842,2.428-1.368a0.783,0.783,0,0,0,.39-0.5,3.3,3.3,0,0,0-.422-1.569,0.969,0.969,0,0,0-.976-0.326c-0.715.033-1.387,0.293-2.091,0.375-0.315.027-.618-0.06-0.922-0.006a1.288,1.288,0,0,0-.812.364,10.66,10.66,0,0,0-1.214,1.917,7.044,7.044,0,0,0-.033,2.292C375.016,100.285,376.078,100.317,376.783,99.98Zm23.667-9.655c-1.073.043-1.051,0.652-.932,0.88,0.336,0.733,2.677,1.58,2.905,1.064,0.162-.364-0.694-1.352-0.824-1.466A1.28,1.28,0,0,0,400.45,90.325Zm-4.984,2.389a0.849,0.849,0,0,0,.725,1.217,3.732,3.732,0,0,0,2.959-.652V93.247a7.583,7.583,0,0,0-2.774-1.282A1.053,1.053,0,0,0,395.466,92.715Zm-4.823,11.513c1.918-1.667,2.005-1.732,2.027-2.422,0.043-.478-0.347-3.046-2.753-3.139a2.471,2.471,0,0,0-.39.033,6.2,6.2,0,0,0-1.171,3.334,1.491,1.491,0,0,0,.228.69c0.065,0.147.271,0.3,0.347,0.44a4.868,4.868,0,0,1,.477.8,5.029,5.029,0,0,0,.3.4C390.047,104.694,390.318,104.482,390.643,104.227Zm3.966,6.066a0.556,0.556,0,0,0,.4.2c0.456,0.081.9,0.07,1.355,0.13,0.325,0.038.65,0.119,0.975,0.168a0.281,0.281,0,0,0,.314-0.086,3.477,3.477,0,0,0-1.516-1.472C394.988,109.43,394.316,109.9,394.609,110.293ZM448.87,102.3c-0.715.972-1.333,1.82-.542,2.515a7.629,7.629,0,0,0,2.547,1.259c0.7-.021.769-1.363,0.769-1.373C451.557,103.907,449.4,102.576,448.87,102.3Zm-10.534,9.476c-1.137.191,0.228,2.037,0.759,2.407a0.507,0.507,0,0,0,.422.108,4.457,4.457,0,0,0,.662-0.212,2.264,2.264,0,0,1,.292-0.076,0.349,0.349,0,0,0,.119-0.043,0.36,0.36,0,0,0,.228-0.489,3.11,3.11,0,0,0-.52-1.369,2.459,2.459,0,0,0-1.506-.347A2.628,2.628,0,0,0,438.336,111.775Zm-55.322,52.97a3.242,3.242,0,0,0-2.753,1.368c-0.249.527,0.184,0.717,0.683,0.945l5.625,2.075a0.88,0.88,0,0,0,.584.086c0.217-.347-0.975-2.595-1.712-3.367A3.4,3.4,0,0,0,383.014,164.745Zm7.867-18.692a2.033,2.033,0,0,0,.152.522,1.1,1.1,0,0,1,.087.146c0.65,0.831,1.311.011,2.731-1.765,1-1.222,1.322-1.629,1.961-.766a0.633,0.633,0,0,0,1.138-.32,2.793,2.793,0,0,0-.444-2,4.619,4.619,0,0,0-2.839-.825,10.522,10.522,0,0,0-1.973.152,1.58,1.58,0,0,0-.379.4,6.885,6.885,0,0,1-.748.619c-0.325.25-.715,0.37-1.04,0.63a1.255,1.255,0,0,0-.3.38,0.493,0.493,0,0,0-.021.391,15.527,15.527,0,0,0,1.344,1.347A2.048,2.048,0,0,1,390.881,146.053Zm-1.289-7.169a2.5,2.5,0,0,0,1.441.4,0.442,0.442,0,0,0,.293-0.538c0.032-.678-0.412-1.086-1.322-1.227C389.386,138.146,389.386,138.646,389.592,138.884Zm68.684-85.8a3.413,3.413,0,0,0,1.8.847c0.455,0.022.195-.63,0.553-0.771,0.054-.022,1.116-0.467,1.5,1.347a1.32,1.32,0,0,0,.315.836,2.293,2.293,0,0,0,.932.1c0.574-.217-0.066-1.184.553-1.211,0.519-.027,1.018.359,1.528,0.005a0.428,0.428,0,0,0-.066-0.255,7.537,7.537,0,0,0-1.842-1.873c-0.8-.391-1.712-0.467-2.514-0.793-0.661-.261-1.312-0.559-1.961-0.793a0.8,0.8,0,0,0-.141-0.054,2.717,2.717,0,0,0-.8-0.108,0.88,0.88,0,0,0-.747.294,1.3,1.3,0,0,0,.216.657,1.529,1.529,0,0,1-.194.548C457.279,52.355,458.092,52.958,458.276,53.083Zm55.377,124.348a3.311,3.311,0,0,1-.141.858c-0.119.314-.184,0.32-0.759,0.483-2.449.668-2.914,1.8-4.486,5.545-0.878,2.063-.878,2.063.716,5.745a1.527,1.527,0,0,1,.151,1.243c-0.38.652-1.236,0.75-1.636,1.375-0.065.113-.065,0.113-0.044,3.953,0.022,1.341-1.755.9-2.08,1.955a10.174,10.174,0,0,0-.087,1.52c0.184,1.7,2.59.261,3.251,1.651a1.343,1.343,0,0,1-.5.516c-2.2,1.472-5.049,6.685-3.955,7.244,1.853,0.935,1.853.935,4.411-.9a2.2,2.2,0,0,1,1.56-.511c1.311,0.114,2.46.825,3.76,0.972a6.6,6.6,0,0,0,4.888-1.705c1.452-1.613,2.764,1.428,4.27,1.754a4.977,4.977,0,0,1,1.029-.826,1.088,1.088,0,0,1,1.582,1.032c-0.292,1.847-1.907,2.987-2.514,4.654,0.043,0.087.108,0.2,0.152,0.3,0.022,0,2.731.63,3.034,0.347a13.334,13.334,0,0,0,1.225-4.572,3.6,3.6,0,0,1,1.8-3.345c0.618,0.3,2.85,4.366,2.753,6.408,0,0.032.043,2.8,2.459-.109,0.868-1.043,1.485,1.216,2.255,1.76,1.582,1.118,1.831-6.631,1.755-7.114a1.238,1.238,0,0,0-.249-0.457c-1.3.1-1.2,3.014-2.341,2.064-1.614-1.314.434-3.335-.878-4.714-1.311.147-.671,1.814-1.658,2.249-0.163.076-2.546,0.363-2.687-1.51-0.141-1.722,1.755-1.868,2.319-3.047a3.6,3.6,0,0,0,.227-2.318c-0.26-.316-0.26-0.316-1.853.287-1.549.592-2.817-2.177-2.817-2.21-0.423-1.14.737-1.553,1.083-2.351,0.26-.658-1.636-3.047-1.669-3.058-1.073-.239-1.636,1.146-2.709.891-0.889-.2-1.148-1.466-2.254-1.233-0.9.179-.563,1.374-1.355,1.667-0.7-.39-1.213-1.151-2.112-1.189-1.019-.038-2.06,1.1-3.035.071-0.206-.228-1.886-2.107,1.658-2.249-0.011-.032-2.72-3.095-3.685-2.932-0.108.217-.14,0.467-0.238,0.706-0.293.766-1.7,1.363-2.048,0.119-0.249-.977.552-2.835,1.04-3.931A8.481,8.481,0,0,0,513.653,177.431Zm-14.9,38.138a1.357,1.357,0,0,0-1.279.95,1.161,1.161,0,0,0-.075.326c0,0.516,0,.516-0.727,2.52a33.953,33.953,0,0,0-1.3,3.432,1.168,1.168,0,0,0,.184.956,1.739,1.739,0,0,0,2.374-.087,31.4,31.4,0,0,0,2.1-6.875A1.212,1.212,0,0,0,498.752,215.569Zm3.035,9.878a14.978,14.978,0,0,0,.834-1.4c0.271-.375.661-0.614,0.932-0.994a0.705,0.705,0,0,0,.141-0.163,1.412,1.412,0,0,0,.206-0.869c0-.028-0.434-2.867-1.344-3.063a1.815,1.815,0,0,0-1.225,1.3c0.716,1.2.445,2.075-.7,2.362a0.823,0.823,0,0,0-.758.756,4.678,4.678,0,0,0,.563,2.2A0.865,0.865,0,0,0,501.787,225.447ZM487.341,218.9c-0.531-.006-1.04.135-1.55,0.147a3.264,3.264,0,0,1-3-1.543c-0.651-1.206-1.182-1.678-1.951-1.748-1.55.179-1.138,3.225-1.127,3.258a1.714,1.714,0,0,0,1.625.494,0.93,0.93,0,0,1,.943.12,9.376,9.376,0,0,1,.954,1.341c1.474,1.536,5.169,1.808,5.678,1.8,1.192-.032,1.16-1.775,1.138-1.971a1.736,1.736,0,0,0-.921-1.526c-0.152-.076-0.357-0.141-0.509-0.2A3.529,3.529,0,0,0,487.341,218.9ZM420.575,434.25a0.729,0.729,0,0,1,.693.011c2.731,1.3,4.552.967,5.386-1.021,0.607-1.423-2.265-3.622-2.286-3.649-0.163-.093-0.358-0.207-0.51-0.283-1.734-.874-3.749.038-5.483-0.842-1.94-.972-2.58-3.372-4.639-4.2-0.856-.337-1.679.13-2.524,0.1-1.539-.044-2.006-1.309-2.309-2.482a3.025,3.025,0,0,0-.921-1.754c-0.444-.3-0.444-0.3-3.977-0.581-1.734-.141-1.311-2.292-2.622-2.824-1.745-.7-3.62.027-5.4-0.51-2.763-.826-2.525-4.747-5.494-5.366-7.564-1.586-15.28-.228-22.866-1.195a8.152,8.152,0,0,0-3.077,1.619c-1.2,1.151-.986,2.976-1.973,4.236-0.964,1.243-2.774,1.07-3.782,2.259a0.862,0.862,0,0,0-.141.412c-0.455,1.8,4.27,2.01,7.12-.928,2.547-2.607,6.372-6.56,10.566-4.209,0.065,1.727.065,1.727,2.276,2.645,1.506,0.624,3.6,1.482,4.378.733a1.487,1.487,0,0,1,1.918-.288c1.756,0.755,2.1,2.873,3.642,3.834a12.673,12.673,0,0,0,5.342,1.331c1.68,0.059,3.587.125,6.058,4.105,1.875,3.052,5.667,2.33,8.182,4.111,2.2,1.564-.889,4.3-1.246,4.6a1.267,1.267,0,0,0-.651,1.114c0.1,0.282.813,1.015,2.807,0.825C419.816,435,419.816,435,420.575,434.25ZM369.11,419.816c-0.021.016-.78,1.314-0.314,1.954,0.6,0.783,3.316.185,3.522-.787,0.151-.7-1.236-1.352-2.222-1.406A1.582,1.582,0,0,0,369.11,419.816Zm34.277,26.626c-2.069.879-2.438,1.639-2.384,2.112,0.054,0.684,3.5,2.824,3.533,2.84a1.663,1.663,0,0,0,1.365.244,0.591,0.591,0,0,1,.336.006c0.716,0.293,1.138,1,1.854,1.319a0.27,0.27,0,0,0,.13.038,30.538,30.538,0,0,0,6.3-1.585c1.019-1.157-4.086-4.068-4.161-4.095C409.6,446.99,409.553,446.963,403.387,446.442Zm60.395,1.677c0.725-.135,1.343-1.857,1.43-2.291,0.271-1.483-1.82-2.976-1.9-3.036-1.29-.913-2.764.071-4.086-0.4a3.767,3.767,0,0,1-.585-1.243c-0.6-1.358-6.232-4.388-6.286-4.42a9.764,9.764,0,0,0-2.4-.614c-2.655-.277-5.007,1.358-7.63,1.243-2.351-.1-3.966-2.182-6.285-2.335-2.417.1-3.468,1.874-3.262,2.439,0.542,1.542,2.568-.261,3.24,1.221s0.466,3.286,1.626,4.584a3.727,3.727,0,0,0,.964.722,4.479,4.479,0,0,1,.922.793c1.462,1.922-1.908,2.341-10.025,1.255-1.278-.18-4.205-0.218-2.525,1.618,2.579,2.813,4.649,2.33,5.636,1.792a11.656,11.656,0,0,1,7.759-1.021,9.455,9.455,0,0,1,3.067,1.51c0.682,0.591.649,1.536,1.159,2.21,0.184,0.249,1.2,1.444,2.146.391,1.181-1.331.964-3.172,1.69-4.67,0.672-1.428,1.333-1.733,2.081-.956,1.951,2.036,3.273,1.922,3.749,1.776a1.58,1.58,0,0,0,1.03-.907c0.769-1.494,3.4-1.478,4.909-1C461.43,447.163,462.34,448.4,463.782,448.119Zm18.064,0.2a16.046,16.046,0,0,0-5.114-1.113c-2.287.179-2.742,1.77-2.645,2.335,0.423,2.558,7.727,2.465,9.006.646C483.093,450.177,483.689,449.184,481.846,448.315Zm-76.714-51.166a6.135,6.135,0,0,0-.39-1.037c0-.028-1.3-2.384-2.644-2.8a0.992,0.992,0,0,0-.737.4,2.211,2.211,0,0,0,.022,1.206c0.205,1.172.26,1.455,0.064,1.65a0.966,0.966,0,0,1-.617.168c-0.347,0-1.279,0-.835.793a3.015,3.015,0,0,0,1.257.967,9.772,9.772,0,0,1,1.474,1.032c0.791,0.673,1.506,1.515,2.309,2.188,0.076,0.044.14,0.12,0.2,0.163a0.57,0.57,0,0,0,.965-0.391c0.314-1.184-.52-2.075-0.792-3.106-0.053-.239-0.108-0.554-0.184-0.793A2.124,2.124,0,0,0,405.132,397.149Zm0.444-18.649a9.8,9.8,0,0,0-2.785.467,2.152,2.152,0,0,1-1.939,1.146,3.424,3.424,0,0,1-2.222-.483,1.509,1.509,0,0,0-.585-0.223c-1.149-.184-2.233,1.5-0.542,2.156,0.975,0.37,4.237,1.444,5.364-.326,0.39-.6.6-0.9,1.159-0.782a13.789,13.789,0,0,1,2.937,1.629c0.7,0.766.651,1.206,0.38,2.4a2.6,2.6,0,0,0,.195,1.727c0.7,0.934,1.961-1.646,2.124-2.27,0.325-1.553-1.9-4.584-1.918-4.611C407.538,379.049,407.147,378.522,405.576,378.5Zm6.285,12.452c-0.238.027-.9,0.109-0.693,0.7,0.3,1,1.431,1.26,1.94,2.063,0.347,0.576-.119,1.239.228,1.8,0.931,1.451,2.47.142,2.687-1.091C416.272,392.994,413.162,391.034,411.861,390.952Zm15.454,22.336a1.376,1.376,0,0,0,.726.462,11.853,11.853,0,0,0,1.366.315,1.953,1.953,0,0,1,.867.4,9,9,0,0,1,.531,1.069c0.032,0.022,1.842,1.537,2.232-.912a1.5,1.5,0,0,0-.434-1.608,8.5,8.5,0,0,0-3.348-.879l-0.032,0h0v0l-0.022,0C427,412.213,427.207,413.038,427.315,413.288Zm-8.983-15.281a0.359,0.359,0,0,0-.358.543,5.476,5.476,0,0,0,.7.825c0.325,0.4.585,0.837,0.91,1.238,0.131,0.174.5,0.62,0.564,0.006C420.217,400.147,419.621,398.115,418.332,398.007Zm-2.081,5.675c-0.456.043-.791,1.1-0.813,2.557h0v0.006h0c0.151,0.451,2.091,1.281,2.308.174a1.351,1.351,0,0,0-.195-0.864C416.619,403.872,416.489,403.719,416.251,403.682Zm17.3,20.391c-0.51.608-.835,1.618-0.466,2.053,0.39,0.5,1.734-.071,1.809-0.125a3.531,3.531,0,0,0,.846-1.754c0.076-.511-0.391-0.543-0.64-0.554A3.6,3.6,0,0,0,433.547,424.073ZM421.875,409.78a1.058,1.058,0,0,0,.943.38c1.387,0.044,1.452-.179,1.474-0.293,0.076-.369-0.7-1.51-2.623-1.526A2.719,2.719,0,0,0,421.875,409.78Zm5.961-7.711c0.1-.435-0.835-1.51-2.569-1.521a2.512,2.512,0,0,0,.206,1.434,1.058,1.058,0,0,0,.932.369C427.77,402.4,427.813,402.172,427.836,402.069Zm-4.39,5.121a0.366,0.366,0,0,0,.391-0.255,1.59,1.59,0,0,0-1.41-1.119c-0.845.412-1.094,1.107-.9,1.39a0.3,0.3,0,0,0,.293.13,5.544,5.544,0,0,0,.65-0.065C422.774,407.228,423.121,407.228,423.446,407.19Zm64.111,44.817a0.732,0.732,0,0,0,.456.256c0.076,0,.9.011,1.181-0.016a0.574,0.574,0,0,0,.575-0.538,0.911,0.911,0,0,0-.944-1.113C487.557,450.656,487.232,451.579,487.557,452.007Zm-81.331-58.7a0.8,0.8,0,0,0,.488.255c0.13,0.022,1.1.049,1.236,0.044a0.567,0.567,0,0,0,.628-0.527,1.032,1.032,0,0,0-1.1-1.162C406.226,391.947,405.891,392.858,406.226,393.3Zm93.512,57.666a1.014,1.014,0,0,0-.953,1.5c0.151,0.245,1.55,1.819,1.7,1.244a1.874,1.874,0,0,0-.173-0.82,3.965,3.965,0,0,1-.184-0.63c-0.076-.358-0.044-0.744-0.152-1.1A0.2,0.2,0,0,0,499.738,450.97Zm1.181,4.719c-0.238.017-1.6,0.37-1.029,1.418,0.152,0.277,1.56,1.863,1.734,1.265a1.568,1.568,0,0,0-.184-0.787c-0.022-.087-0.109-0.337-0.174-0.636-0.075-.353-0.054-0.722-0.141-1.07C501.071,455.706,501.017,455.689,500.919,455.689Zm-57.294-37.552a0.331,0.331,0,0,0-.141-0.341c-0.271-.294-0.618-0.5-0.9-0.777s-0.51-.614-0.759-0.891a0.327,0.327,0,0,0-.217-0.125,1.3,1.3,0,0,0-.758,1.195,1.021,1.021,0,0,0,.6.668C442.7,418.3,443.506,418.322,443.625,418.137Zm-5.744-.841a0.554,0.554,0,0,0-.195-0.38c-0.379-.391-0.856-0.685-1.246-1.081-0.282-.277-0.477-0.635-0.759-0.918a0.229,0.229,0,0,0-.076-0.054,0.244,0.244,0,0,0-.162-0.087,1.446,1.446,0,0,0-.8,1.7,2.164,2.164,0,0,0,1.528.81C437.361,417.589,437.827,417.491,437.881,417.3Zm51.66,86.709c-0.542.179-1.095-.179-1.669,0a0.293,0.293,0,0,0-.217.391c0.206,0.608,1.691,1.64,3.826,1.455a1.311,1.311,0,0,0,1.04-.456,5.2,5.2,0,0,0,.672-1.472,1.883,1.883,0,0,1,.108-0.25,3.112,3.112,0,0,0-1.745-.586C490.776,503.13,490.278,503.8,489.541,504.005Zm-7.076,1.759a0.628,0.628,0,0,0,.325.239,6.854,6.854,0,0,0,1.18.266,0.527,0.527,0,0,0,.478-0.511c0.173-1.1-1.062-1.536-1.431-1.65A1.175,1.175,0,0,0,482.465,505.764Zm23.158-45.557a0.8,0.8,0,0,0,.065-0.211,0.82,0.82,0,0,0-.976-0.624,2.285,2.285,0,0,0-1.159.428,2.877,2.877,0,0,0,.6,1.662c0.369,0.494.628,0.473,0.726,0.38a0.573,0.573,0,0,0,.152-0.309,3.236,3.236,0,0,1,.163-0.484c0.118-.277.292-0.516,0.411-0.781A0.168,0.168,0,0,0,505.623,460.207Zm1.279,35.76a0.5,0.5,0,0,0-.466-0.695,2.06,2.06,0,0,0-1.236.619,1.817,1.817,0,0,0-.314,1.635c0.206,0.283.726-.038,1.138-0.363A2.1,2.1,0,0,0,506.9,495.967Zm10.154-6.109c0.043,0.076.2,0.331,1.1-.391a2.137,2.137,0,0,0,.867-1.2,0.483,0.483,0,0,0-.455-0.674,1.7,1.7,0,0,0-1.257.674A1.786,1.786,0,0,0,517.056,489.858Zm-7.358-2.617c0.086-.56-0.206-0.679-0.466-0.679a1.975,1.975,0,0,0-1.225.6,1.8,1.8,0,0,0-.314,1.662C508.007,489.283,509.557,488.072,509.7,487.241Zm1.82-3.84a2.276,2.276,0,0,0,.867-1.222,0.5,0.5,0,0,0-.455-0.689,1.941,1.941,0,0,0-1.257.689,1.666,1.666,0,0,0-.26,1.6C510.478,483.879,510.64,484.118,511.518,483.4ZM508.5,457.514a0.515,0.515,0,0,0-.466-0.706,1.724,1.724,0,0,0-1.268.69,1.75,1.75,0,0,0-.217,1.635c0.195,0.3.715-.022,1.105-0.337A2.238,2.238,0,0,0,508.5,457.514Zm3.771,19.767c0.022-.223-0.162-1.319-1.756-1.3a2.671,2.671,0,0,0-.325.038,3.314,3.314,0,0,0,.466,1.857C511.182,478.628,512.19,477.765,512.266,477.281Zm-1.2-9.683c0.087-.548-0.412-1.314-1.745-1.3-0.119,0-.227.017-0.379,0.028a3.832,3.832,0,0,0,.509,1.9C509.969,468.951,510.987,468.191,511.063,467.6Zm-1.116,4.915c0.054-.369-0.271-1.352-1.767-1.336a2.958,2.958,0,0,0-.347.049,3.5,3.5,0,0,0,.478,1.874C508.82,473.806,509.882,473.067,509.947,472.513Zm-1.572-7.266c0.044-.358-0.3-1.352-1.809-1.341a2.378,2.378,0,0,0-.347.032,3.651,3.651,0,0,0,.564,1.988C507.292,466.561,508.289,465.807,508.375,465.247Zm-3.229,44.085a1.657,1.657,0,0,0-.575.646c0,0.571,4.671.326,5.333-.255a1.687,1.687,0,0,0,.422-1.021c0.087-.945-0.054-1.884-0.022-2.835,0.1-1.8.694-2.269,1.3-2.509a2.647,2.647,0,0,0,1.42-.928c0.259-.472-0.055-0.538-0.217-0.57a18.57,18.57,0,0,0-1.951.261,1.923,1.923,0,0,0-.455.439,4.664,4.664,0,0,1-.976.673c-1.213.647-2.568,1.032-3.793,1.706a0.664,0.664,0,0,0-.2.13c-0.282.282-.13,0.461,0.195,0.826a1.929,1.929,0,0,1,.585,1.949A3.288,3.288,0,0,1,505.146,509.332Zm-52.408-8.809a2.008,2.008,0,0,0,1.821.832,0.513,0.513,0,0,0,.282-0.6,1.625,1.625,0,0,1,.477-1.51,1.884,1.884,0,0,1,1.387-.239,1.58,1.58,0,0,0,.65-0.022,0.565,0.565,0,0,0,.434-0.418,2,2,0,0,0-2.1-1.721C453.475,496.967,451.731,499.133,452.738,500.523Zm12.907-.8c-0.054.375,0.77,0.429,1.355,0.467a6.106,6.106,0,0,0,2.752-.157,0.4,0.4,0,0,0,.044-0.1c-0.162-.434-1.409-0.918-2.785-1.059A1.905,1.905,0,0,0,465.645,499.72ZM381.659,767.949a1.331,1.331,0,0,1,.195,0c-0.13.022-.271,0.006-0.412,0.017l0.466-.006c0.076,0,.163,0,0.228,0a0.263,0.263,0,0,0,.238-0.028,0.124,0.124,0,0,0-.119-0.059S381.714,767.932,381.659,767.949Zm1.582-.288c0.033-.038.033-0.049-0.043-0.054a4.883,4.883,0,0,0-.78.162v0.006a1.592,1.592,0,0,1,.238.022,0.411,0.411,0,0,0,.044.054c-0.012.006-.012,0.006,0.021,0a0.474,0.474,0,0,0,.26-0.049A0.289,0.289,0,0,0,383.241,767.661Zm8.724-5.121a2.491,2.491,0,0,0,.38-0.375,1.272,1.272,0,0,0,.2-0.152c0.022-.011.022-0.021,0.011-0.038a0.5,0.5,0,0,0-.347-0.136,1.623,1.623,0,0,0-.65.191,4.16,4.16,0,0,0-.531.4,0.857,0.857,0,0,0-.369.532,0.357,0.357,0,0,1-.118.255,9.31,9.31,0,0,1-.856.456c-0.023.016-.033,0.027-0.023,0.043a1.087,1.087,0,0,0,.575.218,0.154,0.154,0,0,0,.054-0.016c0.163-.049.271-0.174,0.423-0.229a3.093,3.093,0,0,0,.748-0.141c0.238-.157.065-0.282-0.033-0.353-0.379-.25-0.1-0.4.108-0.483A1.3,1.3,0,0,0,391.965,762.54Zm-3.153,1.591s0.119-.173-0.3-0.179a0.6,0.6,0,0,0-.618.212,1.166,1.166,0,0,0,.9-0.011S388.812,764.137,388.812,764.131Zm-1.333.907a0.937,0.937,0,0,0,.736-0.011,0.073,0.073,0,0,0,.044-0.07c-0.011-.017-0.022-0.039-0.185-0.039A1.78,1.78,0,0,0,387.479,765.038Zm1.864,0.4a1.3,1.3,0,0,0,.65-0.18c0-.011.011-0.011,0.021-0.016,0.044-.049-0.054-0.081-0.14-0.076A0.7,0.7,0,0,0,389.343,765.435Zm-0.466-.142a0.03,0.03,0,0,0,.021-0.016c0.12-.114-0.054-0.206-0.13-0.212a0.481,0.481,0,0,0-.3.245A0.4,0.4,0,0,0,388.877,765.293Zm-0.759.369c0-.01,0-0.01.022-0.021s0-.081-0.109-0.081a0.95,0.95,0,0,0-.606.238A2,2,0,0,0,388.118,765.662Zm-1.094.3a1.125,1.125,0,0,0-.618.217,1.689,1.689,0,0,0,.672-0.131l0.022-.01C387.132,766.016,387.121,765.972,387.024,765.967Zm0.357,0.255a0.015,0.015,0,0,1,.022-0.006c0.065-.065-0.119-0.108-0.185-0.1a0.094,0.094,0,0,0-.108.076C387.067,766.32,387.349,766.244,387.381,766.222ZM248.961,46.186a1.742,1.742,0,0,0,.422-0.347,1.035,1.035,0,0,0-.043-0.1,0.536,0.536,0,0,1-.086-0.027l-2.395.277c-0.6.228-1.095,0.657-1.7,0.864a14.933,14.933,0,0,0-1.55.271,17.3,17.3,0,0,0-2.947,1.76A62.113,62.113,0,0,0,248.961,46.186ZM382.645,742.659a0.7,0.7,0,0,0-.661.364,1.556,1.556,0,0,0,1.268.233C383.36,743.088,383.122,742.806,382.645,742.659ZM680.011,151.136a12.52,12.52,0,0,0,.856,1.64c0.509,0.652,1.333.972,1.788,1.678a29.381,29.381,0,0,0,1.842,3.188,6.978,6.978,0,0,0,1.268.727l4.064,5.735c0.715,1.466,1.008,3.122,1.929,4.5a3.432,3.432,0,0,0,.78.869,1.558,1.558,0,0,0,.217-0.076,3.477,3.477,0,0,1,.108-0.553,1.151,1.151,0,0,0,.141-0.055c0.769,0.739,1.138,1.792,1.972,2.466,0.066-.022.141-0.033,0.206-0.06a0.572,0.572,0,0,0-.054-0.195c-0.487-1.386-1.452-2.526-1.951-3.894-0.238-.652.087-1.347-0.151-2a11.771,11.771,0,0,0-.737-1.4c-0.423-.695-1.918-3.057-2.774-4.3-1.875-2.661-4.183-4.985-6-7.689-0.477-.739-0.748-1.586-1.268-2.309-0.087-.114-0.2-0.265-0.292-0.374-0.022-.054-3.815-4.985-5.354-5.745-0.444,1.911,1.171,3.448,1.842,4.105a3.194,3.194,0,0,1,1.041,1.515,9.349,9.349,0,0,1,1.571,2.1,4.136,4.136,0,0,0-.64-0.39,4.685,4.685,0,0,1,.521,1.081C680.249,151.136,680.249,151.136,680.011,151.136ZM715.3,196.367c2.363,4.159,4.628,8.205,6.73,12.023C719.392,203.377,716.824,198.859,715.3,196.367Zm37.421,94.2c-0.206-.641-0.423-1.314-0.575-1.89,0.109,0.771.271,1.8,0.423,2.574-0.791-1.054-.791-1.054-1.463-3.356a13.009,13.009,0,0,0,.369,2.889c5.689,23.97,5.689,23.97,4.93,72.66-0.856,17.269-3.836,34.369-4.736,51.655l0.716,0.76h0v-0.011H752.4c2.309,22.83-8.962,43.814-8.994,66.323a4.538,4.538,0,0,0,1.831-1.727c-0.488,3.742-1.734,7.326-2.124,11.084-0.477,5.93-.477,5.93-2.5,14.336-1.9,7.56-2.731,15.347-5.137,22.77,1.507-2.9,1.507-2.9,10.588-28.6,10.588-38.665,10.8-39.414,13.871-60.148,1.572-14.825,3.446-34.614,4.074-49.5-0.856-39.023-.974-45.019-3.933-62.853C758.037,316.528,755.425,302.43,752.716,290.57Zm8.084,68.359c0.043-.044.1-0.076,0.13-0.109l0.022-.016v-0.016A1.057,1.057,0,0,1,760.8,358.929ZM177.231,58.209a33.159,33.159,0,0,0,3.566-1.792c0.054-.033,5.526-3.28,7.325-5.371a10.234,10.234,0,0,0-1.116.554,25.655,25.655,0,0,1,2.319-1.439c-2.286.923-4.193,2.547-6.393,3.633a32.523,32.523,0,0,1,3.272-2.1l0.054-.038h0c0.055-.032,2.5-1.52,6.145-3.633-5.635,3.161-11.249,6.37-16.266,9.389-1.691,1.841-4.053,2.715-6.015,4.187l-0.043.065c-1.593,1.239-3.2,2.438-4.8,3.671,3.988-2.52,8.117-4.812,12.105-7.331C177.329,58.073,177.264,58.155,177.231,58.209ZM730.142,226.685c-0.151.674-.075,1.369-0.216,2.053-0.553-.049-1.409-0.125-2.319-1.847l10.587,28c3.88,10.069,4.855,13.452,8.5,26.04,0.021-.217.065-0.494,0.1-0.717a2.943,2.943,0,0,1,.965.912c-0.066-.793-0.228-1.569-0.358-2.346,0.086-.065.2-0.146,0.292-0.217,1.149,2.553,1.593,5.371,2.774,7.918-0.249-5.811-.346-7.994-7.26-28.619l-0.119-.391c-0.087-.255-10.545-28.814-19.16-45.627-0.607-1.108-1.257-2.3-1.9-3.459a165.221,165.221,0,0,1,8.691,18.545C730.543,226.864,730.316,226.756,730.142,226.685ZM192.4,48.022c6.026-3.372,12.018-6.636,17.3-9.5C203.478,41.7,197,45.355,192.4,48.022Zm18.163-9.981c-0.26.152-.585,0.326-0.867,0.478,1.257-.635,2.5-1.276,3.717-1.857C212.56,37.068,211.422,37.622,210.566,38.04ZM175.9,57.52c2.742-1.754,5.571-3.367,8.334-5.1-0.487.282-.965,0.57-1.474,0.852,0.542-.326,1.084-0.646,1.615-0.972-1.355.793-5.473,3.215-11.357,6.994l-0.065.044c1.018-.62,2.1-1.282,3.186-1.928,0-.005.01-0.005,0.01-0.005C176.072,57.438,175.963,57.487,175.9,57.52ZM710.581,188.628c-0.487-.662-0.931-1.358-1.408-2.042,0.867,2.791,4.01,7.722,4.031,7.782-0.065-.2-0.173-0.467-0.227-0.657a6.446,6.446,0,0,1,1.734,2.161c-0.163-.369-0.369-0.858-0.564-1.216,0.271,0.337.65,0.934,1.148,1.711-3.1-5.431-6.328-10.964-9.492-16.243a0.935,0.935,0,0,1-.152-0.217C707.255,182.839,708.956,185.723,710.581,188.628Zm40.867,96.391-0.152-.613c0.455,1.96.954,4.035,1.42,6.164,0.1,0.293.206,0.581,0.282,0.825C752.716,290.086,752.467,288.956,751.448,285.019ZM128.7,107.17c-5.223,3.932-10.37,7.984-15.67,11.8C118.853,115.773,124.7,112.59,128.7,107.17Zm-15.67,11.8a55.264,55.264,0,0,0-10.978,7.239C105.848,124.016,109.468,121.534,113.033,118.971ZM579.975,597.154c0.629-1.879.629-1.879,4.075-11.073-1.138-.271-2.612-0.619-3.739-0.895l-3.468-1.027h-0.011a17.467,17.467,0,0,0-6.881-3.28c-6.242,7.82-10.349,12.99-19.68,5.686-1.181.662-2.731,1.509-3.912,2.156,5.527-6.506,12.516-11.714,16.981-19.159-3.63-9.216-3.63-9.216-3.348-16.927-0.542,0-1.279,0-1.81,0-3.771-3.682-5.018-9.89-11.184-11.155-5.191-1.319-6.513-1.363-11.313,1.124-1.084-.353-2.515-0.831-3.609-1.178-0.922.651-2.168,1.526-3.078,2.2-1.062-6.044-2.5-6.7-6.34-8.493-1.007-8.292-1.007-8.292-16.894-11.942a13.479,13.479,0,0,0,2.547-7.016c-2.211-.57-5.2-1.233-7.467-1.629a33.835,33.835,0,0,0-2.97-7.245c-4.074,1-4.074,1-12.245,5.714a14.989,14.989,0,0,1-6.784-4.2c-4.346-.033-8.583,1.086-12.929.967-0.812-2.1-5.581-12.088-20.492-1.439a16.945,16.945,0,0,0,2.319,7.461c-0.716,1.157-1.647,2.694-2.362,3.845-1.074-.326-2.537-0.744-3.631-1.069-0.434-1.076-.986-2.521-1.42-3.59,3.989-5.968,3.989-5.968,1.767-11.285,1.344-1.917,3.121-4.425,4.475-6.326l-0.444-.647c-1.214.066-2.828,0.152-4.031,0.223-2.157,3.6-3.132,5.241-13.709,7.95-0.455,1.049-1.083,2.439-1.549,3.486-0.922-.711-2.136-1.667-3.046-2.372-7.336,4.681-14.315,22.319-14.337,22.455-0.845-1.01-2.07-2.265-2.818-3.34-9.341-13.082-26-1.477-36.444-10.817-13.98-12.534,10.208-29.179-4.476-41.642-8.269-7.027-18.737-1.455-27.645-4.806-1.019.543-2.363,1.276-3.37,1.825-0.336-.386-0.8-0.9-1.138-1.265-1.062-.381-2.482-0.886-3.555-1.266,6.307-6.039,5.441-15.721,5.018-18.539,1.116-.277,2.59-0.647,3.706-0.918,1.582-7.945,4.183-15.64,5.451-23.656-13.1-3.106-19.842.316-24.719,4.074-0.488,7.228-5.527,12.565-7.868,19.033-9.71-5.224-26.322,5.9-31.091-8.569-9.211-27.831-15.312-46.219,2.721-77.173l4.128,0.109c4.563-6.343,5.256-6.593,13.763-9.656,9.461,4.975,25.185,5.789,25.272,5.756,1.062,0.837,2.481,1.956,3.543,2.786-0.584-2.362-1.517-5.479-2.318-7.771-1.095-.228-2.58-0.526-3.685-0.749,0.726-.891,1.669-2.08,2.4-2.965,0.227,0,29.064,6.734,29.086,6.8a12.027,12.027,0,0,0,6.61-2.916c6.232,1.982,6.232,1.982,17.73,34.967l1.983,0.722h0l0.011,0v0.011l0.011-.006,0.01,0h0.012v0l0.01,0.006h0a13.585,13.585,0,0,0,4.855,5.756c8.875-20.044-9.32-40.262.368-60.3,12.268-3.607,18.055-15.988,28.914-21.516A17.868,17.868,0,0,1,419.1,305.4c-3.609-9.753-3.609-9.753-4.671-10.818,0.531-1.08,1.257-2.525,1.8-3.606a12.9,12.9,0,0,0-5.755-6.18c0.033-1.129.087-2.644,0.131-3.763,0.932,0.668,2.178,1.591,3.131,2.275,1.409-3.681,1.387-7.765,3.143-11.36a13.559,13.559,0,0,1-.216,7.576c0.91,0.928,2.1,2.172,3.023,3.095-0.033,1.417-.108,3.312-0.152,4.741,1.1-.739,2.558-1.727,3.652-2.455,1.29-6.772,4.1-13.2,4.671-20.147,6.849-4.822,15.464-2.02,22.671-5.3-3.3-5.04-10.187-15.52,3.587-20.039,0.509-1.091,1.181-2.552,1.691-3.649a22.945,22.945,0,0,0,6.794-1.678c12.214-7.934,12.214-7.934,17.784-6.891-9.017,7.711-8.9,8.172-7.456,13.9,1.018,0.516,2.373,1.2,3.4,1.716,2.655-3.095,5.6-5.936,7.943-9.3,1.127,0.26,2.612.586,3.717,0.847,7.814-5.724,7.814-5.724,9.818-6.05-7.65-5.87-22.183-3.866-23.039-17.5-2.178-.814-5.028-2.02-7.131-3.008,6.286-2.737,6.286-2.737,9.58-6.246-7.835-10.92-11.65-7.081-32.825,14.272,0.531-5.344,4.172-9.552,5.267-14.684,8.084-5.224,17.523-5.952,26.778-7.271a0.442,0.442,0,0,0,.086,0,4.593,4.593,0,0,1,1.344.309c0.715,0.4.737,1.38,1.453,1.781a13.7,13.7,0,0,0,2.145.918c2.222,0.761,6.037,1.9,6.589.88,0.651-1.249-3.771-3.931-4.291-4.2-0.26-.135-0.867-0.428-1.485-0.668,5.917-1.167,11.628-3.019,16.689-6.972,0.769-7.891,8.951-7.63,12.994-11.915-3.36-4.257-3.36-4.257-4.563-11.094a32.691,32.691,0,0,1-6.73-4.557c-4.15.527-4.15,0.527-10.143,5.5l0.032-3.975c1.984-1.195,4.693-2.731,6.752-3.834-0.7-1.043-1.669-2.438-2.406-3.47-3.793-.548-7.716.467-11.422-0.967,0.087-1.232.206-2.862,0.282-4.089A21.987,21.987,0,0,0,476.71,144a15.316,15.316,0,0,0-4.844-5.485c0.845-.852,2-1.976,2.85-2.818-2.33-1.526-6.264-4.067-9.147-11.632-1.115-.293-2.611-0.69-3.727-0.983-1.3-3.128-1.3-3.128-5.831-10.209-2.947,3.486-3.565,4.214-3.63,10.356a24.337,24.337,0,0,0-5.516,5.3,28.164,28.164,0,0,1-6.48-4.161c-1.106.272-2.537,0.619-3.652,0.88,0.3-5.365-2.309-10.177-2.937-15.363-6.286-1.363-6.286-1.363-16.667-10-3.555,1.292-7.326-.185-10.881.809-0.953-.766-2.222-1.787-3.175-2.547-1.171.315-2.731,0.738-3.9,1.053-1,8.57,2.959,17.492-1.766,25.806,11.314,18.964,11.314,18.964-4.529,30.639,4.183,5.235,2.915,12.284,5.905,17.932a11.121,11.121,0,0,0-1.863,6.815c-1.019-.538-2.373-1.249-3.371-1.776-0.162,1.195-.336,2.8-0.509,4.019-12.018-5.159-12.365-8.521-14.576-30.4l-45.179-16.324c-1.159-3.758-1.159-3.758-2.731-11.687-2.232-.63-5.212-1.406-7.456-1.944,3.8-12.636,4.714-15.64,24.438-27.478-0.282-1.113-.661-2.6-0.943-3.7,8.377-1.249,16.44-8.494,16.483-8.559-2.1-1.3-4.92-3.063-7.012-4.4,8.637-.228,8.637-0.228,11.466-2.351-0.108-1.135-.249-2.645-0.358-3.78a45.25,45.25,0,0,0,7.478,1.526c-0.033-1.173-.087-2.731-0.13-3.9,0.931,0.668,2.167,1.559,3.11,2.232a62.073,62.073,0,0,0,7.207-3.307,34.513,34.513,0,0,0-3.056-7.19c0.466-1.054,1.105-2.444,1.581-3.481l-0.411-2.047h-0.044l-0.011.006c-3.38-2.677-4.779-3.8-10.294-.776-0.531,2.259-.531,2.259-4.541,10.731-1.117.3-2.612,0.727-3.728,1.043-0.477-1.1-1.138-2.564-1.637-3.66,0.586-.989,1.344-2.314,1.908-3.324-0.6-1.026-1.4-2.417-2-3.443-1.084.625-2.536,1.477-3.62,2.107-1.712-1.575-3.988-3.7-5.678-5.306,0.769-.853,1.81-1.993,2.59-2.84a15.607,15.607,0,0,1-1.3-7.4c-1.03-.8-2.32-2.226-3.587-2.46l-2.883,1.8,0.011-.006h0.011V42.32h0l0.032-.006h0V42.32h0.011l0.011-.006h0v0.017h0l0.021-.005c-3.706,2.134-5.223,3.02-4.02,9.455,1.094,0.287,2.579.673,3.663,0.956a52.705,52.705,0,0,0-2.72,7.13,19.225,19.225,0,0,0-6.167,5.4c0-1.2,0-2.8.011-4-1.018-.57-2.351-1.32-3.359-1.89-1.117.407-2.6,0.939-3.707,1.341,0.012,1.129.012,2.634,0.023,3.769-0.683-.923-1.594-2.145-2.3-3.062a38.874,38.874,0,0,1-8.063,1.265l-2.861-.092h0V62.586h-0.043l-0.011-.005h0l-0.021.005H318.6V62.581h-0.011c-0.856-.766-1.983-1.808-2.85-2.591-1.2.228-2.8,0.527-4,.749-0.173-1.173-.39-2.737-0.531-3.915a27.845,27.845,0,0,0-7.781,1.015C302,59.4,302.008,59.4,302.008,59.4v0.011h0a77.406,77.406,0,0,1,7.824-1.265c-9.493,3.72-9.493,3.72-12.733,12.887a14.6,14.6,0,0,1,.227-7.483c-0.693-.94-1.614-2.178-2.3-3.117-9.981.277-9.981,0.277-11.617,0.169a11.016,11.016,0,0,0,1.462-6.913c-6.187.087-10.836-6.414-17.545-4.22,0.792-.88,1.875-2.053,2.677-2.933-1.148.4-2.677,0.913-3.8,1.3,0.129-1.162.292-2.721,0.433-3.888a227.921,227.921,0,0,0-23.018,7.2c5.018-2.558,10.48-3.91,15.692-5.925-3.457.136-8.648,0.336-18.574,6.2-1.051-.45-2.471-1.053-3.512-1.5a26.705,26.705,0,0,0,1.561-7.63,24.16,24.16,0,0,1-6.557-3.6l2.233-2.368h0c0.661-.923,1.56-2.15,2.222-3.063-18.131,6.055-34.039,16.8-51.443,24.4,0.78-.852,1.831-1.993,2.612-2.846-5.083,1.9-5.083,1.9-17.437,9.883,1.181,0.059,2.774.152,3.966,0.2-0.921.749-.921,0.749-38.439,26.984,1.084-.331,2.526-0.771,3.62-1.1-3.966,3.524-7.694,7.288-11.584,10.877,1.17-.082,2.741-0.2,3.933-0.266a22.861,22.861,0,0,1-3.208,5.772c9.288-6.983,18.867-13.494,30.279-17.132-4.118,5.436-10.75,7.57-15.638,11.974,1.712-.636,1.712-0.636,16.884-9.667l1.376,2.737h0.033v0.01h0.011l0.022,0v0h0.01V95.1L161.7,95.1h0V95.1h0.011l-1.984,2.531h0.044v0.011h0.032l0.022,0.011h0.011l0.434,1.618h0.021v0.011H160.3l1.647,0.946v0.01h0c1.084,0.294,2.547.69,3.62,1-1.279,1.293-1.29,1.309-1.312,1.326a0.077,0.077,0,0,1-.032.049,0.333,0.333,0,0,1-.043.048,0.079,0.079,0,0,0-.043.044c1.126,0.217,2.643.5,3.8,0.717-3.36,3.828-3.36,3.828-2.275,10.872a16.2,16.2,0,0,1,6.946-3.161c-3.229,10.1-10.339,18.909-9.981,30.2A16.087,16.087,0,0,0,169.4,136.4c-1.94,5.272-6.675,8.254-10.024,12.381,1.084-.625,2.536-1.461,3.609-2.085a34.622,34.622,0,0,0-3.479,7.174c1.116-.353,2.6-0.809,3.739-1.146-3.078,2.905-3.078,2.905-4.779,10.486,0.986,0.57,2.286,1.325,3.273,1.9-0.976.635-2.287,1.477-3.284,2.113,1.149,11.289,10.371,21.4,4.942,33.663,0.173-1.3.411-3.062,0.607-4.371a12.657,12.657,0,0,0-7.185-1.559c1.527,30.759-43.51,56.4-15.92,88.561l17.61,37.546c2.309,13.577,14.262,24.411,11.13,39.523-1.127.228-2.623,0.533-3.761,0.761a34.821,34.821,0,0,0,12.885,13.9c1.387,5.789,1.745,11.784,3.479,17.508,5.288,2.254,7.792,7.907,12.82,10.47,0.379-11.562-9.493-19.474-10.815-30.438-1.008-.652-2.373-1.515-3.392-2.177-0.932-14.228-13.058-25.47-10.718-40.572,0.672,0.239.672,0.239,25.142,42.5,0.91,0.424.932,0.418,0.932,0.418h0c1.593,2.3,1.593,2.3,3.652,11.035,9.146,4.909,21.685,37,21.522,37.183-0.672.755-.672,0.755,27.255,31.6,0.216,0.255,26.734,22.5,41.418,10.665,10.556,1.917,13.525,7.353,16.971,13.658,7.218,8.211,18.163,8.113,27.223,12.235,0.953-.6,2.243-1.4,3.207-2a15.943,15.943,0,0,1,3.978,3.1c0.108,1.33.26,3.1,0.368,4.426,4.888,3.92,5.267,4.642,9.927,13.375-0.358,1.195-.878,2.775-1.247,3.958,7.543,6.62,26.4,14.766,26.518,14.793,1.431,3.28,1.431,3.28,8.963,7.12,0.931-.76,2.178-1.8,3.121-2.58-0.737-.868-1.724-2.025-2.471-2.894a20.4,20.4,0,0,0,4.052-6.6c4.91-1.222,4.91-1.222,9.873,3.509-0.509,1.021-1.2,2.4-1.712,3.431,8.041,13.886,8.041,13.886,3.923,35.657-7.575,4.323-8.464,9.509-8.453,9.558-7.358,3.823-12.571,17.692-10.533,24.22,1.073-.272,2.546-0.614,3.63-0.88,0.249,1.293.564,3.009,0.8,4.3a72.271,72.271,0,0,1-6.827,5.372c-5.267,9.687,12.624,38.632,47.877,77.422,2.157,14-21.566,61.794-31.741,67.985-0.846,3.709-3.815,6.538-4.259,10.4-3.771,2.829-4.216,3.133-9.439,4.735-0.043,0-.076,0-0.1,0a1.316,1.316,0,0,0-.227.027,0.144,0.144,0,0,0-.076.032l-0.011.006c0.022,0,.152-0.006.26-0.017-0.1.038-.162,0.054-0.271,0.087-0.022,0-.043-0.016-0.065-0.016-0.076.016-.184,0.022-0.271,0.043a0.113,0.113,0,0,0-.108.017c0.022,0,.195,0,0.314-0.006a0.658,0.658,0,0,0-.13.038c1.106,0,2.579,0,3.7-.021l2.113-.028,0.119-.011c0.5-.027,54.846-14.684,58.27-23.942,17.339,6.413,109.887-44.7,165.784-126.564,1.224-2.574,1.787-6.413,2.611-9.14C602.494,593.923,592.069,582.611,579.975,597.154ZM328.179,479.5a2.694,2.694,0,0,1-.78.608,3.911,3.911,0,0,0,.769-0.586l-0.011,0a3.181,3.181,0,0,1-.758.581,2.931,2.931,0,0,0,.8-0.641A0.026,0.026,0,0,1,328.179,479.5ZM583.02,650.379v0Z"/>
</svg>
