<svg xmlns="http://www.w3.org/2000/svg" width="768" height="768" viewBox="0 0 768 768">
  <metadata><?xpacket begin="﻿" id="W5M0MpCehiHzreSzNTczkc9d"?>
<x:xmpmeta xmlns:x="adobe:ns:meta/" x:xmptk="Adobe XMP Core 5.6-c142 79.160924, 2017/07/13-01:06:39        ">
   <rdf:RDF xmlns:rdf="http://www.w3.org/1999/02/22-rdf-syntax-ns#">
      <rdf:Description rdf:about=""/>
   </rdf:RDF>
</x:xmpmeta>
                                                                                                    
                                                                                                    
                                                                                                    
                                                                                                    
                                                                                                    
                                                                                                    
                                                                                                    
                                                                                                    
                                                                                                    
                                                                                                    
                                                                                                    
                                                                                                    
                                                                                                    
                                                                                                    
                                                                                                    
                                                                                                    
                                                                                                    
                                                                                                    
                                                                                                    
                                                                                                    
                           
<?xpacket end="w"?></metadata>
<defs>
    <style>
      .cls-1 {
        fill: #fff;
        fill-rule: evenodd;
      }
    </style>
  </defs>
  <path class="cls-1" d="M760.455,425.92a5.374,5.374,0,0,1-.612-0.062L746.5,493.8a4.211,4.211,0,1,1-5.064,2.244l-2.706-1.627-19.078,63.638a6.174,6.174,0,1,1-5.488,10.99l-56.723,77.027a5.62,5.62,0,0,1,.784.84h0l0.006,0.008h0a5.516,5.516,0,0,1,.928,1.937h0c0.018,0.067.046,0.13,0.061,0.2h0a5.528,5.528,0,0,1-6.591,6.6c-0.066-.015-0.126-0.043-0.192-0.06h0a5.493,5.493,0,0,1-1.93-.92l0,0h0a5.542,5.542,0,0,1-.841-0.779h0l-84.875,63.3a6.639,6.639,0,1,1-5.816-3.037l0.35-10.515-86.964,48.676a5.506,5.506,0,0,1,.361,1.066c0,0.014.009,0.027,0.012,0.041a5.544,5.544,0,1,1-10.848.068L290.565,703.1a9.36,9.36,0,0,1-1.682,2.965l56.164,52.287a6.04,6.04,0,1,1-1.751,3.359l-80.7-17.76a6.769,6.769,0,1,1-12.468-5.063L116.7,656.243a5.537,5.537,0,0,1-1.571,1.436h0a5.467,5.467,0,0,1-.543.3h0c-0.1.045-.19,0.09-0.289,0.13h0c-0.083.033-.174,0.051-0.259,0.08a5.347,5.347,0,0,1-.789.219h0a5.421,5.421,0,0,1-.994.1,5.533,5.533,0,0,1-3.541-9.8l-57.6-81.99h0a5.494,5.494,0,0,1-1.043.472c-0.139.048-.279,0.094-0.423,0.131-0.127.031-.253,0.06-0.382,0.082a5.24,5.24,0,0,1-.944.1,5.505,5.505,0,0,1-5.447-6.554c0.018-.1.043-0.2,0.067-0.3a5.489,5.489,0,0,1,.207-0.668c0.038-.1.071-0.2,0.113-0.294a5.492,5.492,0,0,1,.424-0.781c0.071-.109.157-0.205,0.235-0.309,0.106-.138.213-0.274,0.331-0.4s0.229-.236.351-0.348c0.1-.089.2-0.171,0.307-0.253a5.542,5.542,0,0,1,1.107-.69l-33.857-93.87h0a5.548,5.548,0,0,1-.579.125h0a4.77,4.77,0,0,1-.86.087,5.513,5.513,0,0,1-4.872-8.158h0c0.066-.122.123-0.248,0.2-0.365h0a5.536,5.536,0,0,1,.571-0.739c0.01-.012.019-0.025,0.03-0.036a5.515,5.515,0,0,1,1.531-1.165l0.007,0h0a5.565,5.565,0,0,1,.923-0.374l0.01,0a5.415,5.415,0,0,1,1-.2l-2.9-111.526a5.5,5.5,0,0,1-2.936-1.04l0,0a5.585,5.585,0,0,1-.759-0.662c-0.034-.035-0.06-0.076-0.093-0.112a5.6,5.6,0,0,1-.539-0.682c-0.062-.094-0.106-0.2-0.162-0.3a5.445,5.445,0,0,1-.321-0.613,5.526,5.526,0,0,1-.171-0.553c-0.045-.154-0.107-0.3-0.139-0.462A5.549,5.549,0,0,1,7.546,329.6a5.513,5.513,0,0,1,.776.078l18.656-82h0a5.524,5.524,0,0,1-3.1-2.471h0c-0.029-.048-0.052-0.1-0.08-0.147a5.47,5.47,0,0,1-.484-1.193c-0.008-.031-0.02-0.06-0.029-0.092h0A5.511,5.511,0,0,1,29.852,237h0c0.017,0,.033.011,0.05,0.015h0a5.5,5.5,0,0,1,1.078.375l31.494-55.3a4.4,4.4,0,0,1,5.028-7.216l55.622-66.13a3.8,3.8,0,1,1,5.617-5.118l77.432-53.691A7.962,7.962,0,1,1,220.2,42.459L260.974,26.51a4.246,4.246,0,1,1,1.29,2.071l-16.3,14.959a3.2,3.2,0,0,1,.747,1.969L281.2,45.7a3.158,3.158,0,0,1,4.1-2.8l10.731-23.533a5.539,5.539,0,1,1,8.113-6.018l55.4-7.5c0-.1-0.029-0.187-0.029-0.285a5.548,5.548,0,1,1,11.1,0,5.488,5.488,0,0,1-.083.826l92.389,21.944a3.191,3.191,0,0,1,4.15-1.8l3.264-6.05a5.6,5.6,0,1,1,8.31-3.039l83.4,33.187a8.411,8.411,0,1,1,14.577,8.28l77.986,59.82a4.38,4.38,0,1,1,6.1,6.279l52.167,72.4a5.472,5.472,0,0,1,1.9-.716,5.257,5.257,0,0,1,.954-0.1,5.5,5.5,0,0,1,5.447,6.546h0c-0.018.1-.041,0.2-0.065,0.3h0c-0.038.155-.09,0.3-0.141,0.454a5.241,5.241,0,0,1-.176.5,5.415,5.415,0,0,1-.4.731h0c-0.1.149-.2,0.285-0.313,0.424h0c-0.068.086-.136,0.171-0.209,0.253h0a5.531,5.531,0,0,1-1.689,1.3l30.822,77.753a5.541,5.541,0,1,1-3.04,8.312l-10.007,5.387,6.712,32.731,13.77,4.406a3.395,3.395,0,1,1,3.559,4.815l0.864,74.354a5.477,5.477,0,0,1,2.15.606c0.062,0.032.123,0.065,0.184,0.1a5.535,5.535,0,0,1,.555.353h0l0.021,0.017a5.613,5.613,0,0,1,.726.642h0c0.019,0.021.036,0.043,0.053,0.065a5.546,5.546,0,0,1,.569.724h0c0.065,0.1.112,0.211,0.171,0.316h0a5.471,5.471,0,0,1,.306.589h0a3.024,3.024,0,0,1,.1.315,5.485,5.485,0,0,1,.32,1.786A5.55,5.55,0,0,1,760.455,425.92Zm-18.542,69.342a4.183,4.183,0,0,1,3.336-1.671c0.12,0,.233.025,0.351,0.035l12.591-64.114-19.188,64Zm16.517-69.737a5.535,5.535,0,0,1-2.178-1.571c-0.011-.015-0.024-0.029-0.036-0.044a5.464,5.464,0,0,1-.613-0.9h0c-0.031-.056-0.063-0.111-0.092-0.168h0a5.5,5.5,0,0,1-.245-0.561,5.067,5.067,0,0,1-.195-0.627h0l-54.4,8.269c0,0.048.014,0.093,0.014,0.141a3.213,3.213,0,0,1-2.286,3.07l5.286,36.563a3.192,3.192,0,0,1,2.9,4.333l31.609,19ZM696.211,317.38l-9.842-3.149-1.949,7.329a5.3,5.3,0,0,1,.763.346h0c0.041,0.021.081,0.042,0.121,0.065h0a5.663,5.663,0,0,1,.616.408h0c0.07,0.054.136,0.112,0.2,0.168h0a5.674,5.674,0,0,1,.548.526c0.056,0.061.1,0.128,0.157,0.191a5.647,5.647,0,0,1,.376.484h0l9.086-4.891A2.912,2.912,0,0,1,696.211,317.38Zm14.035-116.048-41.478-9.707a3.213,3.213,0,0,1-1.883,1.664l3.611,29.869c0.077-.006.151-0.023,0.229-0.023a3.2,3.2,0,0,1,2.511,1.228l37.387-20.02h0a5.5,5.5,0,0,1-.331-1.037h0a0.075,0.075,0,0,0,0-.016,5.6,5.6,0,0,1-.122-1.15A5.516,5.516,0,0,1,710.246,201.332ZM662.654,190.2l-33.981-7.954a3.149,3.149,0,0,1-3.85,2.083L583.8,261.014a19.455,19.455,0,0,1,7.313,7.326l76.556-41a3.158,3.158,0,0,1,1.922-3.992l-3.615-29.893c-0.038,0-.073.011-0.112,0.011a3.222,3.222,0,0,1-3.22-3.224C662.649,190.227,662.654,190.212,662.654,190.2Zm-40.2-9.409L574.51,169.564a3.214,3.214,0,0,1-1.974,1.849l1.79,87.077a19.256,19.256,0,0,1,8.67,2.095l40.978-76.62A3.049,3.049,0,0,1,622.457,180.786ZM430.724,134.97l137.8,32.25a3.213,3.213,0,0,1,2.964-2.073l-0.747-36.4a3.2,3.2,0,0,1-2.562-2.24L430.9,133.1c0,0.008,0,.016,0,0.025A10.169,10.169,0,0,1,430.724,134.97Zm140.8-12.6a3.2,3.2,0,0,1,2.913,2.909l78.973-3.793a4.477,4.477,0,0,1,.125-0.832L573.344,90.933a3.2,3.2,0,0,1-2.43,1.688Zm0,49.217a3.222,3.222,0,0,1-3.221-3.223c0-.086.019-0.166,0.026-0.25L430.514,135.863a10.1,10.1,0,0,1-2.06,3.841L560.49,264.254a19.283,19.283,0,0,1,12.919-5.723l-1.788-86.949C571.588,171.583,571.558,171.591,571.525,171.591ZM527.766,74.039L463.413,50.183a7.588,7.588,0,0,1-6.942,4.54A7.511,7.511,0,0,1,454,54.277l-28.907,69.7a10.125,10.125,0,0,1,4.4,4.011L527.874,75.8a3.3,3.3,0,0,1-.186-1.056A3.379,3.379,0,0,1,527.766,74.039ZM269.827,70.173L236.6,56.21a3.191,3.191,0,0,1-5.5.985L218.279,68.957A3.212,3.212,0,0,1,216.42,74.4l9.769,93.421c0.04,0,.078-0.012.118-0.012a5.029,5.029,0,0,1,.981.1,5.422,5.422,0,0,1,.89.248h0l43.055-94.423A3.144,3.144,0,0,1,269.827,70.173ZM220.906,46.284a7.915,7.915,0,0,1-.437,2.153l10.755,4.519a3.156,3.156,0,0,1,3.831-.645l5.638-5.175a3.206,3.206,0,0,1-.3-0.744Zm-7.941,7.472a7.915,7.915,0,0,1-4.655-1.513l-57.063,70.317,1.926,1.29a3.155,3.155,0,0,1,4.03-.074l55.841-51.261a3.207,3.207,0,0,1,1.806-4.3l-1.514-14.478C213.212,53.744,213.09,53.757,212.965,53.757ZM126.574,155.93a3.2,3.2,0,0,1-1.9-.63l-26.11,32.174a5.532,5.532,0,0,1,1.572,2.79l120.652-16.6c0-.1-0.03-0.194-0.03-0.3a5.192,5.192,0,0,1,.094-0.931h0a5.5,5.5,0,0,1,.172-0.68c0.007-.025.014-0.05,0.023-0.075a5.432,5.432,0,0,1,.429-1L157.9,128.118a3.192,3.192,0,0,1-4.752.628l-24,22.034A3.211,3.211,0,0,1,126.574,155.93Zm-26.366,24.484a3.168,3.168,0,0,1-.9-0.143l-2.255,6.174a5.62,5.62,0,0,1,.8.444L121.382,157.9l-18.738,17.2A3.208,3.208,0,0,1,100.208,180.414Zm-37.944,34.4L62.159,216,90.078,194.48a5.371,5.371,0,0,1-.577-4.789l-1.862-.813L64.72,209.918A3.2,3.2,0,0,1,62.264,214.817ZM34.106,243.285l22.356,5.524a3.208,3.208,0,0,1,1.995-1.563l2.6-29.241L33.3,239.4a5.513,5.513,0,0,1,.668,1.523c0.016,0.056.037,0.109,0.052,0.166h0c0.027,0.111.055,0.219,0.075,0.332a5.448,5.448,0,0,1,.1.986A5.522,5.522,0,0,1,34.106,243.285ZM44.441,347.648h0c0.017-.1.031-0.2,0.054-0.3L12.675,337.26A5.567,5.567,0,0,1,10.72,339.7c-0.021.014-.037,0.033-0.058,0.048a5.527,5.527,0,0,1-.948.519l19.664,59.679a3.2,3.2,0,0,1,1.284-.27,3.15,3.15,0,0,1,.391.039l16.546-46.1a5.546,5.546,0,0,1-1.769-1.289h0c-0.108-.117-0.206-0.242-0.3-0.368s-0.186-.222-0.266-0.344a5.494,5.494,0,0,1-.425-0.784h0c-0.043-.1-0.076-0.2-0.113-0.294h0c-0.006-.016-0.01-0.034-0.016-0.051a5.514,5.514,0,0,1-.358-1.912A5.251,5.251,0,0,1,44.441,347.648Zm-12.5,52.3a3.219,3.219,0,0,1-.56,6.09L43.2,441.881a3.149,3.149,0,0,1,3.843,1.959l63.769-23.475a3.23,3.23,0,0,1-.064-0.634,3.194,3.194,0,0,1,.743-2.036L53.241,352.979h0a5.486,5.486,0,0,1-.663.429c-0.058.033-.115,0.064-0.174,0.095h0a5.206,5.206,0,0,1-3.939.416ZM15.22,460.93h0a5.323,5.323,0,0,1-.473.574h0c-0.041.044-.076,0.093-0.118,0.136l56.229,67.154,0.009,0-20.4-61.922a3.187,3.187,0,0,1-.7.08,3.222,3.222,0,0,1-3.22-3.224c0-.078.017-0.151,0.023-0.227l-30.454-4.536h0a5.693,5.693,0,0,1-.235.76h0A5.518,5.518,0,0,1,15.22,460.93ZM93.7,589.071l6.556,4a3.208,3.208,0,0,1,.78-1.209l-4.481-25.432a6.911,6.911,0,0,1-7.978-6.321l-3.889.222a3.2,3.2,0,0,1-1.608,2.586l7.234,21.951a3.274,3.274,0,0,1,.345-0.035A3.186,3.186,0,0,1,93.7,589.071Zm11.934,7.279,72.646,44.3c0.063-.087.136-0.166,0.2-0.248l-77.87-75.791a7.215,7.215,0,0,1-3.152,1.678l4.4,25a3.18,3.18,0,0,1,1.4-.335A3.214,3.214,0,0,1,105.63,596.35ZM117.7,653.985l89.318,24.809a3.207,3.207,0,0,1,.6-0.84L185.683,648.6h0a5.5,5.5,0,0,1-1.083.517,5.316,5.316,0,0,1-.529.165c-0.118.029-.234,0.058-0.355,0.079a5.343,5.343,0,0,1-.97.1,4.87,4.87,0,0,1-.861-0.087c-0.179-.028-0.352-0.064-0.525-0.109h0a5.5,5.5,0,0,1-.65-0.2h0a5.751,5.751,0,0,1-.584-0.288h0c-0.1-.055-0.211-0.107-0.312-0.17h0a5.626,5.626,0,0,1-.735-0.559c-0.019-.016-0.039-0.03-0.057-0.047h0a5.587,5.587,0,0,1-.59-0.64c-0.027-.033-0.056-0.065-0.083-0.1h0A5.533,5.533,0,0,1,178,646.75c-0.077-.123-0.142-0.253-0.208-0.383s-0.13-.235-0.181-0.361a5.5,5.5,0,0,1-.291-0.939L117.782,652.7c0,0.083.025,0.162,0.025,0.246A5.512,5.512,0,0,1,117.7,653.985Zm95.372,26.49L256.018,692.4a3.207,3.207,0,0,1,2.77-1.6h0.017L259,687.667l-71.67-40.631h0a4.852,4.852,0,0,1-.5.6h0a5.413,5.413,0,0,1-.42.41l21.956,29.372a3.179,3.179,0,0,1,1.508-.391,3.221,3.221,0,0,1,3.22,3.223C213.1,680.329,213.079,680.4,213.074,680.475ZM262,694.067l10.812,3a9.32,9.32,0,0,1,.529-1.269l-13.46-7.631-0.171,2.783a3.214,3.214,0,0,1,2.294,3.072C262.008,694.039,262,694.052,262,694.067Zm386.321-44.494-77.974-16.131a8.443,8.443,0,0,1-7.982,6.292l-0.745,22.372,86.661-11.593c0-.093-0.027-0.181-0.027-0.275A5.407,5.407,0,0,1,648.325,649.573Zm3.761-208.3,49.091,29.506a3.2,3.2,0,0,1,1.593-.977l-5.28-36.516c-0.01,0-.019,0-0.029,0a3.213,3.213,0,0,1-3.1-2.407l-41.469,6.3c0.02,0.22.066,0.433,0.066,0.659A7.393,7.393,0,0,1,652.086,441.268Zm48.269,31.639a3.192,3.192,0,0,1,.313-1.366l-49.031-29.472a7.335,7.335,0,0,1-8.662,2.774l-32.413,75.272a3.217,3.217,0,0,1,1.765,2.195l90.348-17.8a5.392,5.392,0,0,1-.062-0.613,5.467,5.467,0,0,1,.106-1.047c0.022-.118.061-0.228,0.091-0.343a5.383,5.383,0,0,1,.2-0.632c0.052-.134.116-0.261,0.179-0.39a5.4,5.4,0,0,1,.266-0.492c0.084-.136.173-0.266,0.268-0.394s0.2-.256.311-0.378,0.234-.259.363-0.379c0.1-.094.21-0.177,0.318-0.263a5.437,5.437,0,0,1,.472-0.355c0.068-.043.144-0.076,0.214-0.116a5.484,5.484,0,0,1,1.519-.613l-3.234-22.372c-0.036,0-.07.01-0.107,0.01A3.222,3.222,0,0,1,700.355,472.907ZM677.109,325.8a5.514,5.514,0,0,1,.241-0.877l-85.637-38.663a19.421,19.421,0,0,1-9.152,9.123l31.41,70.543a3.178,3.178,0,0,1,3.928,1.03l59.757-37.639a5.474,5.474,0,0,1-.437-1.119c-0.015-.048-0.032-0.1-0.045-0.146h0c-0.03-.128-0.052-0.258-0.073-0.39a5.126,5.126,0,0,1-.09-0.891A5.012,5.012,0,0,1,677.109,325.8ZM400.8,226.256L316.888,201.05a3.2,3.2,0,0,1-5.63,1.037l-33.9,21.173a3.15,3.15,0,0,1-.391,3.357l96.909,103.142a14.59,14.59,0,0,1,12.026-3.58l17.221-96.549a3.214,3.214,0,0,1-2.353-3.09C400.773,226.443,400.793,226.351,400.8,226.256Zm-90.055-27.049L231.46,175.392h0a5.482,5.482,0,0,1-.443.875h0a0.083,0.083,0,0,1-.009.016h0a5.47,5.47,0,0,1-.593.784l42.2,44.917a3.185,3.185,0,0,1,4.235.511l33.958-21.21A3.018,3.018,0,0,1,310.747,199.207ZM158.29,127.275l63.7,42.645h0a5.544,5.544,0,0,1,1.742-1.445l0.05-.027a5.475,5.475,0,0,1,.7-0.3h0l0.031-.009a5.4,5.4,0,0,1,.77-0.221L215.5,74.4a3.193,3.193,0,0,1-1.949-1.1l-55.7,51.134A3.1,3.1,0,0,1,158.29,127.275ZM98.952,195.037L175.7,271.653a12.486,12.486,0,0,1,12.732-2.677l35.443-90.644h0a5.54,5.54,0,0,1-1-.637h0l-0.072-.06h0a5.511,5.511,0,0,1-.65-0.628l-0.014-.016a5.457,5.457,0,0,1-.533-0.712l-0.02-.037a5.512,5.512,0,0,1-.684-1.67h0l-120.652,16.6c0,0.1.03,0.2,0.03,0.3A5.508,5.508,0,0,1,98.952,195.037ZM55.333,349.662a5.46,5.46,0,0,1-.237.785h0c-0.016.044-.029,0.089-0.041,0.134a5.534,5.534,0,0,1-.489.969c0,0.006-.007.014-0.011,0.021a5.638,5.638,0,0,1-.627.8h0l58.228,64.695a3.2,3.2,0,0,1,4.612,1.108l58.439-21.513,7.677-103.273a12.59,12.59,0,0,1-9.64-6.451L55.034,346.5a5.5,5.5,0,0,1,.3,1h0a5.413,5.413,0,0,1,.108,1.075A5.48,5.48,0,0,1,55.333,349.662ZM45.2,447.977l4.141,12.567a3.108,3.108,0,0,1,.423-0.043,3.213,3.213,0,0,1,3.2,3.021L152.8,478.393a16.815,16.815,0,0,1,4.969-9.271l-42.033-46.7a3.2,3.2,0,0,1-4.611-1.193l-63.894,23.52c0.006,0.079.024,0.154,0.024,0.234A3.218,3.218,0,0,1,45.2,447.977ZM609.191,519.8a3.127,3.127,0,0,1,.487.049l32.457-75.37a7.446,7.446,0,0,1-4.105-6.638,7.3,7.3,0,0,1,.109-1.074L549.587,418.17a8.842,8.842,0,0,1-7.223,6.48l10.545,107.4c0.037,0,.073-0.011.111-0.011a3.216,3.216,0,0,1,2.675,1.43l50.33-9.919a3.184,3.184,0,0,1-.054-0.53A3.222,3.222,0,0,1,609.191,519.8ZM549.774,417.271l88.553,18.595a7.438,7.438,0,0,1,3.727-4.621L615.69,372.036a3.061,3.061,0,0,1-.385.039,3.2,3.2,0,0,1-2.288-.959l-64.254,40.473a8.809,8.809,0,0,1,1.127,4.317A8.9,8.9,0,0,1,549.774,417.271Zm2.842,121.175a3.2,3.2,0,0,1-2.786-2.884l-122.318,24.1a8.487,8.487,0,0,1-.6,4.656l127.914,62.834a8.446,8.446,0,0,1,6.087-4.219ZM427.335,558.762l122.53-24.144a3.217,3.217,0,0,1,2.138-2.4l-10.55-107.481c-0.136.006-.269,0.021-0.406,0.021a8.787,8.787,0,0,1-5.337-1.806L424.849,554.538A8.7,8.7,0,0,1,427.335,558.762Zm107.673-136.4a8.84,8.84,0,0,1-2.132-9.839L396.985,347.746a14.91,14.91,0,0,1-10.439,7.826l31.429,196.65a8.762,8.762,0,0,1,.921-0.05,8.661,8.661,0,0,1,5.253,1.775ZM385.639,355.711a15.046,15.046,0,0,1-1.9.134,14.873,14.873,0,0,1-12.208-6.377L282.018,408.1l131.4,146.023a8.668,8.668,0,0,1,3.653-1.75ZM116.415,421.8l42.035,46.7a16.753,16.753,0,0,1,10.922-4.04c0.267,0,.526.027,0.79,0.04l4.969-66.837L117.1,419.028A3.141,3.141,0,0,1,116.415,421.8Zm54.663,42.75a16.718,16.718,0,0,1,7.631,2.746l64.141-90.883a7.585,7.585,0,0,1-2.22-2.857l-64.554,23.761Zm91.543,83.563h0c0.014-.051.03-0.1,0.046-0.15a5.559,5.559,0,0,1,.5-1.174l-80.226-55.515a16.8,16.8,0,0,1-11.734,6.8l4.4,53.524a3.216,3.216,0,0,1,2.647,2.533l84.167-4.738a5.444,5.444,0,0,1,.076-0.75h0A5.271,5.271,0,0,1,262.621,548.113Zm-9.633-172.278L281.4,407.4,371.037,348.7a14.8,14.8,0,0,1-1.742-4.163L255.056,369.354A7.238,7.238,0,0,1,252.988,375.835Zm-0.7.593a7.506,7.506,0,0,1-3.4,1.55l5.372,47.2,26.358-17.262Zm-4.311,1.642c-0.135.007-.262,0.041-0.4,0.041a7.519,7.519,0,0,1-3.986-1.158L179.45,467.839a16.969,16.969,0,0,1,3.758,3.886l70.2-45.987Zm5.542,48.69L183.7,472.491a16.8,16.8,0,0,1-.224,18.033l80.221,55.511h0a5.5,5.5,0,0,1,.646-0.667l0.042-.035h0a5.6,5.6,0,0,1,.686-0.507h0c0.068-.043.143-0.076,0.213-0.116h0a5.567,5.567,0,0,1,.632-0.317h0a4.238,4.238,0,0,1,.419-0.13,5.355,5.355,0,0,1,.546-0.162Zm-13.181-54.076a7.358,7.358,0,0,1,2.51-8.079l-51.69-73.2a12.51,12.51,0,0,1-6.885,2.059c-0.16,0-.316-0.018-0.475-0.024l-7.648,102.869Zm3.252-8.619a7.518,7.518,0,0,1,11.265,4.392L369.1,343.637a14.468,14.468,0,0,1,.262-6.564L196.182,284.929a12.606,12.606,0,0,1-4.278,5.944Zm-46.726-83.2a12.58,12.58,0,0,1-.422,3.185l173.172,52.144a14.92,14.92,0,0,1,3.585-5.815L276.31,227.255a3.183,3.183,0,0,1-4.355-.618l-76.771,47.952A12.545,12.545,0,0,1,196.865,280.863ZM281.242,408.6L254.38,426.2l13.41,117.812c0.057,0,.111-0.017.169-0.017a5.6,5.6,0,0,1,1.114.112h0a5.479,5.479,0,0,1,1.728.7h0c0.08,0.048.169,0.081,0.246,0.134h0a5.558,5.558,0,0,1,1.466,1.451c0.008,0.012.02,0.023,0.029,0.035a5.526,5.526,0,0,1,.959,3.08l136.76,10.285a8.7,8.7,0,0,1,2.471-5.055ZM267.161,555.019a5.425,5.425,0,0,1-.677-0.144h0l-0.077-.023h0a5.479,5.479,0,0,1-1.8-.91l-77.822,86.18h0a5.509,5.509,0,0,1,1.445,3.145l71.246-2.369a3.218,3.218,0,0,1,2.552-2.449l5.135-83.43h0Zm-3.241-1.687h0a5.544,5.544,0,0,1-.939-1.378l0-.008a5.525,5.525,0,0,1-.282-0.733h0c-0.011-.033-0.021-0.066-0.031-0.1a5.607,5.607,0,0,1-.175-0.8L178.3,555.05a3.2,3.2,0,0,1-2.173,2.767l6.626,80.539c0.173,0,.336.036,0.5,0.051,0.114,0.015.23,0.017,0.342,0.035,0.052,0.008.107,0.006,0.159,0.016,0.165,0.03.321,0.082,0.481,0.126h0c0.142,0.041.284,0.079,0.421,0.131a5.611,5.611,0,0,1,.607.272h0c0.061,0.032.121,0.064,0.18,0.1a5.493,5.493,0,0,1,.655.427Zm-88.7,4.654c-0.038,0-.075.012-0.114,0.012a3.222,3.222,0,0,1-3.156-2.59l-68.938,3.88a7.217,7.217,0,0,1-1.764,4.657l77.874,75.793a5.52,5.52,0,0,1,.95-0.664l0.016-.009a5.481,5.481,0,0,1,1.084-.454l0.046-.014a5.349,5.349,0,0,1,.621-0.149h0Zm-72.29.388,68.985-3.883a3.2,3.2,0,0,1,2.779-2.9l-4.4-53.457c-0.307.017-.611,0.047-0.922,0.047a16.746,16.746,0,0,1-11.23-4.321l-57.091,60.433A7.217,7.217,0,0,1,102.927,558.374Zm121.8-379.712h0L189.287,269.3a12.64,12.64,0,0,1,5.42,4.5l76.771-47.953a3.173,3.173,0,0,1,.477-3.234l-42.211-44.925a5.527,5.527,0,0,1-.8.53h0l-0.029.015h0a5.288,5.288,0,0,1-.678.315h0c-0.021.008-.043,0.014-0.064,0.02a5.425,5.425,0,0,1-.926.25,4.918,4.918,0,0,1-.939.095,4.8,4.8,0,0,1-.879-0.089A5.406,5.406,0,0,1,224.728,178.662ZM386.81,326.324a14.918,14.918,0,0,1,10.917,9.488l158.009-52.285a19.2,19.2,0,0,1-.134-10.775l-148.787-44.69a3.2,3.2,0,0,1-2.781,1.7Zm20.4-99.784a3.211,3.211,0,0,1-.069.662L555.855,271.87a19.378,19.378,0,0,1,4.018-6.937L427.826,140.372a10.049,10.049,0,0,1-7.02,2.853,10.264,10.264,0,0,1-1.32-.1l-14.343,80.408A3.218,3.218,0,0,1,407.213,226.54Zm148.825,57.847L398.024,336.681a14.86,14.86,0,0,1-.641,10.238l135.885,64.773a8.8,8.8,0,0,1,9.4-4.484L569.287,296.6A19.386,19.386,0,0,1,556.038,284.387ZM543.56,407.421a8.84,8.84,0,0,1,4.712,3.392l64.209-40.445a3.158,3.158,0,0,1,.713-3.934l-31.462-70.66a19.288,19.288,0,0,1-11.556,1.055Zm74.767-39.65a3.179,3.179,0,0,1-1.737,4.033l26.3,59.058a6.939,6.939,0,0,1,4.523-.214l32.962-98.776a5.319,5.319,0,0,1-.52-0.282c-0.082-.043-0.166-0.083-0.243-0.132h0a5.621,5.621,0,0,1-.789-0.609l-0.009-.007a5.532,5.532,0,0,1-.671-0.747h0Zm87.482,141.136a5.584,5.584,0,0,1-.982-0.6c-0.022-.017-0.042-0.036-0.064-0.053a5.6,5.6,0,0,1-.781-0.743c-0.018-.021-0.034-0.043-0.052-0.064a5.507,5.507,0,0,1-.623-0.915l-0.018-.035a5.412,5.412,0,0,1-.44-1.088L612.39,523.232a3.19,3.19,0,0,1-4.37,2.785l-42.071,97.7a8.469,8.469,0,0,1,3.79,3.785l109.732-47.682,26.338-70.915h0ZM561.822,622.846c0.123,0,.244-0.019.369-0.019a8.415,8.415,0,0,1,2.915.528l42.115-97.8a3.218,3.218,0,0,1-.913-1.123l-50.222,9.9a3.165,3.165,0,0,1-2.551,4.107Zm-4.414,15.408-20.937,27.217L560.7,662.23l0.749-22.525A8.38,8.38,0,0,1,557.408,638.254Zm-0.723-.563a8.432,8.432,0,0,1-2.9-5.667L440.427,635.8a3.2,3.2,0,0,1-1.7,2.54l9.2,36.819a3.16,3.16,0,0,1,.39-0.039,3.209,3.209,0,0,1,2.858,1.767l84.005-11.239ZM440.4,634.878l113.356-3.771a8.423,8.423,0,0,1,.662-3.129L426.5,565.142a8.739,8.739,0,0,1-5.049,4.092l15.756,63.038c0.01,0,.018,0,0.028,0A3.221,3.221,0,0,1,440.4,634.878Zm-19.833-65.424a8.806,8.806,0,0,1-1.667.163,8.661,8.661,0,0,1-5.78-2.208L344.58,636.915a3.207,3.207,0,0,1,.59,1.13l88.888-2.956a3.2,3.2,0,0,1,2.244-2.665Zm-8.1-2.691a8.684,8.684,0,0,1-2.28-5.868c0-.066.008-0.13,0.01-0.195L273.418,550.416h0a5.474,5.474,0,0,1-.585,1.728h0c-0.03.056-.059,0.112-0.09,0.166h0a5.43,5.43,0,0,1-.426.633h0c-0.036.047-.074,0.091-0.111,0.136a5.643,5.643,0,0,1-.542.573h0c-0.064.058-.132,0.109-0.2,0.164a5.435,5.435,0,0,1-.594.437c-0.063.039-.131,0.07-0.2,0.107h0a5.507,5.507,0,0,1-1.064.46c-0.083.027-.165,0.055-0.25,0.078-0.167.044-.333,0.082-0.5,0.11a5.128,5.128,0,0,1-.78.079h0l-5.129,83.338a3.2,3.2,0,0,1,2.732,2.266l73.266-2.438a3.213,3.213,0,0,1,4.97-1.97Zm-73.57,72.411-73.065,2.432s0,0,0,.008a3.222,3.222,0,0,1-3.22,3.224c-0.02,0-.037,0-0.057-0.006l-2.6,42.319L273.8,695a9.344,9.344,0,0,1,14.164-1.972l51.505-52.235A3.2,3.2,0,0,1,338.893,639.174Zm-77.249,5.5a3.2,3.2,0,0,1-2.235-2.856l-71.144,2.368a5.5,5.5,0,0,1-.495,2.045l71.29,40.416ZM82.223,563.26a3.182,3.182,0,0,1-3.9-2.567l-24.46,1.4a5.533,5.533,0,0,1-.17,1.206c0,0.011-.007.022-0.011,0.034a5.466,5.466,0,0,1-.411,1.091l35.079,21.392a3.212,3.212,0,0,1,1.065-.73Zm-0.739-6.354a3.218,3.218,0,0,1,3.134,2.508l3.872-.221a7.237,7.237,0,0,1,2.26-5.212l-16.6-19.83a3.286,3.286,0,0,1-.432.352l7.394,22.441A3.113,3.113,0,0,1,81.484,556.906ZM75.151,531.82a3.191,3.191,0,0,1-.432,1.585L91.458,553.4a7.129,7.129,0,0,1,8.918.276L157.47,493.25a16.814,16.814,0,0,1-4.938-11.927,17.1,17.1,0,0,1,.132-2.023L52.9,464.442a3.21,3.21,0,0,1-1.584,2.092l20.455,62.079c0.053,0,.1-0.016.158-0.016A3.222,3.222,0,0,1,75.151,531.82ZM16.275,457.7c0,0.122-.028.236-0.036,0.356L46.761,462.6a3.222,3.222,0,0,1,1.7-1.814L44.3,448.177c-0.09.007-.176,0.027-0.268,0.027a3.207,3.207,0,0,1-2.592-1.326l-25.391,9.345A5.51,5.51,0,0,1,16.275,457.7ZM50.842,343.117h0a5.527,5.527,0,0,1,3.77,2.568l118.226-59.574a12.543,12.543,0,0,1-1.154-5.248,12.68,12.68,0,0,1,.264-2.573L62.362,251.212a3.212,3.212,0,0,1-3.089,2.364,3.248,3.248,0,0,1-.455-0.046l-7.976,89.587h0ZM61.17,216.761l0.176-1.983a3.18,3.18,0,0,1-1.279-.59L36.814,235.534ZM59.386,247.14a3.212,3.212,0,0,1,3.1,3.157l109.689,27.1a12.57,12.57,0,0,1,2.874-5.1L98.3,195.688a5.466,5.466,0,0,1-7.659-.487l-28.6,22.042Zm30.483-58.29a5.4,5.4,0,0,1,6.323-2.712l2.28-6.24a3.215,3.215,0,0,1-.559-0.45L88.378,188.2Zm62.666-60.789a3.206,3.206,0,0,1,.012-3.525l-1.881-1.26-20.687,25.491Zm61.714-74.417,1.5,14.378c0.079-.006.156-0.024,0.237-0.024a3.18,3.18,0,0,1,1.534.406l13.075-12a3.167,3.167,0,0,1,.094-2.673l-10.579-4.446A7.961,7.961,0,0,1,214.249,53.644Zm14.761,114.9A5.527,5.527,0,0,1,231.6,171.8L410.85,134.711a9.76,9.76,0,0,1,.49-5.072l-135.653-57a3.13,3.13,0,0,1-3.611,1.462Zm182.024-32.932L231.788,172.7a5.63,5.63,0,0,1,.067.665,5.512,5.512,0,0,1-.123,1.15l79.4,23.849a3.2,3.2,0,0,1,5.025-.418l95.857-59.874A10.04,10.04,0,0,1,411.034,135.611ZM316.678,198.7a3.185,3.185,0,0,1,.354,1.435L401,225.358a3.218,3.218,0,0,1,2.99-2.042c0.087,0,.168.019,0.253,0.025l14.336-80.37a10.1,10.1,0,0,1-6.085-4.121Zm104.128-75.687a10.03,10.03,0,0,1,3.439.615l28.906-69.7a7.563,7.563,0,0,1-4.232-6.39l-62.846-.345a3.21,3.21,0,0,1-1.475,1.933L417.187,123.7A10.026,10.026,0,0,1,420.806,123.014Zm249.537,106.53a3.208,3.208,0,0,1-2.278-1.371l-76.521,40.974a19.263,19.263,0,0,1,1.3,14.195l84.761,27.12a3.208,3.208,0,0,1,2.267-2.113Zm7.085,81.924c0-.033.008-0.063,0.009-0.1l-84.88-27.159c-0.142.41-.279,0.822-0.446,1.218l85.619,38.655h0a5.557,5.557,0,0,1,.685-0.976h0a5.59,5.59,0,0,1,.791-0.739h0c0.033-.025.062-0.054,0.1-0.079h0a5.466,5.466,0,0,1,.838-0.5h0c0.042-.021.083-0.044,0.124-0.067h0c0.112-.051.226-0.094,0.341-0.138a5.2,5.2,0,0,1,.833-0.259h0l-0.8-6.639A3.221,3.221,0,0,1,677.428,311.468Zm3.819,20.683L648.284,430.92a7.469,7.469,0,0,1,4.5,5.347l41.467-6.3a3.209,3.209,0,0,1,2.33-2.992L682.893,332.29c-0.113.007-.22,0.034-0.335,0.034a4.965,4.965,0,0,1-.876-0.089h0C681.534,332.212,681.39,332.185,681.247,332.151Zm1.105-10.914c0.07,0,.136-0.021.206-0.021a5.533,5.533,0,0,1,.978.1l1.958-7.364-2.169-.694a3.214,3.214,0,0,1-1.782,1.292Zm3.386,10.073a5.5,5.5,0,0,1-1.937.862l13.686,94.667a3.207,3.207,0,0,1,3.006,2.177l54.452-8.276c-0.008-.126-0.038-0.246-0.038-0.374a5.583,5.583,0,0,1,.134-1.186,0.627,0.627,0,0,0,.024-0.077h0a5.45,5.45,0,0,1,.288-0.916,0.043,0.043,0,0,1,0-.007,5.541,5.541,0,0,1,1.209-1.768Zm31.706,226.322a6.222,6.222,0,0,1,1.332.152l19.144-63.852-31.776-19.1a3.2,3.2,0,0,1-1.558,1.12l3.241,22.422c0.113-.007.219-0.034,0.334-0.034a5.525,5.525,0,0,1,5.442,6.6c-0.023.119-.062,0.23-0.092,0.346a5.421,5.421,0,0,1-.193.623c-0.054.138-.118,0.268-0.183,0.4a5.357,5.357,0,0,1-.256.472c-0.087.143-.179,0.28-0.279,0.414s-0.185.232-.283,0.344a5.634,5.634,0,0,1-.39.413c-0.078.072-.164,0.135-0.246,0.2a5.481,5.481,0,0,1-2.221,1.126l7.5,48.4C717.121,557.668,717.277,557.632,717.444,557.632Zm-1.4.173-7.5-48.4c-0.131.009-.257,0.039-0.39,0.039a4.811,4.811,0,0,1-.864-0.087,5.394,5.394,0,0,1-.625-0.141l-26.035,70.1,30.993-13.468A6.1,6.1,0,0,1,716.047,557.8Zm-59.61,87.573,0.126,0.069c0.048,0.027.1,0.049,0.144,0.078l56.727-77.031A6.179,6.179,0,0,1,712,566.689l-31.8,13.821-24.037,64.716C656.253,645.271,656.344,645.327,656.437,645.378Zm-4.605-.315h0a5.44,5.44,0,0,1,.6-0.186h0a5.533,5.533,0,0,1,1.376-.193,5.475,5.475,0,0,1,1.489.229l23.734-63.9L570.1,628.346a8.124,8.124,0,0,1,.431,4.2l77.973,16.131A5.538,5.538,0,0,1,651.832,645.063Zm-3.441,6.362h0l-86.8,11.612-1.3,39.016,88.471-49.521A5.485,5.485,0,0,1,648.391,651.425Zm-84.163,65.052L647.9,654.066l-87.646,49.058-0.369,11.085A6.576,6.576,0,0,1,564.228,716.477Zm-93.185,34.052c0.126,0.114.244,0.233,0.359,0.359a4.909,4.909,0,0,1,.5.6c0.007,0.01.016,0.018,0.022,0.028h0l87.439-48.942,1.312-39.415L535.677,666.5l-64.634,84.025h0Zm-3.725-1.464a5.428,5.428,0,0,1,.985.1c0.112,0.021.221,0.048,0.331,0.075a5.436,5.436,0,0,1,.593.185c0.123,0.045.247,0.087,0.366,0.141a5.58,5.58,0,0,1,.73.4l64.064-83.284-82.9,11.092a3.251,3.251,0,0,1,.057.571,3.216,3.216,0,0,1-2.064,3l16.95,67.815A5.471,5.471,0,0,1,467.318,749.065Zm-5.164,3.558a5.533,5.533,0,0,1,3.382-3.239l-16.958-67.847c-0.087.007-.17,0.026-0.259,0.026a3.21,3.21,0,0,1-3.192-2.945L291.053,699.231c0.021,0.26.039,0.521,0.039,0.787a9.386,9.386,0,0,1-.269,2.2Zm-171.222-54.3,154.233-20.636a3.229,3.229,0,0,1,1.875-2.3l-9.18-36.729a3.2,3.2,0,0,1-3.791-2.646l-88.762,2.952a3.22,3.22,0,0,1-3.217,3.2,3.185,3.185,0,0,1-1.987-.7l-51.489,52.22A9.345,9.345,0,0,1,290.932,698.322ZM262.9,742.05a6.776,6.776,0,0,1-.1,1l80.693,17.76a5.5,5.5,0,0,1,.933-1.786l-56.168-52.292a9.368,9.368,0,0,1-15.686-8.781l-10.724-2.978a3.207,3.207,0,0,1-2.519,2.217l-2.347,38.145A6.774,6.774,0,0,1,262.9,742.05Zm-6.833-6.795,2.341-38.045a3.173,3.173,0,0,1-2.741-3.95l-42.784-11.884a3.227,3.227,0,0,1-.712,1.133l40.25,53.843A6.736,6.736,0,0,1,256.068,735.255ZM250.6,738.1a6.836,6.836,0,0,1,1.1-1.181l-40.263-53.861a3.187,3.187,0,0,1-1.56.419,3.222,3.222,0,0,1-3.22-3.224,3.276,3.276,0,0,1,.059-0.589l-89.268-24.8a5.42,5.42,0,0,1-.265.592ZM112.259,647.4a5.519,5.519,0,0,1,1.052.107h0c0.115,0.022.222,0.06,0.334,0.089h0a5.618,5.618,0,0,1,.649.2h0c0.127,0.05.246,0.112,0.368,0.171h0a5.47,5.47,0,0,1,.528.287h0c0.123,0.077.239,0.159,0.355,0.245h0c0.073,0.054.139,0.115,0.209,0.173a5.527,5.527,0,0,1,1.322,1.575c0.039,0.074.082,0.146,0.12,0.221h0c0.065,0.13.14,0.253,0.2,0.388h0a5.6,5.6,0,0,1,.291.937h0l59.541-7.636c0-.083-0.025-0.161-0.025-0.245A5.106,5.106,0,0,1,177.29,643c0.019-.119.037-0.237,0.064-0.353,0.019-.076.045-0.15,0.07-0.224a5.433,5.433,0,0,1,.381-0.993h0l-72.939-44.476a3.181,3.181,0,0,1-1.6.443,3.01,3.01,0,0,1-.332-0.034l8.823,50.08C111.924,647.432,112.087,647.4,112.259,647.4Zm-10.3-50.278a3.218,3.218,0,0,1-1.913-2.941c0-.051.012-0.1,0.015-0.15L93.292,589.9a3.224,3.224,0,0,1-1.018.929l18.43,55.935Zm7.509,51.059,0.046-.025,0.116-.063a4.135,4.135,0,0,1,.463-0.252l-18.67-56.659a3.187,3.187,0,0,1-.768.1,3.222,3.222,0,0,1-3.22-3.224,3.188,3.188,0,0,1,.382-1.493L52.8,565.208h0a5.536,5.536,0,0,1-.929.979ZM46.89,556.6a5.291,5.291,0,0,1,.579-0.126,4.863,4.863,0,0,1,.86-0.087,5.537,5.537,0,0,1,1.069.108c0.134,0.026.257,0.075,0.387,0.111a5.489,5.489,0,0,1,.6.186c0.165,0.067.317,0.153,0.474,0.235,0.139,0.072.28,0.14,0.412,0.224a5.547,5.547,0,0,1,.509.375c0.088,0.072.178,0.14,0.262,0.217a5.476,5.476,0,0,1,.5.53c0.048,0.057.1,0.113,0.143,0.173a5.511,5.511,0,0,1,.453.684c0.021,0.037.041,0.074,0.061,0.112a5.508,5.508,0,0,1,.358.828c0.005,0.016.01,0.033,0.015,0.05a5.5,5.5,0,0,1,.222.949h0l24.5-1.4a3.214,3.214,0,0,1,1.917-2.607l-7.341-22.28a3.178,3.178,0,0,1-.945.157,3.217,3.217,0,0,1-1.9-5.813L13.922,462.223a5.468,5.468,0,0,1-.889.509ZM15.745,455.359l25.27-9.3a3.163,3.163,0,0,1,1.335-3.813L30.441,406.1a3.227,3.227,0,0,1-.664-0.116L13.025,452.652A5.554,5.554,0,0,1,15.745,455.359Zm-7.6-114.712,2.9,111.526h0a5.541,5.541,0,0,1,1.116.178l16.776-46.739a3.2,3.2,0,0,1-.355-5.155L8.839,340.54A5.589,5.589,0,0,1,8.148,340.647ZM29.277,247.9a5.46,5.46,0,0,1-.63.064,5.516,5.516,0,0,1-.776-0.078l-18.656,82a5.516,5.516,0,0,1,2.651,1.826c0.051,0.063.107,0.123,0.156,0.188a5.41,5.41,0,0,1,.29.457c0.082,0.137.159,0.276,0.229,0.421s0.124,0.271.178,0.412a5.45,5.45,0,0,1,.186.6c0.029,0.115.065,0.227,0.087,0.345a5.49,5.49,0,0,1,.1,1.022,5.239,5.239,0,0,1-.093.927c-0.017.1-.031,0.2-0.053,0.3l31.821,10.086a5.536,5.536,0,0,1,1.4-1.983h0c0.019-.017.039-0.032,0.059-0.048a5.5,5.5,0,0,1,.973-0.689l0.029-.016h0a5.531,5.531,0,0,1,1.134-.47h0Zm0.9-.177,19.087,95.365a5.472,5.472,0,0,1,.631-0.064c0.012,0,.022,0,0.034,0l7.99-89.756a3.2,3.2,0,0,1-1.792-3.6l-22.246-5.5A5.524,5.524,0,0,1,30.177,247.721Zm33.09-65.174L31.781,237.83c0.092,0.064.172,0.143,0.258,0.213,0.024,0.019.046,0.04,0.07,0.059,0.1,0.078.2,0.153,0.289,0.238l27.021-24.8a3.205,3.205,0,0,1,2.494-5.132l2.276-25.567A4.356,4.356,0,0,1,63.267,182.547Zm1.837,0.369-2.279,25.6a3.19,3.19,0,0,1,1.3.7l22.594-20.742-17.873-7.8A4.377,4.377,0,0,1,65.1,182.916Zm58.718-73.579L68.2,175.468a4.274,4.274,0,0,1,1.012,4.371l18.248,7.96,9.917-9.1a3.15,3.15,0,0,1,3.248-4.687l23.556-64.476C124.059,109.469,123.935,109.411,123.822,109.337Zm2.082,0.625a3.794,3.794,0,0,1-.865-0.108l-23.526,64.393a3.243,3.243,0,0,1,.445.242L123.844,154.4a3.205,3.205,0,0,1,4.111-4.593L149.9,122.764l-21.12-14.14A3.78,3.78,0,0,1,125.9,109.962Zm3.357-5.583a3.682,3.682,0,0,1,.03,3.483l21.19,14.186L207.6,51.664a7.991,7.991,0,0,1-.906-0.976ZM261.64,27.907a4.24,4.24,0,0,1-.33-0.542L220.537,43.313a7.959,7.959,0,0,1,.373,2.053L240.3,45.472a3.21,3.21,0,0,1,5-2.56Zm19.594,18.709-34.634-.19a3.205,3.205,0,0,1-5.361,1.455l-5.419,4.974a3.213,3.213,0,0,1,.968,2.3c0,0.046-.012.089-0.014,0.134l33.412,14.04a3.133,3.133,0,0,1,3.691-1.391l8.78-19.255A3.223,3.223,0,0,1,281.234,46.616ZM284.39,49.2a3.187,3.187,0,0,1-.895-0.142L274.71,68.321a3.165,3.165,0,0,1,1.329,3.468L411.7,128.794a10.118,10.118,0,0,1,4.652-4.73l-32.6-74.589a3.164,3.164,0,0,1-3.882-2.316l-92.333-.508A3.221,3.221,0,0,1,284.39,49.2ZM366,11.015a4.967,4.967,0,0,1-.946.1,5.539,5.539,0,0,1-1.05-.106c-0.116-.022-0.224-0.061-0.337-0.091a5.46,5.46,0,0,1-.641-0.2c-0.131-.052-0.253-0.114-0.379-0.175a5.6,5.6,0,0,1-.511-0.278c-0.129-.08-0.251-0.166-0.372-0.256-0.143-.107-0.279-0.219-0.411-0.339s-0.236-.216-0.346-0.334S360.8,9.082,360.7,8.951s-0.212-.266-0.305-0.41c-0.082-.129-0.147-0.267-0.218-0.4a5.453,5.453,0,0,1-.527-1.385l-55.4,7.5c0,0.1.029,0.187,0.029,0.284a5.551,5.551,0,0,1-5.548,5.554,5.494,5.494,0,0,1-1.87-.347L286.134,43.269a3.212,3.212,0,0,1,1.452,2.464l92.182,0.507a3.215,3.215,0,0,1,1.442-2.576L366.844,10.79A5.451,5.451,0,0,1,366,11.015Zm3.875-2.761a5.533,5.533,0,0,1-2.195,2.167h0l14.362,32.864a3.18,3.18,0,0,1,.93-0.153,3.219,3.219,0,0,1,3.213,3.144l62.738,0.345a7.545,7.545,0,0,1,.47-2.211L369.879,8.253h0Zm92.8,21.27a2.981,2.981,0,0,1,.031-0.3l-92.4-21.947-0.012.041c-0.012.034-.02,0.069-0.032,0.1l79.527,36.159a7.489,7.489,0,0,1,9.872-3.336l4.37-8.1A3.213,3.213,0,0,1,462.676,29.523Zm3.22,3.224a3.184,3.184,0,0,1-1.047-.189l-4.383,8.122a7.578,7.578,0,0,1,3.6,6.441s0,0.008,0,.012l97.249,6.043c0.02-.173.048-0.344,0.078-0.514l-92.5-21.971A3.215,3.215,0,0,1,465.9,32.747Zm12.4-14.456a5.5,5.5,0,0,1-7.169,2.622l-3.275,6.069a3.207,3.207,0,0,1,1.261,2.541c0,0.093-.02.18-0.028,0.271L561.6,51.767c0.029-.1.061-0.194,0.093-0.291Zm82.951,35.864c0-.021,0-0.042,0-0.063l-97.283-6.045a7.574,7.574,0,0,1-.266,1.267l64.387,23.868a3.311,3.311,0,0,1,5.584-.456l28.356-15.041A8.378,8.378,0,0,1,561.251,54.155Zm8.127,8.408a8.394,8.394,0,0,1-6.915-4.069L534.134,73.522a3.231,3.231,0,0,1,.154,1.956l33.424,12.389a3.211,3.211,0,0,1,2.154-1.587Zm-2.091,26.875a3.268,3.268,0,0,1,.086-0.718L533.957,76.333a3.324,3.324,0,0,1-5.687.3L429.922,128.8a10.028,10.028,0,0,1,.931,3.375l137.175-6.587c0-.008,0-0.014,0-0.021a3.224,3.224,0,0,1,2.583-3.16L570,92.611A3.215,3.215,0,0,1,567.287,89.438ZM576.05,59.63a8.385,8.385,0,0,1-5.754,2.916l0.487,23.7a3.2,3.2,0,0,1,2.88,3.83L653.857,119.8c0.058-.117.118-0.232,0.186-0.343Zm77.4,62.778L574.4,126.2a3.211,3.211,0,0,1-2.745,2.548l0.752,36.53a3.215,3.215,0,0,1,2.336,3.086,3.028,3.028,0,0,1-.031.3L622.7,179.9a3.187,3.187,0,0,1,4.3-1.594l28.31-52.931A4.384,4.384,0,0,1,653.453,122.408Zm4.323,3.728a4.366,4.366,0,0,1-1.655-.329l-28.353,53.011a3.206,3.206,0,0,1,1.086,2.4c0,0.042-.011.081-0.012,0.122l33.968,7.95a3.213,3.213,0,0,1,2.4-2.2l-7.367-60.96C657.821,126.129,657.8,126.136,657.776,126.136Zm2.171-.6a4.346,4.346,0,0,1-1.193.478l7.378,61.03a3.213,3.213,0,0,1,2.958,3.2,3.174,3.174,0,0,1-.051.5l41.419,9.694h0a5.519,5.519,0,0,1,1.662-2.5Zm53.9,81.811h0a5.42,5.42,0,0,1-.76-0.344h0l-0.124-.067h0a5.569,5.569,0,0,1-.751-0.519c-0.021-.019-0.043-0.036-0.065-0.054h0a5.637,5.637,0,0,1-.493-0.459h0c-0.074-.079-0.137-0.166-0.206-0.249h0a5.65,5.65,0,0,1-.391-0.507l-37.353,20a3.207,3.207,0,0,1-2.442,4.376l9.517,78.729a3.171,3.171,0,0,1,2.927,4.159l2.021,0.647,28.12-105.713h0Zm1.861,0.344a5.533,5.533,0,0,1-.978-0.1L686.6,313.342l9.911,3.171a3.186,3.186,0,0,1,5.293-.628l33.1-17.822-18.542-90.436A5.459,5.459,0,0,1,715.712,207.694Zm29.8,84.658a5.515,5.515,0,0,1,2.623-7.169L717.315,207.43h0l-0.045.014,18.487,90.163ZM735.1,299l-32.8,17.657a2.905,2.905,0,0,1,.237,1.785l39.11,12.514Zm6.764,32.987-39.581-12.665a3.2,3.2,0,0,1-5.625.375l-9.02,4.857h0a5.528,5.528,0,0,1,.339,1.055,0.05,0.05,0,0,1,0,.013h0a5.551,5.551,0,0,1,.122,1.147,5.654,5.654,0,0,1-.115,1.127c0,0.008,0,.015-0.007.022s-0.009.024-.012,0.036a5.564,5.564,0,0,1-.264.854c-0.049.124-.109,0.24-0.167,0.36a5.629,5.629,0,0,1-.275.507c-0.069.111-.137,0.22-0.213,0.326a5.448,5.448,0,0,1-.433.526c-0.059.064-.111,0.135-0.173,0.2l70.826,85.1a5.567,5.567,0,0,1,.692-0.4h0c0.034-.017.065-0.038,0.1-0.054a5.4,5.4,0,0,1,.833-0.313Zm17.2,8.519a3.391,3.391,0,0,1-2.981-3.362,3.435,3.435,0,0,1,.059-0.587l-13.278-4.249,16.929,82.57,0.03,0,0.105-.01Z"/>
</svg>
