<?xml version="1.0" encoding="utf-8"?>
<!-- Generator: Adobe Illustrator 22.1.0, SVG Export Plug-In . SVG Version: 6.00 Build 0)  -->
<svg version="1.1" id="Paths_1_" xmlns="http://www.w3.org/2000/svg" xmlns:xlink="http://www.w3.org/1999/xlink" x="0px" y="0px"
	 viewBox="0 0 1600 1000" style="enable-background:new 0 0 1600 1000;" xml:space="preserve">
<style type="text/css">
	.st0{fill:#FFFFFF;}
	.st1{fill-rule:evenodd;clip-rule:evenodd;fill:#FFFFFF;}
	.st2{display:none;}
	.st3{display:inline;fill:none;}
</style>
<g id="Ellipse_3">
	<g>
		<path class="st0" d="M1502.9,2c34.2,27.8,66.2,58.7,95.1,91.8v829.8c-41.3,32.1-88.4,57.2-140.1,74.4h-350.3
			c-96-28.6-188.8-79.4-268.6-147c-40.6-34.4-77.7-73-110.2-114.7c-33.5-43-62.2-89.3-85.4-137.8c-50.9-106.6-72.8-219.3-63.3-325.8
			C589.5,169.5,627.6,75.9,690.5,2H1502.9 M1503.7,0h-814c-127.3,148.9-153.7,378-47.9,599.4c94.7,198.3,272.9,343.3,465.6,400.6
			h350.9c53.4-17.8,100.9-43.4,141.8-75.4V93.1C1570.4,59.1,1538.1,28,1503.7,0L1503.7,0z"/>
	</g>
</g>
<g id="Ellipse_3_1_">
	<g>
		<path class="st0" d="M1196.3,2c63.8,52.7,121.9,115.9,172.7,187.9c52.7,74.7,96.4,157.5,130,246.1c36,94.8,58.9,192.3,68.3,290
			c9,93.8,5.2,185.3-11.3,272H351c-14.6-30.2-28.1-61.4-40-93c-32-84.3-53.8-171.2-64.7-258.2c-10.6-84.2-11-167.3-1.1-247.2
			c9.7-78.9,29.3-153,58.1-220.4C332.1,111.4,369.8,51.8,415.2,2H1196.3 M1197,0H414.3C229.1,202.4,178.1,560.6,309.1,905.7
			c12.3,32.5,25.9,63.9,40.7,94.3h1207.9c33-172.4,16.9-370.6-56.8-564.7C1432.1,253.9,1323.7,104.3,1197,0L1197,0z"/>
	</g>
</g>
<g id="Ellipse_3_copy">
	<g>
		<path class="st0" d="M1450.1,2c-17.6,49.2-42.7,99.1-74.8,148.2c-33,50.6-73.7,101-121,149.9c-98.2,101.5-224.2,196.2-374.5,281.7
			C750.6,655.2,608.1,719,456.1,771.4C309.9,821.8,157.2,860.9,2,887.7V2H1450.1 M1452.9,0H0v890.1
			c307.9-52.9,616.6-156.3,880.8-306.6C1188.4,408.6,1382.4,200.8,1452.9,0L1452.9,0z"/>
	</g>
</g>
<g id="Ellipse_3_copy_2">
	<g>
		<path class="st0" d="M1534.3,2c3,58.3-5.4,113.3-24.8,163.6c-19.5,50.4-49.8,95.3-90.1,133.3c-83.7,79-206.7,125.1-355.5,133.2
			c-15.8,0.9-32,1.3-48.1,1.3c-80.8,0-165.4-10.8-251.7-32c-83.7-20.6-167.6-50.8-249.2-89.6c-81-38.5-158.1-84.8-229.2-137.5
			C214.7,121.7,151.2,63.8,96.9,2H1534.3 M1536.1,0H92.5c222.9,255.7,593,435.4,923.1,435.4c16.2,0,32.3-0.4,48.2-1.3
			C1372.6,417.2,1549.2,239.1,1536.1,0L1536.1,0z"/>
	</g>
</g>
<g id="Ellipse_3_2_">
	<g>
		<path class="st0" d="M1598,2v996H716.7c-42-72.3-70.1-150.6-83.6-232.7c-13.3-81-12.1-163.4,3.7-245.1
			c15.9-82.4,46.1-161.4,89.8-234.9C771.9,209.3,830.5,141,901,82.3c35.7-29.8,74.2-56.8,114.5-80.3H1598 M1600,0h-585.1
			c-40.1,23.4-78.7,50.3-115.2,80.7C610.9,321.3,543.6,704.8,715.6,1000H1600V0L1600,0z"/>
	</g>
</g>
<g id="Ellipse_3_3_">
	<g>
		<path class="st0" d="M1598,2v996h-387.9c-30.7-43.8-58.9-91.6-83.8-142c-25.8-52.2-48.3-107.8-67.1-165.3
			c-19.4-59.6-34.6-121-45.2-182.5c-10.3-59.8-16.2-120.2-17.7-179.5c-1.5-58.2,1.3-115.8,8.4-171c6.9-54.3,17.9-106.7,32.7-155.7
			H1598 M1600,0h-564c-60.2,198.3-57.8,448,21.4,691.3c38.2,117.2,90.4,221.3,151.7,308.7H1600V0L1600,0z"/>
	</g>
</g>
<g id="Ellipse_3_4_">
	<g>
		<path class="st0" d="M1598,116.2V998H773.9c5.8-107.9,40.1-225.4,99.2-340c61.2-118.6,146.8-229.5,247.6-320.5
			c77.4-69.9,159.4-124.8,243.7-163c40.4-18.3,81-32.6,120.7-42.4C1523.8,122.6,1561.7,117.2,1598,116.2 M1600,114.1
			c-148.2,3.5-321.9,78.6-480.6,221.9c-209.1,188.8-336.5,446.1-347.6,664H1600V114.1L1600,114.1z"/>
	</g>
</g>
<g id="Ellipse_4">
	<g>
		<path class="st1" d="M805,812c-5.5,0-10,4.5-10,10c0,5.5,4.5,10,10,10c5.5,0,10-4.5,10-10C815,816.5,810.5,812,805,812z M1573,791
			c-5.5,0-10,4.5-10,10c0,5.5,4.5,10,10,10c5.5,0,10-4.5,10-10C1583,795.5,1578.5,791,1573,791z M1360,165c-5.5,0-10,4.5-10,10
			c0,5.5,4.5,10,10,10c5.5,0,10-4.5,10-10C1370,169.5,1365.5,165,1360,165z M628,547c-11,0-20,9-20,20c0,11,9,20,20,20
			c11,0,20-9,20-20C648,556,639,547,628,547z M1003,146c-8.3,0-15,6.7-15,15c0,8.3,6.7,15,15,15c8.3,0,15-6.7,15-15
			C1018,152.7,1011.3,146,1003,146z M300,173c-5.5,0-10,4.5-10,10c0,5.5,4.5,10,10,10c5.5,0,10-4.5,10-10
			C310,177.5,305.5,173,300,173z M282,811c-8.3,0-15,6.7-15,15c0,8.3,6.7,15,15,15c8.3,0,15-6.7,15-15C297,817.7,290.3,811,282,811z
			 M1535,20c-5.5,0-10,4.5-10,10c0,5.5,4.5,10,10,10c5.5,0,10-4.5,10-10C1545,24.5,1540.5,20,1535,20z M1002,425
			c-5.5,0-10,4.5-10,10s4.5,10,10,10s10-4.5,10-10S1007.5,425,1002,425z"/>
	</g>
</g>
<g id="Ellipse_5">
	<g>
		<path class="st1" d="M577,336c-2.8,0-5,2.2-5,5c0,2.8,2.2,5,5,5s5-2.2,5-5C582,338.2,579.8,336,577,336z M678,373
			c-2.8,0-5,2.2-5,5c0,2.8,2.2,5,5,5c2.8,0,5-2.2,5-5C683,375.2,680.8,373,678,373z M687,675c-2.8,0-5,2.2-5,5s2.2,5,5,5
			c2.8,0,5-2.2,5-5S689.8,675,687,675z M625,703c-2.8,0-5,2.2-5,5s2.2,5,5,5c2.8,0,5-2.2,5-5S627.8,703,625,703z M1432,283
			c-2.8,0-5,2.2-5,5s2.2,5,5,5c2.8,0,5-2.2,5-5S1434.8,283,1432,283z M1109,425c-2.8,0-5,2.2-5,5s2.2,5,5,5c2.8,0,5-2.2,5-5
			S1111.8,425,1109,425z M1566,942c-2.8,0-5,2.2-5,5s2.2,5,5,5c2.8,0,5-2.2,5-5S1568.8,942,1566,942z M1524,118c-2.8,0-5,2.2-5,5
			c0,2.8,2.2,5,5,5c2.8,0,5-2.2,5-5C1529,120.2,1526.8,118,1524,118z M1011,497c-2.8,0-5,2.2-5,5c0,2.8,2.2,5,5,5s5-2.2,5-5
			C1016,499.2,1013.8,497,1011,497z M936,545c-2.8,0-5,2.2-5,5s2.2,5,5,5s5-2.2,5-5S938.8,545,936,545z M1010,456c0-2.8-2.2-5-5-5
			c-2.8,0-5,2.2-5,5c0,2.8,2.2,5,5,5C1007.8,461,1010,458.8,1010,456z M1023,430c-2.8,0-5,2.2-5,5s2.2,5,5,5c2.8,0,5-2.2,5-5
			S1025.8,430,1023,430z"/>
	</g>
</g>
<g id="Paths_xA0_Clipping_Path" class="st2">
	<path class="st3" d="M0,0v1000h1600V0H0z M1346.1,551.7c-27.7,157.7-178.1,263.2-335.8,235.4c-157.7-27.7-263.2-178.1-235.4-335.8
		c27.7-157.7,178.1-263.2,335.8-235.4C1268.4,243.6,1373.8,393.9,1346.1,551.7z"/>
</g>
</svg>
